SplineFontDB: 3.2
FontName: DiagramSmart
FullName: Diagram Smart
FamilyName: Diagram Smart
Weight: Regular
Copyright: 
UComments: "2025-2-20: Created with FontForge (http://fontforge.org)"
Version: 001.000
ItalicAngle: 0
UnderlinePosition: -125
UnderlineWidth: 50
Ascent: 800
Descent: 200
InvalidEm: 0
LayerCount: 2
Layer: 0 0 "Back" 1
Layer: 1 0 "Fore" 0
XUID: [1021 1001 503948851 12892410]
OS2Version: 0
OS2_WeightWidthSlopeOnly: 0
OS2_UseTypoMetrics: 1
CreationTime: 1740025491
ModificationTime: 1740026392
OS2TypoAscent: 0
OS2TypoAOffset: 1
OS2TypoDescent: 0
OS2TypoDOffset: 1
OS2TypoLinegap: 0
OS2WinAscent: 0
OS2WinAOffset: 1
OS2WinDescent: 0
OS2WinDOffset: 1
HheadAscent: 0
HheadAOffset: 1
HheadDescent: 0
HheadDOffset: 1
OS2Vendor: 'PfEd'
MarkAttachClasses: 1
DEI: 91125
Encoding: iso8859-5
UnicodeInterp: none
NameList: AGL For New Fonts
DisplaySize: -48
AntiAlias: 1
FitToEm: 0
WinInfo: 0 19 14
BeginPrivate: 0
EndPrivate
BeginChars: 256 26

StartChar: P
Encoding: 80 80 1
Width: 1000
Flags: HW
LayerCount: 2
Fore
SplineSet
228 43 m 0
 234.666666667 73 242.333333333 96.1666666667 251 112.5 c 128
 259.666666667 128.833333333 272.333333333 147.166666667 289 167.5 c 128
 305.666666667 187.833333333 320.666666667 201.833333333 334 209.5 c 128
 347.333333333 217.166666667 367 225.333333333 393 234 c 0
 395 235.333333333 397 237 399 239 c 1
 386.333333333 247 374 255 362 263 c 0
 352 272.333333333 344.166666667 287 338.5 307 c 128
 332.833333333 327 330 345.333333333 330 362 c 0
 330 369.333333333 330.666666667 377 332 385 c 128
 333.333333333 393 338.833333333 405.5 348.5 422.5 c 128
 358.166666667 439.5 368.166666667 452.166666667 378.5 460.5 c 128
 388.833333333 468.833333333 399.5 473.833333333 410.5 475.5 c 128
 421.5 477.166666667 432 478.666666667 442 480 c 0
 443.333333333 481.333333333 445 482.666666667 447 484 c 1
 436.333333333 488.666666667 426 493.333333333 416 498 c 0
 408 504.666666667 402 513.833333333 398 525.5 c 128
 394 537.166666667 392 549 392 561 c 0
 392 572.333333333 393.166666667 582 395.5 590 c 128
 397.833333333 598 404.333333333 607.833333333 415 619.5 c 128
 425.666666667 631.166666667 436.166666667 640.333333333 446.5 647 c 128
 456.833333333 653.666666667 474 657 498 657 c 0
 522.666666667 657 540.5 653.833333333 551.5 647.5 c 128
 562.5 641.166666667 574.5 630.833333333 587.5 616.5 c 128
 600.5 602.166666667 607 583.333333333 607 560 c 0
 607 532.666666667 599 512 583 498 c 1
 566.333333333 491.333333333 556 487 552 485 c 1
 553.333333333 483 555 481.333333333 557 480 c 0
 567.666666667 478.666666667 578.666666667 477.666666667 590 477 c 0
 599.333333333 475 609.833333333 469.5 621.5 460.5 c 128
 633.166666667 451.5 643.5 437.5 652.5 418.5 c 128
 661.5 399.5 666.5 387.166666667 667.5 381.5 c 128
 668.5 375.833333333 669 369.333333333 669 362 c 0
 669 344 666.5 325.5 661.5 306.5 c 128
 656.5 287.5 649 273.5 639 264.5 c 128
 629 255.5 620.666666667 249.333333333 614 246 c 128
 607.333333333 242.666666667 602.333333333 240 599 238 c 1
 601.666666667 236 609.5 232.833333333 622.5 228.5 c 128
 635.5 224.166666667 649.166666667 218 663.5 210 c 128
 677.833333333 202 692.833333333 188.333333333 708.5 169 c 128
 724.166666667 149.666666667 736.833333333 130.5 746.5 111.5 c 128
 756.166666667 92.5 763.5 72.5 768.5 51.5 c 128
 773.5 30.5 776.333333333 15.6666666667 777 7 c 128
 777.666666667 -1.66666666667 778 -12.3333333333 778 -25 c 0
 778 -31 777.666666667 -41.6666666667 777 -57 c 128
 776.333333333 -72.3333333333 776 -85.3333333333 776 -96 c 1
 222 -96 l 1
 222 -84 221.833333333 -72.3333333333 221.5 -61 c 128
 221.166666667 -49.6666666667 221 -38.6666666667 221 -28 c 0
 221 -14 221.333333333 -2.16666666667 222 7.5 c 128
 222.666666667 17.1666666667 224.666666667 29 228 43 c 0
441 594 m 0
 432.333333333 582.666666667 428 570.333333333 428 557 c 0
 428 553 428.5 548.5 429.5 543.5 c 128
 430.5 538.5 432 533.833333333 434 529.5 c 128
 436 525.166666667 440.166666667 520.833333333 446.5 516.5 c 128
 452.833333333 512.166666667 457 509 459 507 c 2
 486 480 l 1
 464 470.666666667 449.166666667 463.333333333 441.5 458 c 128
 433.833333333 452.666666667 426.5 447.833333333 419.5 443.5 c 128
 412.5 439.166666667 406 433.5 400 426.5 c 128
 394 419.5 388.666666667 410.666666667 384 400 c 128
 379.333333333 389.333333333 375.833333333 380.833333333 373.5 374.5 c 128
 371.166666667 368.166666667 370 361.333333333 370 354 c 0
 370 345.333333333 372 336.333333333 376 327 c 128
 380 317.666666667 385.166666667 307.666666667 391.5 297 c 128
 397.833333333 286.333333333 405.166666667 277.333333333 413.5 270 c 128
 421.833333333 262.666666667 431.166666667 255.166666667 441.5 247.5 c 128
 451.833333333 239.833333333 459.666666667 234.333333333 465 231 c 1
 402 201 l 2
 384 192.333333333 369.333333333 183.833333333 358 175.5 c 128
 346.666666667 167.166666667 334.833333333 155.166666667 322.5 139.5 c 128
 310.166666667 123.833333333 301.166666667 109.166666667 295.5 95.5 c 128
 289.833333333 81.8333333333 285 65.5 281 46.5 c 128
 277 27.5 274.666666667 13.3333333333 274 4 c 128
 273.333333333 -5.33333333333 273 -16 273 -28 c 2
 273 -51 l 1
 722 -51 l 1
 722 -28 l 2
 722 -16 721.666666667 -5.33333333333 721 4 c 128
 720.333333333 13.3333333333 718 27.3333333333 714 46 c 128
 710 64.6666666667 705.166666667 80.8333333333 699.5 94.5 c 128
 693.833333333 108.166666667 685 122.666666667 673 138 c 128
 661 153.333333333 649.333333333 165.5 638 174.5 c 128
 626.666666667 183.5 611.666666667 192.333333333 593 201 c 2
 530 231 l 1
 538 236.333333333 546.166666667 241.833333333 554.5 247.5 c 128
 562.833333333 253.166666667 570 259 576 265 c 128
 582 271 587.166666667 276.333333333 591.5 281 c 128
 595.833333333 285.666666667 600.5 292 605.5 300 c 128
 610.5 308 615 316.666666667 619 326 c 128
 623 335.333333333 625 344.666666667 625 354 c 0
 625 361.333333333 623.333333333 369.166666667 620 377.5 c 128
 616.666666667 385.833333333 613.166666667 394.333333333 609.5 403 c 128
 605.833333333 411.666666667 601.333333333 419.166666667 596 425.5 c 128
 590.666666667 431.833333333 582.666666667 438.333333333 572 445 c 128
 561.333333333 451.666666667 553.666666667 456.833333333 549 460.5 c 128
 544.333333333 464.166666667 536.5 468.333333333 525.5 473 c 128
 514.5 477.666666667 518 489 536 507 c 0
 544 513.666666667 552 520.666666667 560 528 c 1
 564 538 566 548.333333333 566 559 c 0
 566 572.333333333 560.5 586 549.5 600 c 128
 538.5 614 522 621 500 621 c 0
 490.666666667 621 480 618.666666667 468 614 c 128
 456 609.333333333 447 602.666666667 441 594 c 0
EndSplineSet
EndChar

StartChar: hyphen
Encoding: 45 45 2
Width: 1000
Flags: HW
LayerCount: 2
Fore
SplineSet
0 -183 m 1
 983 800 l 1
 1000 800 l 1
 1000 783 l 1
 17 -200 l 1
 0 -200 l 1
 0 -183 l 1
0 761 m 1
 39 800 l 1
 73 800 l 1
 0 727 l 1
 0 761 l 1
0 643 m 1
 157 800 l 1
 191 800 l 1
 0 609 l 1
 0 643 l 1
0 525 m 1
 275 800 l 1
 309 800 l 1
 0 491 l 1
 0 525 l 1
337 -200 m 1
 1000 463 l 1
 1000 429 l 1
 371 -200 l 1
 337 -200 l 1
219 -200 m 1
 1000 581 l 1
 1000 547 l 1
 253 -200 l 1
 219 -200 l 1
101 -200 m 1
 1000 699 l 1
 1000 665 l 1
 135 -200 l 1
 101 -200 l 1
0 407 m 1
 393 800 l 1
 427 800 l 1
 0 373 l 1
 0 407 l 1
0 289 m 1
 511 800 l 1
 545 800 l 1
 0 255 l 1
 0 289 l 1
0 171 m 1
 629 800 l 1
 663 800 l 1
 0 137 l 1
 0 171 l 1
0 53 m 1
 747 800 l 1
 781 800 l 1
 0 19 l 1
 0 53 l 1
0 -65 m 1
 865 800 l 1
 899 800 l 1
 0 -99 l 1
 0 -65 l 1
809 -200 m 1
 1000 -9 l 1
 1000 -43 l 1
 843 -200 l 1
 809 -200 l 1
691 -200 m 1
 1000 109 l 1
 1000 75 l 1
 725 -200 l 1
 691 -200 l 1
573 -200 m 1
 1000 227 l 1
 1000 193 l 1
 607 -200 l 1
 573 -200 l 1
455 -200 m 1
 1000 345 l 1
 1000 311 l 1
 489 -200 l 1
 455 -200 l 1
927 -200 m 1
 1000 -127 l 1
 1000 -161 l 1
 961 -200 l 1
 927 -200 l 1
EndSplineSet
EndChar

StartChar: K
Encoding: 75 75 3
Width: 1000
Flags: HW
LayerCount: 2
Fore
SplineSet
722 -52 m 1
 719.333333333 -48 716.666666667 -44.3333333333 714 -41 c 0
 690 -33 665 -29 639 -29 c 0
 624.333333333 -29 602 -28 572 -26 c 128
 542 -24 517.666666667 -23 499 -23 c 0
 479.666666667 -23 455.666666667 -24.3333333333 427 -27 c 128
 398.333333333 -29.6666666667 376.333333333 -31 361 -31 c 0
 344.333333333 -31 324.666666667 -33.6666666667 302 -39 c 0
 294 -43 286.333333333 -47.3333333333 279 -52 c 1
 307.666666667 -64 340.5 -72.6666666667 377.5 -78 c 128
 414.5 -83.3333333333 455.666666667 -86 501 -86 c 0
 590.333333333 -86 664 -74.6666666667 722 -52 c 1
476 168 m 1
 476 277 l 1
 476 276 l 1
 468.666666667 305.333333333 459.666666667 327 449 341 c 1
 436.333333333 352.333333333 426.833333333 362 420.5 370 c 128
 414.166666667 378 408.166666667 384.166666667 402.5 388.5 c 128
 396.833333333 392.833333333 385 400.666666667 367 412 c 128
 349 423.333333333 334.166666667 431.833333333 322.5 437.5 c 128
 310.833333333 443.166666667 296.666666667 446 280 446 c 0
 257.333333333 446 240.833333333 445 230.5 443 c 128
 220.166666667 441 205.833333333 433.833333333 187.5 421.5 c 128
 169.166666667 409.166666667 157.166666667 393.666666667 151.5 375 c 128
 145.833333333 356.333333333 143 340.666666667 143 328 c 0
 143 317.333333333 144.166666667 307 146.5 297 c 128
 148.833333333 287 151.333333333 276.333333333 154 265 c 128
 156.666666667 253.666666667 160.166666667 243.333333333 164.5 234 c 128
 168.833333333 224.666666667 175.833333333 212.166666667 185.5 196.5 c 128
 195.166666667 180.833333333 204.333333333 168 213 158 c 128
 221.666666667 148 231.333333333 138 242 128 c 1
 256.666666667 133.333333333 274 138.666666667 294 144 c 128
 314 149.333333333 336 154 360 158 c 128
 384 162 403.166666667 164.666666667 417.5 166 c 128
 431.833333333 167.333333333 451.333333333 168 476 168 c 1
658 156 m 0
 667.333333333 154.666666667 683 151.166666667 705 145.5 c 128
 727 139.833333333 745.333333333 134 760 128 c 1
 772.666666667 140 782.166666667 149.666666667 788.5 157 c 128
 794.833333333 164.333333333 803.833333333 177.166666667 815.5 195.5 c 128
 827.166666667 213.833333333 835.166666667 228 839.5 238 c 128
 843.833333333 248 847.166666667 258.333333333 849.5 269 c 128
 851.833333333 279.666666667 854 290.666666667 856 302 c 128
 858 313.333333333 859 322.333333333 859 329 c 0
 859 341 856.166666667 356.333333333 850.5 375 c 128
 844.833333333 393.666666667 833.166666667 409 815.5 421 c 128
 797.833333333 433 782.666666667 440.166666667 770 442.5 c 128
 757.333333333 444.833333333 741.333333333 446 722 446 c 0
 704.666666667 446 690.833333333 443.5 680.5 438.5 c 128
 670.166666667 433.5 656.166666667 425.5 638.5 414.5 c 128
 620.833333333 403.5 608.166666667 394.833333333 600.5 388.5 c 128
 592.833333333 382.166666667 584.5 373.833333333 575.5 363.5 c 128
 566.5 353.166666667 557 342.333333333 547 331 c 0
 538.333333333 317 531.333333333 298.666666667 526 276 c 1
 526 277 l 1
 526 168 l 1
 550 168 569.833333333 167.166666667 585.5 165.5 c 128
 601.166666667 163.833333333 625.333333333 160.666666667 658 156 c 0
618 14 m 2
 706 -1 l 1
 706 1 706 1 706 3 c 0
 698.666666667 10.3333333333 696 15 698 17 c 0
 700.666666667 19.6666666667 702 22.3333333333 702 25 c 0
 702 31.6666666667 695.166666667 36.6666666667 681.5 40 c 128
 667.833333333 43.3333333333 648.666666667 46.6666666667 624 50 c 128
 599.333333333 53.3333333333 581 55 569 55 c 0
 561 55 553.166666667 54.8333333333 545.5 54.5 c 128
 537.833333333 54.1666666667 530 54 522 54 c 2
 507 54 l 2
 502.333333333 54.6666666667 499 55 497 55 c 0
 491 54.3333333333 485 54 479 54 c 128
 470 54 470 54 465 54 c 2
 445 54 l 2
 435 54 425.5 53.8333333333 416.5 53.5 c 128
 407.5 53.1666666667 399.166666667 51.8333333333 391.5 49.5 c 128
 383.833333333 47.1666666667 365 43.8333333333 335 39.5 c 128
 305 35.1666666667 290 29.6666666667 290 23 c 0
 290 21 291.666666667 17.6666666667 295 13 c 0
 297 11 296.5 8.33333333333 293.5 5 c 128
 290.5 1.66666666667 288 -1.33333333333 286 -4 c 1
 293.333333333 -3.33333333333 310.5 0 337.5 6 c 128
 364.5 12 383.333333333 15.8333333333 394 17.5 c 128
 404.666666667 19.1666666667 415.166666667 20.3333333333 425.5 21 c 128
 435.833333333 21.6666666667 448 22 462 22 c 2
 497 22 l 2
 517 22 534 21.8333333333 548 21.5 c 128
 562 21.1666666667 585.333333333 18.6666666667 618 14 c 2
373 131 m 0
 341.666666667 125 314.666666667 119.5 292 114.5 c 128
 269.333333333 109.5 258 102 258 92 c 0
 258 87.3333333333 259.666666667 83.3333333333 263 80 c 0
 267.666666667 72.6666666667 271.5 66.8333333333 274.5 62.5 c 128
 277.5 58.1666666667 280.666666667 56 284 56 c 0
 291.333333333 56 299.333333333 58.1666666667 308 62.5 c 128
 316.666666667 66.8333333333 326 70.1666666667 336 72.5 c 128
 346 74.8333333333 358.666666667 76.8333333333 374 78.5 c 128
 389.333333333 80.1666666667 406.666666667 81 426 81 c 0
 437.333333333 81 449.166666667 80.8333333333 461.5 80.5 c 128
 473.833333333 80.1666666667 486.333333333 80 499 80 c 0
 516 80 516 80 532 80 c 128
 542.666666667 80 553.333333333 80.3333333333 564 81 c 0
 581.333333333 81 597.5 80.3333333333 612.5 79 c 128
 627.5 77.6666666667 644.666666667 74.6666666667 664 70 c 0
 674.666666667 65.3333333333 683.333333333 61.8333333333 690 59.5 c 128
 696.666666667 57.1666666667 703.666666667 56 711 56 c 0
 715 56 718.333333333 59.6666666667 721 67 c 128
 723.666666667 74.3333333333 726 79.3333333333 728 82 c 128
 730 84.6666666667 731 88 731 92 c 0
 731 102 716.666666667 110.333333333 688 117 c 0
 663.333333333 121.666666667 639 126.333333333 615 131 c 0
 595.666666667 136.333333333 576.166666667 140 556.5 142 c 128
 536.833333333 144 517 146 497 148 c 1
 467 145.333333333 443.666666667 143.166666667 427 141.5 c 128
 410.333333333 139.833333333 392.333333333 136.333333333 373 131 c 0
562 413 m 0
 565 433 565 433 568 453 c 0
 568 459 567.5 463.666666667 566.5 467 c 128
 565.5 470.333333333 561.166666667 478.666666667 553.5 492 c 128
 545.833333333 505.333333333 528.666666667 512 502 512 c 0
 474 512 455.5 504 446.5 488 c 128
 437.5 472 433 459.333333333 433 450 c 0
 433 444 434 437.333333333 436 430 c 128
 438 422.666666667 440 414.5 442 405.5 c 128
 444 396.5 450.833333333 383.666666667 462.5 367 c 128
 474.166666667 350.333333333 487 332.666666667 501 314 c 1
 503.666666667 318.666666667 513.666666667 332 531 354 c 128
 548.333333333 376 558.666666667 395.666666667 562 413 c 0
526 650 m 1
 600 650 l 1
 600 600 l 1
 525 600 l 1
 525 542 l 1
 532.333333333 545.333333333 542 543.333333333 554 536 c 128
 566 528.666666667 575.5 520.833333333 582.5 512.5 c 128
 589.5 504.166666667 595 480.666666667 599 442 c 0
 601 439.333333333 603.333333333 436.666666667 606 434 c 1
 613.333333333 452.666666667 630.333333333 466.833333333 657 476.5 c 128
 683.666666667 486.166666667 708 491 730 491 c 0
 750.666666667 491 771.166666667 487.333333333 791.5 480 c 128
 811.833333333 472.666666667 826.666666667 466.333333333 836 461 c 128
 845.333333333 455.666666667 855.833333333 446.833333333 867.5 434.5 c 128
 879.166666667 422.166666667 887.833333333 406.5 893.5 387.5 c 128
 899.166666667 368.5 902 346 902 320 c 0
 902 290 894.333333333 260 879 230 c 0
 866.333333333 208 856.666666667 190.666666667 850 178 c 0
 810 126 810 126 770 74 c 0
 764 62 759.333333333 52.1666666667 756 44.5 c 128
 752.666666667 36.8333333333 751 29 751 21 c 0
 751 17 751.666666667 12.5 753 7.5 c 128
 754.333333333 2.5 762.833333333 -3.33333333333 778.5 -10 c 128
 794.166666667 -16.6666666667 802.666666667 -24.6666666667 804 -34 c 0
 806.666666667 -52.6666666667 798 -66.1666666667 778 -74.5 c 128
 758 -82.8333333333 740.666666667 -90.5 726 -97.5 c 128
 711.333333333 -104.5 694.5 -109.833333333 675.5 -113.5 c 128
 656.5 -117.166666667 632.333333333 -121.666666667 603 -127 c 128
 573.666666667 -132.333333333 540 -135 502 -135 c 256
 464 -135 429.166666667 -132 397.5 -126 c 128
 365.833333333 -120 341.666666667 -115.666666667 325 -113 c 0
 307.666666667 -109 290.833333333 -103.166666667 274.5 -95.5 c 128
 258.166666667 -87.8333333333 241.333333333 -80.3333333333 224 -73 c 0
 205.333333333 -63 197.333333333 -50 200 -34 c 0
 201.333333333 -26 210 -18 226 -10 c 128
 242 -2 250.666666667 5.33333333333 252 12 c 0
 254 22.6666666667 252.5 33.1666666667 247.5 43.5 c 128
 242.5 53.8333333333 237.333333333 64 232 74 c 0
 226 88.6666666667 212.333333333 107.666666667 191 131 c 128
 169.666666667 154.333333333 151.5 179.5 136.5 206.5 c 128
 121.5 233.5 111.666666667 254 107 268 c 128
 102.333333333 282 100 299.333333333 100 320 c 0
 100 347.333333333 102.666666667 370 108 388 c 128
 113.333333333 406 122.166666667 421.5 134.5 434.5 c 128
 146.833333333 447.5 157 456.333333333 165 461 c 128
 173 465.666666667 187.666666667 471.833333333 209 479.5 c 128
 230.333333333 487.166666667 251.666666667 491 273 491 c 0
 295.666666667 491 316.833333333 487.333333333 336.5 480 c 128
 356.166666667 472.666666667 369.833333333 465.666666667 377.5 459 c 128
 385.166666667 452.333333333 390.666666667 444 394 434 c 1
 395.333333333 436 397 438 399 440 c 0
 403.666666667 478.666666667 409.666666667 502.333333333 417 511 c 128
 424.333333333 519.666666667 433.833333333 527.833333333 445.5 535.5 c 128
 457.166666667 543.166666667 466.666666667 545.333333333 474 542 c 1
 474 600 l 1
 400 600 l 1
 400 650 l 1
 474 650 l 1
 474 723 l 1
 526 723 l 1
 526 650 l 1
EndSplineSet
EndChar

StartChar: Q
Encoding: 81 81 4
Width: 1000
Flags: HW
LayerCount: 2
Fore
SplineSet
565 666 m 0
 569 656 571 646.333333333 571 637 c 0
 571 626.333333333 568 617 562 609 c 1
 550 600 550 600 538 591 c 0
 535.333333333 586.333333333 534 580.333333333 534 573 c 0
 534 561.666666667 539.5 538.166666667 550.5 502.5 c 128
 561.5 466.833333333 567.666666667 445.666666667 569 439 c 128
 570.333333333 432.333333333 571.833333333 405 573.5 357 c 128
 575.166666667 309 578.666666667 285 584 285 c 0
 586 285 590.5 291.833333333 597.5 305.5 c 128
 604.5 319.166666667 612.333333333 343.333333333 621 378 c 128
 629.666666667 412.666666667 635.666666667 434.833333333 639 444.5 c 128
 642.333333333 454.166666667 650.5 468.5 663.5 487.5 c 128
 676.5 506.5 683 521.666666667 683 533 c 0
 683 539.666666667 682 545.5 680 550.5 c 128
 678 555.5 673.666666667 561 667 567 c 128
 660.333333333 573 655.333333333 580.166666667 652 588.5 c 128
 648.666666667 596.833333333 647 606 647 616 c 0
 647 626.666666667 651.166666667 639.166666667 659.5 653.5 c 128
 667.833333333 667.833333333 684.333333333 675 709 675 c 0
 733 675 749.5 667.5 758.5 652.5 c 128
 767.5 637.5 772 624.666666667 772 614 c 0
 772 607.333333333 771.5 602.166666667 770.5 598.5 c 128
 769.5 594.833333333 767.5 589.333333333 764.5 582 c 128
 761.5 574.666666667 755.833333333 568.5 747.5 563.5 c 128
 739.166666667 558.5 733 550.833333333 729 540.5 c 128
 725 530.166666667 722.166666667 520.833333333 720.5 512.5 c 128
 718.833333333 504.166666667 718 493.666666667 718 481 c 0
 718 469 718 469 718 456 c 128
 718 447.333333333 718.333333333 438.333333333 719 429 c 0
 719 408.333333333 718.666666667 388.333333333 718 369 c 128
 717.333333333 349.666666667 716.666666667 331 716 313 c 0
 716 281 719.333333333 265 726 265 c 0
 730 265 735.5 270 742.5 280 c 128
 749.5 290 757.833333333 305.5 767.5 326.5 c 128
 777.166666667 347.5 784.333333333 361.833333333 789 369.5 c 128
 793.666666667 377.166666667 805.833333333 391.333333333 825.5 412 c 128
 845.166666667 432.666666667 854.333333333 445.333333333 853 450 c 0
 851.666666667 455.333333333 848.166666667 461.333333333 842.5 468 c 128
 836.833333333 474.666666667 833.166666667 480.5 831.5 485.5 c 128
 829.833333333 490.5 828.5 495.5 827.5 500.5 c 128
 826.5 505.5 826 510.333333333 826 515 c 0
 826 524.333333333 830.333333333 536.833333333 839 552.5 c 128
 847.666666667 568.166666667 863.333333333 576 886 576 c 256
 908.666666667 576 924.333333333 568.5 933 553.5 c 128
 941.666666667 538.5 946 526 946 516 c 0
 946 505.333333333 943.833333333 495.666666667 939.5 487 c 128
 935.166666667 478.333333333 927.333333333 470.166666667 916 462.5 c 128
 904.666666667 454.833333333 896.166666667 447.666666667 890.5 441 c 128
 884.833333333 434.333333333 880.333333333 423 877 407 c 0
 873 379 868.833333333 350.833333333 864.5 322.5 c 128
 860.166666667 294.166666667 856.833333333 270.666666667 854.5 252 c 128
 852.166666667 233.333333333 845.666666667 215.333333333 835 198 c 0
 815.666666667 171.333333333 800.833333333 150.333333333 790.5 135 c 128
 780.166666667 119.666666667 773.666666667 104.666666667 771 90 c 128
 768.333333333 75.3333333333 766.333333333 64 765 56 c 128
 763.666666667 48 763 40.6666666667 763 34 c 0
 763 23.3333333333 764.333333333 13.5 767 4.5 c 128
 769.666666667 -4.5 774.666666667 -13.1666666667 782 -21.5 c 128
 789.333333333 -29.8333333333 793 -37.6666666667 793 -45 c 0
 793 -56.3333333333 790.666666667 -65.1666666667 786 -71.5 c 128
 781.333333333 -77.8333333333 774.666666667 -85.8333333333 766 -95.5 c 128
 757.333333333 -105.166666667 744 -111.166666667 726 -113.5 c 128
 708 -115.833333333 690.333333333 -118 673 -120 c 0
 607 -134 549 -141 499 -141 c 0
 449.666666667 -141 391.333333333 -134 324 -120 c 0
 300 -117.333333333 280.666666667 -115 266 -113 c 128
 251.333333333 -111 239.333333333 -104.833333333 230 -94.5 c 128
 220.666666667 -84.1666666667 214 -75.6666666667 210 -69 c 128
 206 -62.3333333333 204 -54.3333333333 204 -45 c 0
 204 -39 208 -30.6666666667 216 -20 c 128
 224 -9.33333333333 229 -0.333333333333 231 7 c 128
 233 14.3333333333 234 23.3333333333 234 34 c 0
 234 40 233.333333333 47.6666666667 232 57 c 128
 230.666666667 66.3333333333 228.666666667 77.8333333333 226 91.5 c 128
 223.333333333 105.166666667 215.333333333 121.5 202 140.5 c 128
 188.666666667 159.5 176 178.166666667 164 196.5 c 128
 152 214.833333333 144.333333333 235.166666667 141 257.5 c 128
 137.666666667 279.833333333 134.166666667 304.333333333 130.5 331 c 128
 126.833333333 357.666666667 123.833333333 380.333333333 121.5 399 c 128
 119.166666667 417.666666667 114 431.833333333 106 441.5 c 128
 98 451.166666667 89 459 79 465 c 128
 69 471 61.8333333333 478.333333333 57.5 487 c 128
 53.1666666667 495.666666667 51 505.333333333 51 516 c 0
 51 526 55.3333333333 538.5 64 553.5 c 128
 72.6666666667 568.5 88.3333333333 576 111 576 c 256
 133.666666667 576 148.5 570 155.5 558 c 128
 162.5 546 166.833333333 537.5 168.5 532.5 c 128
 170.166666667 527.5 171 521.666666667 171 515 c 0
 171 505 169 494.333333333 165 483 c 1
 157.666666667 471.666666667 150.666666667 460.666666667 144 450 c 0
 143.333333333 446 153.5 431.833333333 174.5 407.5 c 128
 195.5 383.166666667 210.333333333 362.666666667 219 346 c 128
 227.666666667 329.333333333 239.666666667 307 255 279 c 0
 261.666666667 269.666666667 267 265 271 265 c 0
 277.666666667 265 281 281 281 313 c 0
 281 339 280.666666667 361 280 379 c 128
 279.333333333 397 278.666666667 413.666666667 278 429 c 0
 278 443 278 443 278 456 c 128
 278 464.666666667 278.333333333 473 279 481 c 0
 279 493 278.333333333 503.166666667 277 511.5 c 128
 275.666666667 519.833333333 272.666666667 529.5 268 540.5 c 128
 263.333333333 551.5 257 559.5 249 564.5 c 128
 241 569.5 236 574.333333333 234 579 c 128
 232 583.666666667 230 589.666666667 228 597 c 128
 226 604.333333333 225 610.333333333 225 615 c 0
 225 625 229.5 637.5 238.5 652.5 c 128
 247.5 667.5 264 675 288 675 c 0
 312.666666667 675 329.166666667 667.833333333 337.5 653.5 c 128
 345.833333333 639.166666667 350 626.333333333 350 615 c 0
 350 605.666666667 348.333333333 596.833333333 345 588.5 c 128
 341.666666667 580.166666667 336.5 572.5 329.5 565.5 c 128
 322.5 558.5 318.166666667 553 316.5 549 c 128
 314.833333333 545 314 539.333333333 314 532 c 0
 314 522 320.333333333 507.833333333 333 489.5 c 128
 345.666666667 471.166666667 356.833333333 446.666666667 366.5 416 c 128
 376.166666667 385.333333333 389 344.666666667 405 294 c 0
 408.333333333 288 411 285 413 285 c 0
 417 285 419.5 309 420.5 357 c 128
 421.5 405 423.333333333 436 426 450 c 128
 428.666666667 464 435.333333333 485.666666667 446 515 c 128
 456.666666667 544.333333333 462 564.333333333 462 575 c 0
 462 580.333333333 461.333333333 584.833333333 460 588.5 c 128
 458.666666667 592.166666667 454.666666667 595.833333333 448 599.5 c 128
 441.333333333 603.166666667 436 607.666666667 432 613 c 128
 428 618.333333333 426 626.666666667 426 638 c 0
 426 646.666666667 428.333333333 656.666666667 433 668 c 128
 437.666666667 679.333333333 446 688.333333333 458 695 c 128
 470 701.666666667 483.333333333 705 498 705 c 0
 514 705 527.833333333 701.833333333 539.5 695.5 c 128
 551.166666667 689.166666667 559.666666667 679.333333333 565 666 c 0
634 250 m 0
 645.333333333 250 654.166666667 248.833333333 660.5 246.5 c 128
 666.833333333 244.166666667 674 241.333333333 682 238 c 0
 690.666666667 234.666666667 695 238.666666667 695 250 c 0
 695 256.666666667 693.5 268.5 690.5 285.5 c 128
 687.5 302.5 686 313.333333333 686 318 c 0
 686 332.666666667 686.833333333 355 688.5 385 c 128
 690.166666667 415 691 431.333333333 691 434 c 0
 691 452 689.333333333 461 686 461 c 0
 684 461 680 456.666666667 674 448 c 128
 668 439.333333333 662.833333333 422.666666667 658.5 398 c 128
 654.166666667 373.333333333 651 358.166666667 649 352.5 c 128
 647 346.833333333 640.833333333 333 630.5 311 c 128
 620.166666667 289 615 274 615 266 c 0
 615 255.333333333 621.333333333 250 634 250 c 0
84 529 m 0
 80.6666666667 523.666666667 79 517.333333333 79 510 c 0
 79 507.333333333 79.3333333333 505 80 503 c 0
 82 501 84.5 498 87.5 494 c 128
 90.5 490 98 488 110 488 c 0
 116 488 121.333333333 488.666666667 126 490 c 128
 130.666666667 491.333333333 134.333333333 494 137 498 c 128
 139.666666667 502 141 506.666666667 141 512 c 0
 141 518 139.666666667 523 137 527 c 128
 134.333333333 531 130.5 533.833333333 125.5 535.5 c 128
 118 538 118 538 112 540 c 0
 103.333333333 539.333333333 97.3333333333 538.5 94 537.5 c 128
 90.6666666667 536.5 87.3333333333 533.666666667 84 529 c 0
261 629 m 0
 257.666666667 623.666666667 256 617.333333333 256 610 c 0
 256 607.333333333 256.333333333 605 257 603 c 0
 259 601 261.5 598 264.5 594 c 128
 267.5 590 275 588 287 588 c 0
 293 588 298.333333333 588.666666667 303 590 c 128
 307.666666667 591.333333333 311.333333333 594 314 598 c 128
 316.666666667 602 318 606.666666667 318 612 c 0
 318 618 316.666666667 623 314 627 c 128
 311.333333333 631 307.5 633.833333333 302.5 635.5 c 128
 295 638 295 638 289 640 c 0
 280.333333333 639.333333333 274.333333333 638.5 271 637.5 c 128
 267.666666667 636.5 264.333333333 633.666666667 261 629 c 0
471 655 m 0
 467.666666667 649.666666667 466 643 466 635 c 0
 466 631 468.333333333 625.833333333 473 619.5 c 128
 477.666666667 613.166666667 486.666666667 610 500 610 c 0
 508 610 514 610.833333333 518 612.5 c 128
 522 614.166666667 525.666666667 617.166666667 529 621.5 c 128
 532.333333333 625.833333333 534 630.666666667 534 636 c 0
 534 643.333333333 532.5 649.166666667 529.5 653.5 c 128
 526.5 657.833333333 521.333333333 661.166666667 514 663.5 c 128
 506.666666667 665.833333333 502.666666667 667.333333333 502 668 c 0
 491.333333333 666 484.5 664.5 481.5 663.5 c 128
 478.5 662.5 475 659.666666667 471 655 c 0
684 627 m 0
 680.666666667 621.666666667 679 615.333333333 679 608 c 0
 679 605.333333333 679.333333333 603 680 601 c 0
 682 599 684.5 596 687.5 592 c 128
 690.5 588 698 586 710 586 c 0
 716 586 721.333333333 586.666666667 726 588 c 128
 730.666666667 589.333333333 734.333333333 592 737 596 c 128
 739.666666667 600 741 604.666666667 741 610 c 0
 741 616 739.666666667 621 737 625 c 128
 734.333333333 629 730.5 631.833333333 725.5 633.5 c 128
 718 636 718 636 712 638 c 0
 703.333333333 637.333333333 697.333333333 636.5 694 635.5 c 128
 690.666666667 634.5 687.333333333 631.666666667 684 627 c 0
862 529 m 0
 858.666666667 523.666666667 857 517.333333333 857 510 c 0
 857 507.333333333 857.333333333 505 858 503 c 0
 860 501 862.5 498 865.5 494 c 128
 868.5 490 876 488 888 488 c 0
 894 488 899.333333333 488.666666667 904 490 c 128
 908.666666667 491.333333333 912.333333333 494 915 498 c 128
 917.666666667 502 919 506.666666667 919 512 c 0
 919 518 917.666666667 523 915 527 c 128
 912.333333333 531 908.5 533.833333333 903.5 535.5 c 128
 896 538 896 538 890 540 c 0
 881.333333333 539.333333333 875.333333333 538.5 872 537.5 c 128
 868.666666667 536.5 865.333333333 533.666666667 862 529 c 0
363 221 m 0
 327 211.666666667 296.5 202.166666667 271.5 192.5 c 128
 246.5 182.833333333 234 171.666666667 234 159 c 0
 234 154.333333333 235.333333333 150.666666667 238 148 c 128
 240.666666667 145.333333333 244 139.333333333 248 130 c 128
 252 120.666666667 256 116 260 116 c 0
 267.333333333 116 276.166666667 119 286.5 125 c 128
 296.833333333 131 310.166666667 135.833333333 326.5 139.5 c 128
 342.833333333 143.166666667 366.333333333 146.166666667 397 148.5 c 128
 427.666666667 150.833333333 461.666666667 152 499 152 c 0
 543 152 576.666666667 151.166666667 600 149.5 c 128
 623.333333333 147.833333333 644.666666667 144.833333333 664 140.5 c 128
 683.333333333 136.166666667 698.166666667 131 708.5 125 c 128
 718.833333333 119 727.666666667 116 735 116 c 0
 737.666666667 116 740.666666667 119 744 125 c 128
 747.333333333 131 751 138 755 146 c 0
 759 150 761 154.333333333 761 159 c 0
 761 174.333333333 746.166666667 187 716.5 197 c 128
 686.833333333 207 660 214.833333333 636 220.5 c 128
 612 226.166666667 588.833333333 230 566.5 232 c 128
 544.166666667 234 522 236 500 238 c 1
 466.666666667 235.333333333 440.833333333 233.166666667 422.5 231.5 c 128
 404.166666667 229.833333333 384.333333333 226.333333333 363 221 c 0
638 62 m 2
 722 49 l 2
 724 50 724 50 726 51 c 0
 724 58.3333333333 724.333333333 63.8333333333 727 67.5 c 128
 729.666666667 71.1666666667 731 74.6666666667 731 78 c 0
 731 86.6666666667 724.166666667 92.5 710.5 95.5 c 128
 696.833333333 98.5 676.5 101.833333333 649.5 105.5 c 128
 622.5 109.166666667 599.5 111.333333333 580.5 112 c 128
 561.5 112.666666667 551 113 549 113 c 2
 498 113 l 2
 467.333333333 113 444.166666667 112.666666667 428.5 112 c 128
 412.833333333 111.333333333 389.666666667 108.666666667 359 104 c 128
 328.333333333 99.3333333333 305.833333333 95.3333333333 291.5 92 c 128
 277.166666667 88.6666666667 270 83 270 75 c 0
 270 71.6666666667 271.5 68.1666666667 274.5 64.5 c 128
 277.5 60.8333333333 278 56.6666666667 276 52 c 0
 277 49 277 49 278 46 c 0
 286.666666667 46 298.5 47.3333333333 313.5 50 c 128
 328.5 52.6666666667 345 56 363 60 c 0
 380.333333333 62.6666666667 397.833333333 64.6666666667 415.5 66 c 128
 433.166666667 67.3333333333 448 68 460 68 c 2
 500 68 l 2
 518 68 518 68 533.5 68 c 128
 543.833333333 68 553.333333333 68.3333333333 562 69 c 0
 574.666666667 69 585.5 68.6666666667 594.5 68 c 128
 603.5 67.3333333333 618 65.3333333333 638 62 c 2
637 5 m 2
 738 -10 l 1
 738 -8 738 -8 738 -6 c 0
 729.333333333 1.33333333333 726 6 728 8 c 0
 731.333333333 11.3333333333 733 14 733 16 c 0
 733 22.6666666667 725.166666667 27.5 709.5 30.5 c 128
 693.833333333 33.5 671.333333333 37 642 41 c 128
 612.666666667 45 588 47 568 47 c 0
 554.666666667 47 542.333333333 46.8333333333 531 46.5 c 128
 519.666666667 46.1666666667 509.333333333 46 500 46 c 256
 486 46 486 46 473 46 c 128
 464.333333333 46 456 46.3333333333 448 47 c 0
 422.666666667 47 401.666666667 45 385 41 c 128
 368.333333333 37 344.333333333 33.3333333333 313 30 c 128
 281.666666667 26.6666666667 266 21.3333333333 266 14 c 0
 266 10.6666666667 267.666666667 7.33333333333 271 4 c 0
 273 2 271.833333333 -1 267.5 -5 c 128
 263.166666667 -9 261 -11.6666666667 261 -13 c 1
 269.666666667 -12.3333333333 289.166666667 -9 319.5 -3 c 128
 349.833333333 3 371.166666667 6.83333333333 383.5 8.5 c 128
 395.833333333 10.1666666667 407.833333333 11.3333333333 419.5 12 c 128
 431.166666667 12.6666666667 445 13 461 13 c 2
 500 13 l 2
 527 13 527 13 553.5 13 c 128
 571.166666667 13 599 10.3333333333 637 5 c 2
230 262 m 0
 216 290 202.666666667 315.833333333 190 339.5 c 128
 177.333333333 363.166666667 168 375 162 375 c 0
 158.666666667 375 156.666666667 373.333333333 156 370 c 128
 155.333333333 366.666666667 155 362.666666667 155 358 c 0
 155 347.333333333 159.5 325.166666667 168.5 291.5 c 128
 177.5 257.833333333 182.5 238 183.5 232 c 128
 184.5 226 187.666666667 218.166666667 193 208.5 c 128
 198.333333333 198.833333333 204.666666667 194 212 194 c 0
 213.333333333 194 216.5 195.166666667 221.5 197.5 c 128
 226.5 199.833333333 231.333333333 203 236 207 c 128
 240.666666667 211 245.333333333 214.333333333 250 217 c 128
 254.666666667 219.666666667 257 222.666666667 257 226 c 0
 257 230 252.833333333 236.5 244.5 245.5 c 128
 236.166666667 254.5 231.333333333 260 230 262 c 0
747 -58 m 1
 743.666666667 -54 740.666666667 -50.3333333333 738 -47 c 0
 710 -37.6666666667 682.333333333 -33 655 -33 c 0
 630.333333333 -33 600 -32 564 -30 c 128
 528 -28 507 -27 501 -27 c 0
 472.333333333 -27 447 -27.5 425 -28.5 c 128
 403 -29.5 376.666666667 -31 346 -33 c 0
 318.666666667 -33 292 -37.3333333333 266 -46 c 0
 260 -52 260 -52 254 -58 c 1
 284.666666667 -69.3333333333 319.666666667 -76.8333333333 359 -80.5 c 128
 398.333333333 -84.1666666667 445.666666667 -86 501 -86 c 0
 555.666666667 -86 602.333333333 -84.1666666667 641 -80.5 c 128
 679.666666667 -76.8333333333 715 -69.3333333333 747 -58 c 1
352 350 m 0
 349.333333333 357.333333333 345.833333333 373.333333333 341.5 398 c 128
 337.166666667 422.666666667 330 442 320 456 c 0
 316.666666667 460 314 461.166666667 312 459.5 c 128
 310 457.833333333 309 449 309 433 c 0
 309 417.666666667 309.833333333 395.333333333 311.5 366 c 128
 313.166666667 336.666666667 314 320.666666667 314 318 c 0
 314 310 312.5 297.666666667 309.5 281 c 128
 306.5 264.333333333 305 254 305 250 c 0
 305 238.666666667 309.333333333 234.666666667 318 238 c 0
 325.333333333 241.333333333 332 244.166666667 338 246.5 c 128
 344 248.833333333 353.333333333 250 366 250 c 256
 378.666666667 250 385 255.333333333 385 266 c 0
 385 274 379.833333333 289 369.5 311 c 128
 359.166666667 333 353.333333333 346 352 350 c 0
746 216 m 0
 752 212.666666667 757.5 209 762.5 205 c 128
 767.5 201 772.666666667 197.333333333 778 194 c 0
 787.333333333 189.333333333 795.5 192.166666667 802.5 202.5 c 128
 809.5 212.833333333 813.666666667 223 815 233 c 128
 816.333333333 243 821.333333333 263.333333333 830 294 c 128
 838.666666667 324.666666667 843 345.333333333 843 356 c 0
 843 360.666666667 842.666666667 364.666666667 842 368 c 128
 841.333333333 371.333333333 839.333333333 373 836 373 c 0
 828.666666667 373 816.333333333 355.666666667 799 321 c 128
 781.666666667 286.333333333 771.333333333 266 768 260 c 0
 760 252 753.5 245.166666667 748.5 239.5 c 128
 743.5 233.833333333 741 228.666666667 741 224 c 0
 741 220.666666667 742.666666667 218 746 216 c 0
545 370 m 0
 545.666666667 381.333333333 546 389.333333333 546 394 c 0
 546 408.666666667 544.666666667 422.666666667 542 436 c 128
 539.333333333 449.333333333 535.333333333 464 530 480 c 128
 524.666666667 496 514 504 498 504 c 0
 490 504 483.666666667 502 479 498 c 128
 474.333333333 494 469.333333333 485.833333333 464 473.5 c 128
 458.666666667 461.166666667 455.166666667 448.333333333 453.5 435 c 128
 451.833333333 421.666666667 451 402 451 376 c 0
 451 365.333333333 448.5 348.166666667 443.5 324.5 c 128
 438.5 300.833333333 436 287 436 283 c 0
 436 267 443 260.333333333 457 263 c 0
 459 263.666666667 463.666666667 264.666666667 471 266 c 128
 478.333333333 267.333333333 484.333333333 268 489 268 c 0
 491 268 497.333333333 267.166666667 508 265.5 c 128
 518.666666667 263.833333333 528.666666667 263 538 263 c 0
 550 263 556 269.666666667 556 283 c 0
 556 291 554.166666667 306.166666667 550.5 328.5 c 128
 546.833333333 350.833333333 545 364.666666667 545 370 c 0
EndSplineSet
EndChar

StartChar: R
Encoding: 82 82 5
Width: 1000
Flags: HW
LayerCount: 2
Fore
SplineSet
592 627 m 1
 649 627 l 1
 649 675 l 1
 769 675 l 1
 769 507 l 1
 673 414 l 1
 673 195 l 1
 748 120 l 1
 748 27 l 1
 823 27 l 1
 823 -99 l 1
 174 -99 l 1
 174 27 l 1
 249 27 l 1
 249 120 l 1
 324 195 l 1
 324 414 l 1
 228 507 l 1
 228 675 l 1
 348 675 l 1
 348 627 l 1
 402 627 l 1
 402 675 l 1
 591 675 l 1
 592 627 l 1
774 -18 m 1
 222 -18 l 1
 222 -60 l 1
 774 -60 l 1
 774 -18 l 1
702 84 m 1
 294 84 l 1
 294 27 l 1
 702 27 l 1
 702 84 l 1
627 396 m 1
 372 396 l 1
 372 219 l 1
 627 219 l 1
 627 396 l 1
723 540 m 1
 723 630 l 1
 690 630 l 1
 690 585 l 1
 552 585 l 1
 552 630 l 1
 441 630 l 1
 441 585 l 1
 308 585 l 1
 308 630 l 1
 273 630 l 1
 273 540 l 1
 723 540 l 1
699 120 m 1
 636 180 l 1
 360 180 l 1
 297 120 l 1
 699 120 l 1
639 435 m 1
 708 504 l 1
 288 504 l 1
 354 435 l 1
 639 435 l 1
EndSplineSet
EndChar

StartChar: B
Encoding: 66 66 6
Width: 1000
Flags: HW
LayerCount: 2
Fore
SplineSet
447 21 m 0
 439 26.3333333333 430.5 21.8333333333 421.5 7.5 c 128
 412.5 -6.83333333333 405.166666667 -15.6666666667 399.5 -19 c 128
 393.833333333 -22.3333333333 387.333333333 -26 380 -30 c 128
 372.666666667 -34 365 -36 357 -36 c 2
 222 -36 l 1
 197 -36 l 2
 179.666666667 -36 167.5 -36.6666666667 160.5 -38 c 128
 153.5 -39.3333333333 150 -42.6666666667 150 -48 c 0
 150 -50.6666666667 152 -54.6666666667 156 -60 c 0
 170.666666667 -76 186.666666667 -84 204 -84 c 2
 378 -84 l 2
 386 -84 399 -76.1666666667 417 -60.5 c 128
 435 -44.8333333333 447.166666667 -35.6666666667 453.5 -33 c 128
 459.833333333 -30.3333333333 464.833333333 -25.1666666667 468.5 -17.5 c 128
 472.166666667 -9.83333333333 474 1 474 15 c 0
 474 20.3333333333 472.333333333 23 469 23 c 0
 464.333333333 21.6666666667 460.333333333 20.5 457 19.5 c 128
 453.666666667 18.5 450.333333333 19 447 21 c 0
524 15 m 0
 524 0.333333333333 525.666666667 -10.6666666667 529 -18 c 128
 532.333333333 -25.3333333333 538.5 -30.8333333333 547.5 -34.5 c 128
 556.5 -38.1666666667 568.333333333 -47.3333333333 583 -62 c 128
 597.666666667 -76.6666666667 610 -84 620 -84 c 2
 794 -84 l 2
 803.333333333 -84 811.666666667 -82.1666666667 819 -78.5 c 128
 826.333333333 -74.8333333333 833 -69.5 839 -62.5 c 128
 845 -55.5 848 -50.6666666667 848 -48 c 0
 848 -44.6666666667 844.166666667 -41.8333333333 836.5 -39.5 c 128
 828.833333333 -37.1666666667 816 -36 798 -36 c 2
 776 -36 l 1
 641 -36 l 2
 632.333333333 -36 624 -33.6666666667 616 -29 c 128
 608 -24.3333333333 601.666666667 -20.6666666667 597 -18 c 128
 592.333333333 -15.3333333333 585.5 -6.83333333333 576.5 7.5 c 128
 567.5 21.8333333333 560.333333333 27.1666666667 555 23.5 c 128
 549.666666667 19.8333333333 544.166666667 18.8333333333 538.5 20.5 c 128
 532.833333333 22.1666666667 529.666666667 23 529 23 c 0
 525.666666667 23 524 20.3333333333 524 15 c 0
656 87 m 1
 654 90.3333333333 652.333333333 93.6666666667 651 97 c 0
 635.666666667 105 618.166666667 109.833333333 598.5 111.5 c 128
 578.833333333 113.166666667 561.666666667 114.5 547 115.5 c 128
 532.333333333 116.5 517 117 501 117 c 0
 484.333333333 117 468.833333333 116.5 454.5 115.5 c 128
 440.166666667 114.5 423 113.166666667 403 111.5 c 128
 383 109.833333333 365.666666667 105.333333333 351 98 c 1
 349 94 347 90.3333333333 345 87 c 1
 364.333333333 75.6666666667 386.833333333 67.8333333333 412.5 63.5 c 128
 438.166666667 59.1666666667 467.666666667 57 501 57 c 0
 537.666666667 57 567.5 58.8333333333 590.5 62.5 c 128
 613.5 66.1666666667 635.333333333 74.3333333333 656 87 c 1
443 194 m 0
 437 194 430.166666667 192.5 422.5 189.5 c 128
 414.833333333 186.5 406 183.333333333 396 180 c 1
 393.333333333 172.666666667 390 165 386 157 c 128
 382 149 376.333333333 142 369 136 c 1
 371 136 375.166666667 136.666666667 381.5 138 c 128
 387.833333333 139.333333333 398.833333333 141.5 414.5 144.5 c 128
 430.166666667 147.5 447.333333333 149 466 149 c 2
 501 149 l 2
 512 149 512 149 518 149 c 0
 527.333333333 149 538.5 148.666666667 551.5 148 c 128
 564.5 147.333333333 576.666666667 146 588 144 c 0
 603.333333333 140 613.333333333 137.666666667 618 137 c 128
 622.666666667 136.333333333 626.333333333 136 629 136 c 1
 623 140.666666667 617.666666667 147.333333333 613 156 c 128
 608.333333333 164.666666667 604 172.666666667 600 180 c 1
 595.333333333 181.333333333 589 184 581 188 c 128
 573 192 565.666666667 194 559 194 c 0
 544 194 544 194 529.5 194 c 128
 519.833333333 194 510.333333333 194.333333333 501 195 c 0
 491.666666667 195 482.166666667 194.833333333 472.5 194.5 c 128
 462.833333333 194.166666667 453 194 443 194 c 0
593 213 m 0
 605.666666667 207.666666667 621.5 218.333333333 640.5 245 c 128
 659.5 271.666666667 670.166666667 291.166666667 672.5 303.5 c 128
 674.833333333 315.833333333 676 324.666666667 676 330 c 128
 676 338 676 338 676 342 c 0
 676 361.333333333 672.666666667 379.333333333 666 396 c 128
 659.333333333 412.666666667 650.333333333 429.833333333 639 447.5 c 128
 627.666666667 465.166666667 616.666666667 479 606 489 c 128
 595.333333333 499 584.333333333 508 573 516 c 128
 561.666666667 524 549 529.666666667 535 533 c 128
 521 536.333333333 509 539.666666667 499 543 c 1
 482.333333333 539 468.333333333 535.666666667 457 533 c 128
 445.666666667 530.333333333 434.166666667 524.833333333 422.5 516.5 c 128
 410.833333333 508.166666667 399.666666667 499 389 489 c 128
 378.333333333 479 367.333333333 465.166666667 356 447.5 c 128
 344.666666667 429.833333333 335.666666667 412.5 329 395.5 c 128
 322.333333333 378.5 319 360.333333333 319 341 c 0
 319 329.666666667 320.166666667 317.5 322.5 304.5 c 128
 324.833333333 291.5 335.5 272 354.5 246 c 128
 373.5 220 389.333333333 209 402 213 c 0
 424.666666667 219.666666667 440.666666667 223.833333333 450 225.5 c 128
 459.333333333 227.166666667 472.333333333 228 489 228 c 2
 502 228 l 2
 523.333333333 228 539.833333333 227.166666667 551.5 225.5 c 128
 563.166666667 223.833333333 577 219.666666667 593 213 c 0
466 640 m 0
 461.333333333 634.666666667 459 626.666666667 459 616 c 0
 459 610 461.666666667 603.5 467 596.5 c 128
 472.333333333 589.5 483.333333333 586 500 586 c 256
 516.666666667 586 527.666666667 589.166666667 533 595.5 c 128
 538.333333333 601.833333333 541 609 541 617 c 0
 541 627 539.166666667 634.333333333 535.5 639 c 128
 531.833333333 643.666666667 526.833333333 646.833333333 520.5 648.5 c 128
 514.166666667 650.166666667 508 652 502 654 c 1
 492.666666667 652.666666667 485.166666667 651.166666667 479.5 649.5 c 128
 473.833333333 647.833333333 469.333333333 644.666666667 466 640 c 0
518 298 m 1
 482 298 l 1
 482 358 l 1
 422 358 l 1
 422 394 l 1
 482 394 l 1
 482 454 l 1
 518 454 l 1
 518 394 l 1
 574 394 l 1
 574 358 l 1
 518 358 l 1
 518 298 l 1
502 -41 m 1
 442 -81 l 2
 437.333333333 -83.6666666667 430.666666667 -89.1666666667 422 -97.5 c 128
 413.333333333 -105.833333333 402.666666667 -111.666666667 390 -115 c 128
 377.333333333 -118.333333333 364.166666667 -120.833333333 350.5 -122.5 c 128
 336.833333333 -124.166666667 320.666666667 -125 302 -125 c 0
 293.333333333 -125 279.666666667 -124.666666667 261 -124 c 128
 242.333333333 -123.333333333 227.333333333 -123 216 -123 c 2
 191 -123 l 2
 184.333333333 -123 178.5 -122.666666667 173.5 -122 c 128
 168.5 -121.333333333 161.333333333 -119.333333333 152 -116 c 128
 142.666666667 -112.666666667 133 -104.5 123 -91.5 c 128
 113 -78.5 105 -69.1666666667 99 -63.5 c 128
 93 -57.8333333333 90 -51.6666666667 90 -45 c 0
 90 -37.6666666667 95.3333333333 -30.3333333333 106 -23 c 0
 120 -15 130.166666667 -9.16666666667 136.5 -5.5 c 128
 142.833333333 -1.83333333333 149.5 0.833333333333 156.5 2.5 c 128
 163.5 4.16666666667 171.333333333 5 180 5 c 0
 184.666666667 5 192.333333333 4.66666666667 203 4 c 128
 213.666666667 3.33333333333 222 3 228 3 c 0
 238.666666667 3 252.666666667 2.66666666667 270 2 c 128
 287.333333333 1.33333333333 299.666666667 1 307 1 c 0
 315 1 324 1.33333333333 334 2 c 128
 344 2.66666666667 354.666666667 4 366 6 c 128
 377.333333333 8 386.166666667 10.8333333333 392.5 14.5 c 128
 398.833333333 18.1666666667 402 24 402 32 c 0
 402 38.6666666667 398 42 390 42 c 0
 382 41.3333333333 376 41 372 41 c 0
 366.666666667 41 361.166666667 42.8333333333 355.5 46.5 c 128
 349.833333333 50.1666666667 339.166666667 54.6666666667 323.5 60 c 128
 307.833333333 65.3333333333 300 73.3333333333 300 84 c 0
 300 98 308.166666667 112.333333333 324.5 127 c 128
 340.833333333 141.666666667 350.166666667 151.833333333 352.5 157.5 c 128
 354.833333333 163.166666667 356 168.666666667 356 174 c 0
 356 182 347.666666667 193.833333333 331 209.5 c 128
 314.333333333 225.166666667 303.333333333 239.166666667 298 251.5 c 128
 292.666666667 263.833333333 288.166666667 278 284.5 294 c 128
 280.833333333 310 279 328 279 348 c 0
 279 394 290.166666667 431.5 312.5 460.5 c 128
 334.833333333 489.5 351.5 508.833333333 362.5 518.5 c 128
 373.5 528.166666667 385.166666667 536.5 397.5 543.5 c 128
 409.833333333 550.5 421.166666667 556.666666667 431.5 562 c 128
 441.833333333 567.333333333 452 570 462 570 c 0
 463 573 463 573 464 576 c 0
 445.333333333 587.333333333 435 595.666666667 433 601 c 128
 431 606.333333333 430 612.333333333 430 619 c 0
 430 633 434.333333333 645.166666667 443 655.5 c 128
 451.666666667 665.833333333 459.833333333 672.166666667 467.5 674.5 c 128
 475.166666667 676.833333333 486.333333333 679 501 681 c 1
 512.333333333 678.333333333 522.333333333 676 531 674 c 128
 539.666666667 672 548.333333333 665.833333333 557 655.5 c 128
 565.666666667 645.166666667 570 632.666666667 570 618 c 0
 570 612 568.833333333 606 566.5 600 c 128
 564.166666667 594 555.666666667 587 541 579 c 0
 538.333333333 575.666666667 535.666666667 572.666666667 533 570 c 1
 549 566.666666667 559.833333333 563.833333333 565.5 561.5 c 128
 571.166666667 559.166666667 584.666666667 552 606 540 c 128
 627.333333333 528 647 510.166666667 665 486.5 c 128
 683 462.833333333 696.5 440.166666667 705.5 418.5 c 128
 714.5 396.833333333 719 373.333333333 719 348 c 0
 719 312.666666667 714.166666667 283.833333333 704.5 261.5 c 128
 694.833333333 239.166666667 682 221.166666667 666 207.5 c 128
 650 193.833333333 642 182.333333333 642 173 c 0
 642 168.333333333 643.333333333 163 646 157 c 128
 648.666666667 151 658 140.666666667 674 126 c 128
 690 111.333333333 698 97.3333333333 698 84 c 0
 698 74 690.5 66.3333333333 675.5 61 c 128
 660.5 55.6666666667 650.166666667 51 644.5 47 c 128
 638.833333333 43 631.666666667 41 623 41 c 0
 616.333333333 41.6666666667 611.666666667 42 609 42 c 0
 600.333333333 42 596 39.3333333333 596 34 c 0
 596 25.3333333333 599.166666667 19 605.5 15 c 128
 611.833333333 11 619.5 8.16666666667 628.5 6.5 c 128
 637.5 4.83333333333 648 3.5 660 2.5 c 128
 672 1.5 683.333333333 1 694 1 c 0
 702.666666667 1 717.166666667 1.33333333333 737.5 2 c 128
 757.833333333 2.66666666667 768.666666667 3 770 3 c 0
 776 3 784.333333333 3.33333333333 795 4 c 128
 805.666666667 4.66666666667 813.333333333 5 818 5 c 0
 826 5 833.666666667 4.33333333333 841 3 c 128
 848.333333333 1.66666666667 856.166666667 -1.5 864.5 -6.5 c 128
 872.833333333 -11.5 882 -16.6666666667 892 -22 c 0
 902.666666667 -29.3333333333 908 -37 908 -45 c 0
 908 -51.6666666667 905 -57.6666666667 899 -63 c 128
 893 -68.3333333333 884.833333333 -77.6666666667 874.5 -91 c 128
 864.166666667 -104.333333333 855 -112.833333333 847 -116.5 c 128
 839 -120.166666667 832.666666667 -122.333333333 828 -123 c 128
 823.333333333 -123.666666667 817.333333333 -124 810 -124 c 0
 798.666666667 -123.333333333 789.333333333 -123 782 -123 c 0
 765.333333333 -123 749.5 -123.333333333 734.5 -124 c 128
 719.5 -124.666666667 704.666666667 -125.333333333 690 -126 c 0
 668 -126 652.666666667 -125.333333333 644 -124 c 128
 635.333333333 -122.666666667 624.333333333 -120.166666667 611 -116.5 c 128
 597.666666667 -112.833333333 586.666666667 -106.833333333 578 -98.5 c 128
 569.333333333 -90.1666666667 562 -84.1666666667 556 -80.5 c 128
 550 -76.8333333333 542.166666667 -71 532.5 -63 c 128
 522.833333333 -55 512.666666667 -47.6666666667 502 -41 c 1
EndSplineSet
EndChar

StartChar: N
Encoding: 78 78 7
Width: 1000
Flags: HW
LayerCount: 2
Fore
SplineSet
918 -120 m 1
 300 -120 l 1
 300 -72.6666666667 302.833333333 -39.6666666667 308.5 -21 c 128
 314.166666667 -2.33333333333 324.333333333 17.6666666667 339 39 c 1
 396 102 396 102 453 165 c 1
 465.666666667 185 475.333333333 201 482 213 c 128
 488.666666667 225 495 240 501 258 c 1
 497 258 493 258.333333333 489 259 c 1
 465.666666667 240.333333333 442.666666667 222 420 204 c 0
 411.333333333 199.333333333 395.833333333 192.833333333 373.5 184.5 c 128
 351.166666667 176.166666667 334.833333333 167.666666667 324.5 159 c 128
 314.166666667 150.333333333 304.666666667 137.666666667 296 121 c 128
 287.333333333 104.333333333 278.5 91.6666666667 269.5 83 c 128
 260.5 74.3333333333 253.166666667 67.3333333333 247.5 62 c 128
 241.833333333 56.6666666667 235 54 227 54 c 0
 219.666666667 54 211.833333333 58.1666666667 203.5 66.5 c 128
 195.166666667 74.8333333333 188 79 182 79 c 0
 178 79 173.666666667 77.8333333333 169 75.5 c 128
 164.333333333 73.1666666667 159.666666667 72 155 72 c 0
 141.666666667 72 127.666666667 79.3333333333 113 94 c 128
 98.3333333333 108.666666667 88.6666666667 125.333333333 84 144 c 0
 82.6666666667 152.666666667 81.6666666667 159 81 163 c 128
 80.3333333333 167 80 170.666666667 80 174 c 0
 80 202.666666667 92.1666666667 239 116.5 283 c 128
 140.833333333 327 157.833333333 362.5 167.5 389.5 c 128
 177.166666667 416.5 186.166666667 441 194.5 463 c 128
 202.833333333 485 213.833333333 504.833333333 227.5 522.5 c 128
 241.166666667 540.166666667 249.333333333 551.666666667 252 557 c 128
 254.666666667 562.333333333 256.666666667 569.666666667 258 579 c 0
 260 593 257.666666667 606.166666667 251 618.5 c 128
 244.333333333 630.833333333 239.166666667 640.666666667 235.5 648 c 128
 231.833333333 655.333333333 228.166666667 663.666666667 224.5 673 c 128
 220.833333333 682.333333333 219 689 219 693 c 0
 219 700.333333333 222 705.333333333 228 708 c 256
 234 710.666666667 241 710 249 706 c 0
 255.666666667 701.333333333 262.666666667 697.166666667 270 693.5 c 128
 277.333333333 689.833333333 288 682.166666667 302 670.5 c 128
 316 658.833333333 326.333333333 650.666666667 333 646 c 128
 339.666666667 641.333333333 346.5 636.5 353.5 631.5 c 128
 360.5 626.5 367.666666667 625 375 627 c 0
 383 629 389 635 393 645 c 0
 397 659 399.666666667 668.166666667 401 672.5 c 128
 402.333333333 676.833333333 403.5 685 404.5 697 c 128
 405.5 709 408.333333333 717.333333333 413 722 c 128
 417.666666667 726.666666667 422 729 426 729 c 0
 434 729 443.833333333 717.5 455.5 694.5 c 128
 467.166666667 671.5 474.5 658 477.5 654 c 128
 480.5 650 485.5 642.666666667 492.5 632 c 128
 499.5 621.333333333 505.666666667 614.166666667 511 610.5 c 128
 516.333333333 606.833333333 522.166666667 604.333333333 528.5 603 c 128
 534.833333333 601.666666667 540.333333333 601 545 601 c 0
 557.666666667 601.666666667 567.666666667 602 575 602 c 0
 578.333333333 602 584.666666667 601.333333333 594 600 c 0
 614 595.333333333 630.833333333 589.666666667 644.5 583 c 128
 658.166666667 576.333333333 675.166666667 566 695.5 552 c 128
 715.833333333 538 732.5 523.833333333 745.5 509.5 c 128
 758.5 495.166666667 774.166666667 475.166666667 792.5 449.5 c 128
 810.833333333 423.833333333 825 401 835 381 c 128
 845 361 857 332.333333333 871 295 c 128
 885 257.666666667 895.166666667 226.166666667 901.5 200.5 c 128
 907.833333333 174.833333333 912.833333333 146.5 916.5 115.5 c 128
 920.166666667 84.5 922.666666667 60.6666666667 924 44 c 128
 925.333333333 27.3333333333 926 9.66666666667 926 -9 c 0
 926 -25.6666666667 925.333333333 -41.8333333333 924 -57.5 c 128
 922.666666667 -73.1666666667 920.666666667 -94 918 -120 c 1
867 102 m 0
 859 162 847.333333333 213.833333333 832 257.5 c 128
 816.666666667 301.166666667 804 333.666666667 794 355 c 128
 784 376.333333333 771.5 397.333333333 756.5 418 c 128
 741.5 438.666666667 728 457.666666667 716 475 c 0
 702.666666667 491 690 502.166666667 678 508.5 c 128
 666 514.833333333 651.833333333 524.666666667 635.5 538 c 128
 619.166666667 551.333333333 605.333333333 558 594 558 c 0
 584.666666667 558 575.333333333 557.333333333 566 556 c 128
 556.666666667 554.666666667 546 553.333333333 534 552 c 0
 530 552 523.666666667 550 515 546 c 128
 506.333333333 542 500.333333333 540 497 540 c 0
 493 540 488.666666667 543.166666667 484 549.5 c 128
 479.333333333 555.833333333 474.333333333 568.333333333 469 587 c 128
 463.666666667 605.666666667 457 619 449 627 c 128
 441 635 435.333333333 639 432 639 c 0
 427.333333333 639 421 632.5 413 619.5 c 128
 405 606.5 398.833333333 598 394.5 594 c 128
 390.166666667 590 384.5 583.166666667 377.5 573.5 c 128
 370.5 563.833333333 364.166666667 556.833333333 358.5 552.5 c 128
 352.833333333 548.166666667 347.666666667 544.166666667 343 540.5 c 128
 338.333333333 536.833333333 333.833333333 534 329.5 532 c 128
 325.166666667 530 317.333333333 528.666666667 306 528 c 128
 294.666666667 527.333333333 283 523 271 515 c 128
 259 507 247.5 487.166666667 236.5 455.5 c 128
 225.5 423.833333333 217.166666667 400.166666667 211.5 384.5 c 128
 205.833333333 368.833333333 190 338.166666667 164 292.5 c 128
 138 246.833333333 125 212 125 188 c 0
 125 177.333333333 126.5 167 129.5 157 c 128
 132.5 147 136 140.166666667 140 136.5 c 128
 144 132.833333333 149.333333333 130.333333333 156 129 c 0
 163.333333333 127.666666667 170.666666667 129.166666667 178 133.5 c 128
 185.333333333 137.833333333 191 141.333333333 195 144 c 0
 197.666666667 148.666666667 203.666666667 154.333333333 213 161 c 128
 222.333333333 167.666666667 230.333333333 171 237 171 c 0
 241.666666667 171 245.666666667 169 249 165 c 0
 251 162.333333333 249 155.333333333 243 144 c 128
 237 132.666666667 234 124.666666667 234 120 c 1
 237.333333333 120 241 120.333333333 245 121 c 1
 274.333333333 167.666666667 292.833333333 194.166666667 300.5 200.5 c 128
 308.166666667 206.833333333 324.166666667 214.666666667 348.5 224 c 128
 372.833333333 233.333333333 390.166666667 241.333333333 400.5 248 c 128
 410.833333333 254.666666667 421.166666667 262 431.5 270 c 128
 441.833333333 278 452.166666667 286.333333333 462.5 295 c 128
 472.833333333 303.666666667 490.333333333 325 515 359 c 128
 539.666666667 393 554.333333333 410 559 410 c 0
 562.333333333 410 564 406.333333333 564 399 c 0
 564 372.333333333 562.833333333 351 560.5 335 c 128
 558.166666667 319 553.833333333 297.333333333 547.5 270 c 128
 541.166666667 242.666666667 535.333333333 217.666666667 530 195 c 0
 522.666666667 172.333333333 511 151.333333333 495 132 c 0
 457.666666667 92 420.666666667 52 384 12 c 0
 375.333333333 0 368.833333333 -11.8333333333 364.5 -23.5 c 128
 360.166666667 -35.1666666667 355.666666667 -51.3333333333 351 -72 c 1
 873 -72 l 1
 873 -5 l 1
 873 8 l 2
 873 33.3333333333 871 64.6666666667 867 102 c 0
255 381 m 0
 255 400.333333333 255.333333333 413.166666667 256 419.5 c 128
 256.666666667 425.833333333 259.333333333 435 264 447 c 0
 266.666666667 457 269 464 271 468 c 128
 273 472 278.166666667 477 286.5 483 c 128
 294.833333333 489 307 492 323 492 c 0
 339.666666667 492 348 486 348 474 c 0
 348 468.666666667 345.333333333 463.666666667 340 459 c 128
 334.666666667 454.333333333 328.333333333 449.333333333 321 444 c 0
 314.333333333 436 309 429.833333333 305 425.5 c 128
 301 421.166666667 297.5 415.666666667 294.5 409 c 128
 291.5 402.333333333 286 396 278 390 c 128
 270 384 264.666666667 380.333333333 262 379 c 0
 259.333333333 379.666666667 257 380.333333333 255 381 c 0
159 213 m 0
 161.666666667 217.666666667 166.666666667 222.666666667 174 228 c 128
 181.333333333 233.333333333 187 236 191 236 c 0
 193.666666667 236 195 234.333333333 195 231 c 0
 195 226.333333333 194.833333333 221.666666667 194.5 217 c 128
 194.166666667 212.333333333 192.166666667 206 188.5 198 c 128
 184.833333333 190 181.333333333 184.5 178 181.5 c 128
 174.666666667 178.5 168.333333333 175 159 171 c 0
 156.333333333 169.666666667 154.333333333 170 153 172 c 128
 151.666666667 174 151 177.333333333 151 182 c 0
 151 193.333333333 153.666666667 203.666666667 159 213 c 0
348 602 m 0
 337.333333333 608.666666667 326.833333333 615.5 316.5 622.5 c 128
 306.166666667 629.5 296 635 286 639 c 1
 284.666666667 635.666666667 283.333333333 632.666666667 282 630 c 0
 289.333333333 594.666666667 293 573.666666667 293 567 c 0
 293 563 295.333333333 561 300 561 c 0
 304 561 308.166666667 561.833333333 312.5 563.5 c 128
 316.833333333 565.166666667 322.166666667 568.333333333 328.5 573 c 128
 334.833333333 577.666666667 340.333333333 583.166666667 345 589.5 c 128
 349.666666667 595.833333333 350.666666667 600 348 602 c 0
EndSplineSet
EndChar

StartChar: b
Encoding: 98 98 8
Width: 1000
Flags: HW
LayerCount: 2
Fore
SplineSet
0 761 m 1
 39 800 l 1
 73 800 l 1
 0 727 l 1
 0 761 l 1
0 643 m 1
 157 800 l 1
 191 800 l 1
 0 609 l 1
 0 643 l 1
0 525 m 1
 275 800 l 1
 309 800 l 1
 0 491 l 1
 0 525 l 1
0 407 m 1
 393 800 l 1
 427 800 l 1
 0 373 l 1
 0 407 l 1
0 289 m 1
 511 800 l 1
 545 800 l 1
 0 255 l 1
 0 289 l 1
809 -200 m 1
 1000 -9 l 1
 1000 -43 l 1
 843 -200 l 1
 809 -200 l 1
927 -200 m 1
 1000 -127 l 1
 1000 -161 l 1
 961 -200 l 1
 927 -200 l 1
532 703 m 1
 629 800 l 1
 663 800 l 1
 557 694 l 1
 532 703 l 1
595 648 m 1
 747 800 l 1
 781 800 l 1
 600 619 l 1
 595 648 l 1
749 330 m 1
 1000 581 l 1
 1000 547 l 1
 744 291 l 1
 749 330 l 1
686 150 m 1
 1000 463 l 1
 1000 429 l 1
 703 132 l 1
 686 150 l 1
726 71 m 1
 1000 345 l 1
 1000 311 l 1
 721 32 l 1
 726 71 l 1
258 276 m 1
 0 19 l 1
 0 53 l 1
 251 304 l 1
 258 276 l 1
303 204 m 1
 117 18 l 1
 71 -14 l 1
 59 -40 l 1
 0 -99 l 1
 0 -65 l 1
 283 218 l 1
 303 204 l 1
104 -113 m 1
 17 -200 l 1
 0 -200 l 1
 0 -183 l 1
 89 -94 l 1
 104 -113 l 1
182 -153 m 1
 135 -200 l 1
 101 -200 l 1
 153 -148 l 1
 182 -153 l 1
565 -124 m 1
 489 -200 l 1
 455 -200 l 1
 546 -109 l 1
 565 -124 l 1
688 506 m 1
 983 800 l 1
 1000 800 l 1
 1000 783 l 1
 703 486 l 1
 688 506 l 1
733 432 m 1
 1000 699 l 1
 1000 665 l 1
 741 406 l 1
 733 432 l 1
627 563 m 1
 865 800 l 1
 899 800 l 1
 647 548 l 1
 627 563 l 1
252 389 m 1
 0 137 l 1
 0 171 l 1
 266 437 l 1
 252 389 l 1
299 -154 m 1
 253 -200 l 1
 219 -200 l 1
 266 -153 l 1
 299 -154 l 1
477 -94 m 1
 371 -200 l 1
 337 -200 l 1
 392 -145 l 1
 477 -94 l 1
898 8 m 1
 1000 109 l 1
 1000 75 l 1
 918 -7 l 1
 898 8 l 1
806 33 m 1
 1000 227 l 1
 1000 193 l 1
 840 33 l 1
 806 33 l 1
653 -154 m 1
 607 -200 l 1
 573 -200 l 1
 623 -150 l 1
 653 -154 l 1
772 -153 m 1
 725 -200 l 1
 691 -200 l 1
 738 -153 l 1
 772 -153 l 1
277 60 m 1
 250 33 l 1
 216 33 l 1
 270 87 l 1
 277 60 l 1
447 21 m 0
 439 26.3333333333 430.5 21.8333333333 421.5 7.5 c 128
 412.5 -6.83333333333 405.166666667 -15.6666666667 399.5 -19 c 128
 393.833333333 -22.3333333333 387.333333333 -26 380 -30 c 128
 372.666666667 -34 365 -36 357 -36 c 2
 222 -36 l 1
 197 -36 l 2
 179.666666667 -36 167.5 -36.6666666667 160.5 -38 c 128
 153.5 -39.3333333333 150 -42.6666666667 150 -48 c 0
 150 -50.6666666667 152 -54.6666666667 156 -60 c 0
 170.666666667 -76 186.666666667 -84 204 -84 c 2
 378 -84 l 2
 386 -84 399 -76.1666666667 417 -60.5 c 128
 435 -44.8333333333 447.166666667 -35.6666666667 453.5 -33 c 128
 459.833333333 -30.3333333333 464.833333333 -25.1666666667 468.5 -17.5 c 128
 472.166666667 -9.83333333333 474 1 474 15 c 0
 474 20.3333333333 472.333333333 23 469 23 c 0
 464.333333333 21.6666666667 460.333333333 20.5 457 19.5 c 128
 453.666666667 18.5 450.333333333 19 447 21 c 0
524 15 m 0
 524 0.333333333333 525.666666667 -10.6666666667 529 -18 c 128
 532.333333333 -25.3333333333 538.5 -30.8333333333 547.5 -34.5 c 128
 556.5 -38.1666666667 568.333333333 -47.3333333333 583 -62 c 128
 597.666666667 -76.6666666667 610 -84 620 -84 c 2
 794 -84 l 2
 803.333333333 -84 811.666666667 -82.1666666667 819 -78.5 c 128
 826.333333333 -74.8333333333 833 -69.5 839 -62.5 c 128
 845 -55.5 848 -50.6666666667 848 -48 c 0
 848 -44.6666666667 844.166666667 -41.8333333333 836.5 -39.5 c 128
 828.833333333 -37.1666666667 816 -36 798 -36 c 2
 776 -36 l 1
 641 -36 l 2
 632.333333333 -36 624 -33.6666666667 616 -29 c 128
 608 -24.3333333333 601.666666667 -20.6666666667 597 -18 c 128
 592.333333333 -15.3333333333 585.5 -6.83333333333 576.5 7.5 c 128
 567.5 21.8333333333 560.333333333 27.1666666667 555 23.5 c 128
 549.666666667 19.8333333333 544.166666667 18.8333333333 538.5 20.5 c 128
 532.833333333 22.1666666667 529.666666667 23 529 23 c 0
 525.666666667 23 524 20.3333333333 524 15 c 0
656 87 m 1
 654 90.3333333333 652.333333333 93.6666666667 651 97 c 0
 635.666666667 105 618.166666667 109.833333333 598.5 111.5 c 128
 578.833333333 113.166666667 561.666666667 114.5 547 115.5 c 128
 532.333333333 116.5 517 117 501 117 c 0
 484.333333333 117 468.833333333 116.5 454.5 115.5 c 128
 440.166666667 114.5 423 113.166666667 403 111.5 c 128
 383 109.833333333 365.666666667 105.333333333 351 98 c 1
 349 94 347 90.3333333333 345 87 c 1
 364.333333333 75.6666666667 386.833333333 67.8333333333 412.5 63.5 c 128
 438.166666667 59.1666666667 467.666666667 57 501 57 c 0
 537.666666667 57 567.5 58.8333333333 590.5 62.5 c 128
 613.5 66.1666666667 635.333333333 74.3333333333 656 87 c 1
443 194 m 0
 437 194 430.166666667 192.5 422.5 189.5 c 128
 414.833333333 186.5 406 183.333333333 396 180 c 1
 393.333333333 172.666666667 390 165 386 157 c 128
 382 149 376.333333333 142 369 136 c 1
 371 136 375.166666667 136.666666667 381.5 138 c 128
 387.833333333 139.333333333 398.833333333 141.5 414.5 144.5 c 128
 430.166666667 147.5 447.333333333 149 466 149 c 2
 501 149 l 2
 512 149 512 149 518 149 c 0
 527.333333333 149 538.5 148.666666667 551.5 148 c 128
 564.5 147.333333333 576.666666667 146 588 144 c 0
 603.333333333 140 613.333333333 137.666666667 618 137 c 128
 622.666666667 136.333333333 626.333333333 136 629 136 c 1
 623 140.666666667 617.666666667 147.333333333 613 156 c 128
 608.333333333 164.666666667 604 172.666666667 600 180 c 1
 595.333333333 181.333333333 589 184 581 188 c 128
 573 192 565.666666667 194 559 194 c 0
 544 194 544 194 529.5 194 c 128
 519.833333333 194 510.333333333 194.333333333 501 195 c 0
 491.666666667 195 482.166666667 194.833333333 472.5 194.5 c 128
 462.833333333 194.166666667 453 194 443 194 c 0
593 213 m 0
 605.666666667 207.666666667 621.5 218.333333333 640.5 245 c 128
 659.5 271.666666667 670.166666667 291.166666667 672.5 303.5 c 128
 674.833333333 315.833333333 676 324.666666667 676 330 c 128
 676 338 676 338 676 342 c 0
 676 361.333333333 672.666666667 379.333333333 666 396 c 128
 659.333333333 412.666666667 650.333333333 429.833333333 639 447.5 c 128
 627.666666667 465.166666667 616.666666667 479 606 489 c 128
 595.333333333 499 584.333333333 508 573 516 c 128
 561.666666667 524 549 529.666666667 535 533 c 128
 521 536.333333333 509 539.666666667 499 543 c 1
 482.333333333 539 468.333333333 535.666666667 457 533 c 128
 445.666666667 530.333333333 434.166666667 524.833333333 422.5 516.5 c 128
 410.833333333 508.166666667 399.666666667 499 389 489 c 128
 378.333333333 479 367.333333333 465.166666667 356 447.5 c 128
 344.666666667 429.833333333 335.666666667 412.5 329 395.5 c 128
 322.333333333 378.5 319 360.333333333 319 341 c 0
 319 329.666666667 320.166666667 317.5 322.5 304.5 c 128
 324.833333333 291.5 335.5 272 354.5 246 c 128
 373.5 220 389.333333333 209 402 213 c 0
 424.666666667 219.666666667 440.666666667 223.833333333 450 225.5 c 128
 459.333333333 227.166666667 472.333333333 228 489 228 c 2
 502 228 l 2
 523.333333333 228 539.833333333 227.166666667 551.5 225.5 c 128
 563.166666667 223.833333333 577 219.666666667 593 213 c 0
466 640 m 0
 461.333333333 634.666666667 459 626.666666667 459 616 c 0
 459 610 461.666666667 603.5 467 596.5 c 128
 472.333333333 589.5 483.333333333 586 500 586 c 256
 516.666666667 586 527.666666667 589.166666667 533 595.5 c 128
 538.333333333 601.833333333 541 609 541 617 c 0
 541 627 539.166666667 634.333333333 535.5 639 c 128
 531.833333333 643.666666667 526.833333333 646.833333333 520.5 648.5 c 128
 514.166666667 650.166666667 508 652 502 654 c 1
 492.666666667 652.666666667 485.166666667 651.166666667 479.5 649.5 c 128
 473.833333333 647.833333333 469.333333333 644.666666667 466 640 c 0
518 298 m 1
 482 298 l 1
 482 358 l 1
 422 358 l 1
 422 394 l 1
 482 394 l 1
 482 454 l 1
 518 454 l 1
 518 394 l 1
 574 394 l 1
 574 358 l 1
 518 358 l 1
 518 298 l 1
502 -41 m 1
 442 -81 l 2
 437.333333333 -83.6666666667 430.666666667 -89.1666666667 422 -97.5 c 128
 413.333333333 -105.833333333 402.666666667 -111.666666667 390 -115 c 128
 377.333333333 -118.333333333 364.166666667 -120.833333333 350.5 -122.5 c 128
 336.833333333 -124.166666667 320.666666667 -125 302 -125 c 0
 293.333333333 -125 279.666666667 -124.666666667 261 -124 c 128
 242.333333333 -123.333333333 227.333333333 -123 216 -123 c 2
 191 -123 l 2
 184.333333333 -123 178.5 -122.666666667 173.5 -122 c 128
 168.5 -121.333333333 161.333333333 -119.333333333 152 -116 c 128
 142.666666667 -112.666666667 133 -104.5 123 -91.5 c 128
 113 -78.5 105 -69.1666666667 99 -63.5 c 128
 93 -57.8333333333 90 -51.6666666667 90 -45 c 0
 90 -37.6666666667 95.3333333333 -30.3333333333 106 -23 c 0
 120 -15 130.166666667 -9.16666666667 136.5 -5.5 c 128
 142.833333333 -1.83333333333 149.5 0.833333333333 156.5 2.5 c 128
 163.5 4.16666666667 171.333333333 5 180 5 c 0
 184.666666667 5 192.333333333 4.66666666667 203 4 c 128
 213.666666667 3.33333333333 222 3 228 3 c 0
 238.666666667 3 252.666666667 2.66666666667 270 2 c 128
 287.333333333 1.33333333333 299.666666667 1 307 1 c 0
 315 1 324 1.33333333333 334 2 c 128
 344 2.66666666667 354.666666667 4 366 6 c 128
 377.333333333 8 386.166666667 10.8333333333 392.5 14.5 c 128
 398.833333333 18.1666666667 402 24 402 32 c 0
 402 38.6666666667 398 42 390 42 c 0
 382 41.3333333333 376 41 372 41 c 0
 366.666666667 41 361.166666667 42.8333333333 355.5 46.5 c 128
 349.833333333 50.1666666667 339.166666667 54.6666666667 323.5 60 c 128
 307.833333333 65.3333333333 300 73.3333333333 300 84 c 0
 300 98 308.166666667 112.333333333 324.5 127 c 128
 340.833333333 141.666666667 350.166666667 151.833333333 352.5 157.5 c 128
 354.833333333 163.166666667 356 168.666666667 356 174 c 0
 356 182 347.666666667 193.833333333 331 209.5 c 128
 314.333333333 225.166666667 303.333333333 239.166666667 298 251.5 c 128
 292.666666667 263.833333333 288.166666667 278 284.5 294 c 128
 280.833333333 310 279 328 279 348 c 0
 279 394 290.166666667 431.5 312.5 460.5 c 128
 334.833333333 489.5 351.5 508.833333333 362.5 518.5 c 128
 373.5 528.166666667 385.166666667 536.5 397.5 543.5 c 128
 409.833333333 550.5 421.166666667 556.666666667 431.5 562 c 128
 441.833333333 567.333333333 452 570 462 570 c 0
 463 573 463 573 464 576 c 0
 445.333333333 587.333333333 435 595.666666667 433 601 c 128
 431 606.333333333 430 612.333333333 430 619 c 0
 430 633 434.333333333 645.166666667 443 655.5 c 128
 451.666666667 665.833333333 459.833333333 672.166666667 467.5 674.5 c 128
 475.166666667 676.833333333 486.333333333 679 501 681 c 1
 512.333333333 678.333333333 522.333333333 676 531 674 c 128
 539.666666667 672 548.333333333 665.833333333 557 655.5 c 128
 565.666666667 645.166666667 570 632.666666667 570 618 c 0
 570 612 568.833333333 606 566.5 600 c 128
 564.166666667 594 555.666666667 587 541 579 c 0
 538.333333333 575.666666667 535.666666667 572.666666667 533 570 c 1
 549 566.666666667 559.833333333 563.833333333 565.5 561.5 c 128
 571.166666667 559.166666667 584.666666667 552 606 540 c 128
 627.333333333 528 647 510.166666667 665 486.5 c 128
 683 462.833333333 696.5 440.166666667 705.5 418.5 c 128
 714.5 396.833333333 719 373.333333333 719 348 c 0
 719 312.666666667 714.166666667 283.833333333 704.5 261.5 c 128
 694.833333333 239.166666667 682 221.166666667 666 207.5 c 128
 650 193.833333333 642 182.333333333 642 173 c 0
 642 168.333333333 643.333333333 163 646 157 c 128
 648.666666667 151 658 140.666666667 674 126 c 128
 690 111.333333333 698 97.3333333333 698 84 c 0
 698 74 690.5 66.3333333333 675.5 61 c 128
 660.5 55.6666666667 650.166666667 51 644.5 47 c 128
 638.833333333 43 631.666666667 41 623 41 c 0
 616.333333333 41.6666666667 611.666666667 42 609 42 c 0
 600.333333333 42 596 39.3333333333 596 34 c 0
 596 25.3333333333 599.166666667 19 605.5 15 c 128
 611.833333333 11 619.5 8.16666666667 628.5 6.5 c 128
 637.5 4.83333333333 648 3.5 660 2.5 c 128
 672 1.5 683.333333333 1 694 1 c 0
 702.666666667 1 717.166666667 1.33333333333 737.5 2 c 128
 757.833333333 2.66666666667 768.666666667 3 770 3 c 0
 776 3 784.333333333 3.33333333333 795 4 c 128
 805.666666667 4.66666666667 813.333333333 5 818 5 c 0
 826 5 833.666666667 4.33333333333 841 3 c 128
 848.333333333 1.66666666667 856.166666667 -1.5 864.5 -6.5 c 128
 872.833333333 -11.5 882 -16.6666666667 892 -22 c 0
 902.666666667 -29.3333333333 908 -37 908 -45 c 0
 908 -51.6666666667 905 -57.6666666667 899 -63 c 128
 893 -68.3333333333 884.833333333 -77.6666666667 874.5 -91 c 128
 864.166666667 -104.333333333 855 -112.833333333 847 -116.5 c 128
 839 -120.166666667 832.666666667 -122.333333333 828 -123 c 128
 823.333333333 -123.666666667 817.333333333 -124 810 -124 c 0
 798.666666667 -123.333333333 789.333333333 -123 782 -123 c 0
 765.333333333 -123 749.5 -123.333333333 734.5 -124 c 128
 719.5 -124.666666667 704.666666667 -125.333333333 690 -126 c 0
 668 -126 652.666666667 -125.333333333 644 -124 c 128
 635.333333333 -122.666666667 624.333333333 -120.166666667 611 -116.5 c 128
 597.666666667 -112.833333333 586.666666667 -106.833333333 578 -98.5 c 128
 569.333333333 -90.1666666667 562 -84.1666666667 556 -80.5 c 128
 550 -76.8333333333 542.166666667 -71 532.5 -63 c 128
 522.833333333 -55 512.666666667 -47.6666666667 502 -41 c 1
EndSplineSet
EndChar

StartChar: k
Encoding: 107 107 9
Width: 1000
Flags: HW
LayerCount: 2
Fore
SplineSet
0 761 m 1
 39 800 l 1
 73 800 l 1
 0 727 l 1
 0 761 l 1
0 643 m 1
 157 800 l 1
 191 800 l 1
 0 609 l 1
 0 643 l 1
0 525 m 1
 275 800 l 1
 309 800 l 1
 0 491 l 1
 0 525 l 1
0 407 m 1
 393 800 l 1
 427 800 l 1
 0 373 l 1
 0 407 l 1
809 -200 m 1
 1000 -9 l 1
 1000 -43 l 1
 843 -200 l 1
 809 -200 l 1
691 -200 m 1
 1000 109 l 1
 1000 75 l 1
 725 -200 l 1
 691 -200 l 1
927 -200 m 1
 1000 -127 l 1
 1000 -161 l 1
 961 -200 l 1
 927 -200 l 1
927 272 m 1
 1000 345 l 1
 1000 311 l 1
 905 216 l 1
 927 272 l 1
784 11 m 1
 1000 227 l 1
 1000 193 l 1
 804 -3 l 1
 784 11 l 1
313 -140 m 1
 253 -200 l 1
 219 -200 l 1
 286 -133 l 1
 313 -140 l 1
70 325 m 1
 0 255 l 1
 0 289 l 1
 72 361 l 1
 70 325 l 1
370 625 m 1
 265 521 l 2
 265 520.333333333 263.666666667 519.833333333 261 519.5 c 128
 257 519 257 519 225 515 c 1
 370 659 l 1
 370 625 l 1
444 699 m 1
 425 680 l 1
 391 680 l 1
 444 733 l 1
 444 699 l 1
464 753 m 1
 511 800 l 1
 545 800 l 1
 498 753 l 1
 464 753 l 1
556 727 m 1
 629 800 l 1
 663 800 l 1
 556 693 l 1
 556 727 l 1
601 536 m 1
 865 800 l 1
 899 800 l 1
 611 513 l 1
 601 536 l 1
627 680 m 1
 747 800 l 1
 781 800 l 1
 630 649 l 1
 627 680 l 1
701 518 m 1
 983 800 l 1
 1000 800 l 1
 1000 783 l 1
 738 521 l 1
 701 518 l 1
807 506 m 1
 1000 699 l 1
 1000 665 l 1
 831 496 l 1
 807 506 l 1
925 388 m 1
 1000 463 l 1
 1000 429 l 1
 930 359 l 1
 925 388 l 1
882 463 m 1
 1000 581 l 1
 1000 547 l 1
 898 445 l 1
 882 463 l 1
660 -147 m 1
 607 -200 l 1
 573 -200 l 1
 619 -154 l 1
 660 -147 l 1
413 -158 m 1
 371 -200 l 1
 337 -200 l 1
 383 -154 l 1
 413 -158 l 1
524 -165 m 1
 489 -200 l 1
 455 -200 l 1
 490 -165 l 1
 524 -165 l 1
170 -47 m 1
 17 -200 l 1
 0 -200 l 1
 0 -183 l 1
 220 37 l 1
 170 -47 l 1
229 -106 m 1
 135 -200 l 1
 101 -200 l 1
 207 -94 l 1
 229 -106 l 1
189 90 m 1
 0 -99 l 1
 0 -65 l 1
 173 108 l 1
 189 90 l 1
91 228 m 1
 0 137 l 1
 0 171 l 1
 81 252 l 1
 91 228 l 1
133 152 m 1
 0 19 l 1
 0 53 l 1
 121 174 l 1
 133 152 l 1
722 -52 m 1
 719.333333333 -48 716.666666667 -44.3333333333 714 -41 c 0
 690 -33 665 -29 639 -29 c 0
 624.333333333 -29 602 -28 572 -26 c 128
 542 -24 517.666666667 -23 499 -23 c 0
 479.666666667 -23 455.666666667 -24.3333333333 427 -27 c 128
 398.333333333 -29.6666666667 376.333333333 -31 361 -31 c 0
 344.333333333 -31 324.666666667 -33.6666666667 302 -39 c 0
 294 -43 286.333333333 -47.3333333333 279 -52 c 1
 307.666666667 -64 340.5 -72.6666666667 377.5 -78 c 128
 414.5 -83.3333333333 455.666666667 -86 501 -86 c 0
 590.333333333 -86 664 -74.6666666667 722 -52 c 1
476 168 m 1
 476 277 l 1
 476 276 l 1
 468.666666667 305.333333333 459.666666667 327 449 341 c 1
 436.333333333 352.333333333 426.833333333 362 420.5 370 c 128
 414.166666667 378 408.166666667 384.166666667 402.5 388.5 c 128
 396.833333333 392.833333333 385 400.666666667 367 412 c 128
 349 423.333333333 334.166666667 431.833333333 322.5 437.5 c 128
 310.833333333 443.166666667 296.666666667 446 280 446 c 0
 257.333333333 446 240.833333333 445 230.5 443 c 128
 220.166666667 441 205.833333333 433.833333333 187.5 421.5 c 128
 169.166666667 409.166666667 157.166666667 393.666666667 151.5 375 c 128
 145.833333333 356.333333333 143 340.666666667 143 328 c 0
 143 317.333333333 144.166666667 307 146.5 297 c 128
 148.833333333 287 151.333333333 276.333333333 154 265 c 128
 156.666666667 253.666666667 160.166666667 243.333333333 164.5 234 c 128
 168.833333333 224.666666667 175.833333333 212.166666667 185.5 196.5 c 128
 195.166666667 180.833333333 204.333333333 168 213 158 c 128
 221.666666667 148 231.333333333 138 242 128 c 1
 256.666666667 133.333333333 274 138.666666667 294 144 c 128
 314 149.333333333 336 154 360 158 c 128
 384 162 403.166666667 164.666666667 417.5 166 c 128
 431.833333333 167.333333333 451.333333333 168 476 168 c 1
658 156 m 0
 667.333333333 154.666666667 683 151.166666667 705 145.5 c 128
 727 139.833333333 745.333333333 134 760 128 c 1
 772.666666667 140 782.166666667 149.666666667 788.5 157 c 128
 794.833333333 164.333333333 803.833333333 177.166666667 815.5 195.5 c 128
 827.166666667 213.833333333 835.166666667 228 839.5 238 c 128
 843.833333333 248 847.166666667 258.333333333 849.5 269 c 128
 851.833333333 279.666666667 854 290.666666667 856 302 c 128
 858 313.333333333 859 322.333333333 859 329 c 0
 859 341 856.166666667 356.333333333 850.5 375 c 128
 844.833333333 393.666666667 833.166666667 409 815.5 421 c 128
 797.833333333 433 782.666666667 440.166666667 770 442.5 c 128
 757.333333333 444.833333333 741.333333333 446 722 446 c 0
 704.666666667 446 690.833333333 443.5 680.5 438.5 c 128
 670.166666667 433.5 656.166666667 425.5 638.5 414.5 c 128
 620.833333333 403.5 608.166666667 394.833333333 600.5 388.5 c 128
 592.833333333 382.166666667 584.5 373.833333333 575.5 363.5 c 128
 566.5 353.166666667 557 342.333333333 547 331 c 0
 538.333333333 317 531.333333333 298.666666667 526 276 c 1
 526 277 l 1
 526 168 l 1
 550 168 569.833333333 167.166666667 585.5 165.5 c 128
 601.166666667 163.833333333 625.333333333 160.666666667 658 156 c 0
618 14 m 2
 706 -1 l 1
 706 1 706 1 706 3 c 0
 698.666666667 10.3333333333 696 15 698 17 c 0
 700.666666667 19.6666666667 702 22.3333333333 702 25 c 0
 702 31.6666666667 695.166666667 36.6666666667 681.5 40 c 128
 667.833333333 43.3333333333 648.666666667 46.6666666667 624 50 c 128
 599.333333333 53.3333333333 581 55 569 55 c 0
 561 55 553.166666667 54.8333333333 545.5 54.5 c 128
 537.833333333 54.1666666667 530 54 522 54 c 2
 507 54 l 2
 502.333333333 54.6666666667 499 55 497 55 c 0
 491 54.3333333333 485 54 479 54 c 128
 470 54 470 54 465 54 c 2
 445 54 l 2
 435 54 425.5 53.8333333333 416.5 53.5 c 128
 407.5 53.1666666667 399.166666667 51.8333333333 391.5 49.5 c 128
 383.833333333 47.1666666667 365 43.8333333333 335 39.5 c 128
 305 35.1666666667 290 29.6666666667 290 23 c 0
 290 21 291.666666667 17.6666666667 295 13 c 0
 297 11 296.5 8.33333333333 293.5 5 c 128
 290.5 1.66666666667 288 -1.33333333333 286 -4 c 1
 293.333333333 -3.33333333333 310.5 0 337.5 6 c 128
 364.5 12 383.333333333 15.8333333333 394 17.5 c 128
 404.666666667 19.1666666667 415.166666667 20.3333333333 425.5 21 c 128
 435.833333333 21.6666666667 448 22 462 22 c 2
 497 22 l 2
 517 22 534 21.8333333333 548 21.5 c 128
 562 21.1666666667 585.333333333 18.6666666667 618 14 c 2
373 131 m 0
 341.666666667 125 314.666666667 119.5 292 114.5 c 128
 269.333333333 109.5 258 102 258 92 c 0
 258 87.3333333333 259.666666667 83.3333333333 263 80 c 0
 267.666666667 72.6666666667 271.5 66.8333333333 274.5 62.5 c 128
 277.5 58.1666666667 280.666666667 56 284 56 c 0
 291.333333333 56 299.333333333 58.1666666667 308 62.5 c 128
 316.666666667 66.8333333333 326 70.1666666667 336 72.5 c 128
 346 74.8333333333 358.666666667 76.8333333333 374 78.5 c 128
 389.333333333 80.1666666667 406.666666667 81 426 81 c 0
 437.333333333 81 449.166666667 80.8333333333 461.5 80.5 c 128
 473.833333333 80.1666666667 486.333333333 80 499 80 c 0
 516 80 516 80 532 80 c 128
 542.666666667 80 553.333333333 80.3333333333 564 81 c 0
 581.333333333 81 597.5 80.3333333333 612.5 79 c 128
 627.5 77.6666666667 644.666666667 74.6666666667 664 70 c 0
 674.666666667 65.3333333333 683.333333333 61.8333333333 690 59.5 c 128
 696.666666667 57.1666666667 703.666666667 56 711 56 c 0
 715 56 718.333333333 59.6666666667 721 67 c 128
 723.666666667 74.3333333333 726 79.3333333333 728 82 c 128
 730 84.6666666667 731 88 731 92 c 0
 731 102 716.666666667 110.333333333 688 117 c 0
 663.333333333 121.666666667 639 126.333333333 615 131 c 0
 595.666666667 136.333333333 576.166666667 140 556.5 142 c 128
 536.833333333 144 517 146 497 148 c 1
 467 145.333333333 443.666666667 143.166666667 427 141.5 c 128
 410.333333333 139.833333333 392.333333333 136.333333333 373 131 c 0
562 413 m 0
 565 433 565 433 568 453 c 0
 568 459 567.5 463.666666667 566.5 467 c 128
 565.5 470.333333333 561.166666667 478.666666667 553.5 492 c 128
 545.833333333 505.333333333 528.666666667 512 502 512 c 0
 474 512 455.5 504 446.5 488 c 128
 437.5 472 433 459.333333333 433 450 c 0
 433 444 434 437.333333333 436 430 c 128
 438 422.666666667 440 414.5 442 405.5 c 128
 444 396.5 450.833333333 383.666666667 462.5 367 c 128
 474.166666667 350.333333333 487 332.666666667 501 314 c 1
 503.666666667 318.666666667 513.666666667 332 531 354 c 128
 548.333333333 376 558.666666667 395.666666667 562 413 c 0
526 650 m 1
 600 650 l 1
 600 600 l 1
 525 600 l 1
 525 542 l 1
 532.333333333 545.333333333 542 543.333333333 554 536 c 128
 566 528.666666667 575.5 520.833333333 582.5 512.5 c 128
 589.5 504.166666667 595 480.666666667 599 442 c 0
 601 439.333333333 603.333333333 436.666666667 606 434 c 1
 613.333333333 452.666666667 630.333333333 466.833333333 657 476.5 c 128
 683.666666667 486.166666667 708 491 730 491 c 0
 750.666666667 491 771.166666667 487.333333333 791.5 480 c 128
 811.833333333 472.666666667 826.666666667 466.333333333 836 461 c 128
 845.333333333 455.666666667 855.833333333 446.833333333 867.5 434.5 c 128
 879.166666667 422.166666667 887.833333333 406.5 893.5 387.5 c 128
 899.166666667 368.5 902 346 902 320 c 0
 902 290 894.333333333 260 879 230 c 0
 866.333333333 208 856.666666667 190.666666667 850 178 c 0
 810 126 810 126 770 74 c 0
 764 62 759.333333333 52.1666666667 756 44.5 c 128
 752.666666667 36.8333333333 751 29 751 21 c 0
 751 17 751.666666667 12.5 753 7.5 c 128
 754.333333333 2.5 762.833333333 -3.33333333333 778.5 -10 c 128
 794.166666667 -16.6666666667 802.666666667 -24.6666666667 804 -34 c 0
 806.666666667 -52.6666666667 798 -66.1666666667 778 -74.5 c 128
 758 -82.8333333333 740.666666667 -90.5 726 -97.5 c 128
 711.333333333 -104.5 694.5 -109.833333333 675.5 -113.5 c 128
 656.5 -117.166666667 632.333333333 -121.666666667 603 -127 c 128
 573.666666667 -132.333333333 540 -135 502 -135 c 256
 464 -135 429.166666667 -132 397.5 -126 c 128
 365.833333333 -120 341.666666667 -115.666666667 325 -113 c 0
 307.666666667 -109 290.833333333 -103.166666667 274.5 -95.5 c 128
 258.166666667 -87.8333333333 241.333333333 -80.3333333333 224 -73 c 0
 205.333333333 -63 197.333333333 -50 200 -34 c 0
 201.333333333 -26 210 -18 226 -10 c 128
 242 -2 250.666666667 5.33333333333 252 12 c 0
 254 22.6666666667 252.5 33.1666666667 247.5 43.5 c 128
 242.5 53.8333333333 237.333333333 64 232 74 c 0
 226 88.6666666667 212.333333333 107.666666667 191 131 c 128
 169.666666667 154.333333333 151.5 179.5 136.5 206.5 c 128
 121.5 233.5 111.666666667 254 107 268 c 128
 102.333333333 282 100 299.333333333 100 320 c 0
 100 347.333333333 102.666666667 370 108 388 c 128
 113.333333333 406 122.166666667 421.5 134.5 434.5 c 128
 146.833333333 447.5 157 456.333333333 165 461 c 128
 173 465.666666667 187.666666667 471.833333333 209 479.5 c 128
 230.333333333 487.166666667 251.666666667 491 273 491 c 0
 295.666666667 491 316.833333333 487.333333333 336.5 480 c 128
 356.166666667 472.666666667 369.833333333 465.666666667 377.5 459 c 128
 385.166666667 452.333333333 390.666666667 444 394 434 c 1
 395.333333333 436 397 438 399 440 c 0
 403.666666667 478.666666667 409.666666667 502.333333333 417 511 c 128
 424.333333333 519.666666667 433.833333333 527.833333333 445.5 535.5 c 128
 457.166666667 543.166666667 466.666666667 545.333333333 474 542 c 1
 474 600 l 1
 400 600 l 1
 400 650 l 1
 474 650 l 1
 474 723 l 1
 526 723 l 1
 526 650 l 1
EndSplineSet
EndChar

StartChar: p
Encoding: 112 112 10
Width: 1000
Flags: HW
LayerCount: 2
Fore
SplineSet
0 761 m 1
 39 800 l 1
 73 800 l 1
 0 727 l 1
 0 761 l 1
0 643 m 1
 157 800 l 1
 191 800 l 1
 0 609 l 1
 0 643 l 1
0 525 m 1
 275 800 l 1
 309 800 l 1
 0 491 l 1
 0 525 l 1
0 407 m 1
 393 800 l 1
 427 800 l 1
 0 373 l 1
 0 407 l 1
0 289 m 1
 511 800 l 1
 545 800 l 1
 0 255 l 1
 0 289 l 1
809 -200 m 1
 1000 -9 l 1
 1000 -43 l 1
 843 -200 l 1
 809 -200 l 1
927 -200 m 1
 1000 -127 l 1
 1000 -161 l 1
 961 -200 l 1
 927 -200 l 1
373 509 m 1
 0 137 l 1
 0 171 l 1
 365 536 l 1
 373 509 l 1
304 323 m 1
 0 19 l 1
 0 53 l 1
 300 353 l 1
 304 323 l 1
225 126 m 1
 0 -99 l 1
 0 -65 l 1
 326 261 l 1
 225 126 l 1
515 686 m 1
 629 800 l 1
 663 800 l 1
 545 682 l 1
 515 686 l 1
636 571 m 1
 865 800 l 1
 899 800 l 1
 634 535 l 1
 636 571 l 1
597 650 m 1
 747 800 l 1
 781 800 l 1
 613 632 l 1
 597 650 l 1
654 471 m 1
 983 800 l 1
 1000 800 l 1
 1000 783 l 1
 668 451 l 1
 654 471 l 1
662 246 m 1
 1000 581 l 1
 1000 547 l 1
 685 232 l 1
 662 246 l 1
695 394 m 1
 1000 699 l 1
 1000 665 l 1
 699 364 l 1
 695 394 l 1
327 -126 m 1
 253 -200 l 1
 219 -200 l 1
 293 -126 l 1
 327 -126 l 1
190 -27 m 1
 17 -200 l 1
 0 -200 l 1
 0 -183 l 1
 192 9 l 1
 190 -27 l 1
209 -126 m 1
 135 -200 l 1
 101 -200 l 1
 193 -108 l 1
 209 -126 l 1
445 -126 m 1
 371 -200 l 1
 337 -200 l 1
 411 -126 l 1
 445 -126 l 1
563 -126 m 1
 489 -200 l 1
 455 -200 l 1
 529 -126 l 1
 563 -126 l 1
681 -126 m 1
 607 -200 l 1
 573 -200 l 1
 647 -126 l 1
 681 -126 l 1
729 192 m 1
 1000 463 l 1
 1000 429 l 1
 744 173 l 1
 729 192 l 1
803 30 m 1
 1000 227 l 1
 1000 193 l 1
 807 0 l 1
 803 30 l 1
776 121 m 1
 1000 345 l 1
 1000 311 l 1
 786 97 l 1
 776 121 l 1
799 -126 m 1
 725 -200 l 1
 691 -200 l 1
 765 -126 l 1
 799 -126 l 1
807 -84 m 1
 1000 109 l 1
 1000 75 l 1
 806 -118 l 1
 807 -84 l 1
228 43 m 0
 234.666666667 73 242.333333333 96.1666666667 251 112.5 c 128
 259.666666667 128.833333333 272.333333333 147.166666667 289 167.5 c 128
 305.666666667 187.833333333 320.666666667 201.833333333 334 209.5 c 128
 347.333333333 217.166666667 367 225.333333333 393 234 c 0
 395 235.333333333 397 237 399 239 c 1
 386.333333333 247 374 255 362 263 c 0
 352 272.333333333 344.166666667 287 338.5 307 c 128
 332.833333333 327 330 345.333333333 330 362 c 0
 330 369.333333333 330.666666667 377 332 385 c 128
 333.333333333 393 338.833333333 405.5 348.5 422.5 c 128
 358.166666667 439.5 368.166666667 452.166666667 378.5 460.5 c 128
 388.833333333 468.833333333 399.5 473.833333333 410.5 475.5 c 128
 421.5 477.166666667 432 478.666666667 442 480 c 0
 443.333333333 481.333333333 445 482.666666667 447 484 c 1
 436.333333333 488.666666667 426 493.333333333 416 498 c 0
 408 504.666666667 402 513.833333333 398 525.5 c 128
 394 537.166666667 392 549 392 561 c 0
 392 572.333333333 393.166666667 582 395.5 590 c 128
 397.833333333 598 404.333333333 607.833333333 415 619.5 c 128
 425.666666667 631.166666667 436.166666667 640.333333333 446.5 647 c 128
 456.833333333 653.666666667 474 657 498 657 c 0
 522.666666667 657 540.5 653.833333333 551.5 647.5 c 128
 562.5 641.166666667 574.5 630.833333333 587.5 616.5 c 128
 600.5 602.166666667 607 583.333333333 607 560 c 0
 607 532.666666667 599 512 583 498 c 1
 566.333333333 491.333333333 556 487 552 485 c 1
 553.333333333 483 555 481.333333333 557 480 c 0
 567.666666667 478.666666667 578.666666667 477.666666667 590 477 c 0
 599.333333333 475 609.833333333 469.5 621.5 460.5 c 128
 633.166666667 451.5 643.5 437.5 652.5 418.5 c 128
 661.5 399.5 666.5 387.166666667 667.5 381.5 c 128
 668.5 375.833333333 669 369.333333333 669 362 c 0
 669 344 666.5 325.5 661.5 306.5 c 128
 656.5 287.5 649 273.5 639 264.5 c 128
 629 255.5 620.666666667 249.333333333 614 246 c 128
 607.333333333 242.666666667 602.333333333 240 599 238 c 1
 601.666666667 236 609.5 232.833333333 622.5 228.5 c 128
 635.5 224.166666667 649.166666667 218 663.5 210 c 128
 677.833333333 202 692.833333333 188.333333333 708.5 169 c 128
 724.166666667 149.666666667 736.833333333 130.5 746.5 111.5 c 128
 756.166666667 92.5 763.5 72.5 768.5 51.5 c 128
 773.5 30.5 776.333333333 15.6666666667 777 7 c 128
 777.666666667 -1.66666666667 778 -12.3333333333 778 -25 c 0
 778 -31 777.666666667 -41.6666666667 777 -57 c 128
 776.333333333 -72.3333333333 776 -85.3333333333 776 -96 c 1
 222 -96 l 1
 222 -84 221.833333333 -72.3333333333 221.5 -61 c 128
 221.166666667 -49.6666666667 221 -38.6666666667 221 -28 c 0
 221 -14 221.333333333 -2.16666666667 222 7.5 c 128
 222.666666667 17.1666666667 224.666666667 29 228 43 c 0
441 594 m 0
 432.333333333 582.666666667 428 570.333333333 428 557 c 0
 428 553 428.5 548.5 429.5 543.5 c 128
 430.5 538.5 432 533.833333333 434 529.5 c 128
 436 525.166666667 440.166666667 520.833333333 446.5 516.5 c 128
 452.833333333 512.166666667 457 509 459 507 c 2
 486 480 l 1
 464 470.666666667 449.166666667 463.333333333 441.5 458 c 128
 433.833333333 452.666666667 426.5 447.833333333 419.5 443.5 c 128
 412.5 439.166666667 406 433.5 400 426.5 c 128
 394 419.5 388.666666667 410.666666667 384 400 c 128
 379.333333333 389.333333333 375.833333333 380.833333333 373.5 374.5 c 128
 371.166666667 368.166666667 370 361.333333333 370 354 c 0
 370 345.333333333 372 336.333333333 376 327 c 128
 380 317.666666667 385.166666667 307.666666667 391.5 297 c 128
 397.833333333 286.333333333 405.166666667 277.333333333 413.5 270 c 128
 421.833333333 262.666666667 431.166666667 255.166666667 441.5 247.5 c 128
 451.833333333 239.833333333 459.666666667 234.333333333 465 231 c 1
 402 201 l 2
 384 192.333333333 369.333333333 183.833333333 358 175.5 c 128
 346.666666667 167.166666667 334.833333333 155.166666667 322.5 139.5 c 128
 310.166666667 123.833333333 301.166666667 109.166666667 295.5 95.5 c 128
 289.833333333 81.8333333333 285 65.5 281 46.5 c 128
 277 27.5 274.666666667 13.3333333333 274 4 c 128
 273.333333333 -5.33333333333 273 -16 273 -28 c 2
 273 -51 l 1
 722 -51 l 1
 722 -28 l 2
 722 -16 721.666666667 -5.33333333333 721 4 c 128
 720.333333333 13.3333333333 718 27.3333333333 714 46 c 128
 710 64.6666666667 705.166666667 80.8333333333 699.5 94.5 c 128
 693.833333333 108.166666667 685 122.666666667 673 138 c 128
 661 153.333333333 649.333333333 165.5 638 174.5 c 128
 626.666666667 183.5 611.666666667 192.333333333 593 201 c 2
 530 231 l 1
 538 236.333333333 546.166666667 241.833333333 554.5 247.5 c 128
 562.833333333 253.166666667 570 259 576 265 c 128
 582 271 587.166666667 276.333333333 591.5 281 c 128
 595.833333333 285.666666667 600.5 292 605.5 300 c 128
 610.5 308 615 316.666666667 619 326 c 128
 623 335.333333333 625 344.666666667 625 354 c 0
 625 361.333333333 623.333333333 369.166666667 620 377.5 c 128
 616.666666667 385.833333333 613.166666667 394.333333333 609.5 403 c 128
 605.833333333 411.666666667 601.333333333 419.166666667 596 425.5 c 128
 590.666666667 431.833333333 582.666666667 438.333333333 572 445 c 128
 561.333333333 451.666666667 553.666666667 456.833333333 549 460.5 c 128
 544.333333333 464.166666667 536.5 468.333333333 525.5 473 c 128
 514.5 477.666666667 518 489 536 507 c 0
 544 513.666666667 552 520.666666667 560 528 c 1
 564 538 566 548.333333333 566 559 c 0
 566 572.333333333 560.5 586 549.5 600 c 128
 538.5 614 522 621 500 621 c 0
 490.666666667 621 480 618.666666667 468 614 c 128
 456 609.333333333 447 602.666666667 441 594 c 0
EndSplineSet
EndChar

StartChar: q
Encoding: 113 113 11
Width: 1000
Flags: HW
LayerCount: 2
Fore
SplineSet
0 761 m 1
 39 800 l 1
 73 800 l 1
 0 727 l 1
 0 761 l 1
0 643 m 1
 157 800 l 1
 191 800 l 1
 0 609 l 1
 0 643 l 1
809 -200 m 1
 1000 -9 l 1
 1000 -43 l 1
 843 -200 l 1
 809 -200 l 1
691 -200 m 1
 751 -140 l 1
 765.666666667 -135.333333333 779.5 -126.833333333 792.5 -114.5 c 128
 805.5 -102.166666667 814.666666667 -87.6666666667 820 -71 c 1
 1000 109 l 1
 1000 75 l 1
 725 -200 l 1
 691 -200 l 1
927 -200 m 1
 1000 -127 l 1
 1000 -161 l 1
 961 -200 l 1
 927 -200 l 1
518 -171 m 1
 489 -200 l 1
 455 -200 l 1
 483 -171 l 1
 518 -171 l 1
880 225 m 1
 1000 345 l 1
 1000 311 l 1
 842 153 l 1
 880 225 l 1
406 -164 m 1
 371 -200 l 1
 337 -200 l 1
 377 -160 l 1
 406 -164 l 1
306 -147 m 1
 253 -200 l 1
 219 -200 l 1
 276 -143 l 1
 306 -147 l 1
214 -121 m 1
 135 -200 l 1
 101 -200 l 1
 197 -104 l 1
 214 -121 l 1
192 93 m 1
 0 -99 l 1
 0 -65 l 1
 182 117 l 1
 192 93 l 1
647 548 m 1
 588 489 l 1
 578 513 l 1
 628 563 l 1
 631.333333333 561 634.833333333 558.5 638.5 555.5 c 128
 642.166666667 552.5 645 550 647 548 c 1
760 694 m 1
 865 800 l 1
 899 800 l 1
 777 677 l 1
 760 694 l 1
802 619 m 1
 983 800 l 1
 1000 800 l 1
 1000 783 l 1
 795 578 l 1
 802 619 l 1
805 470 m 1
 750 415 l 1
 749 448 l 1
 798 497 l 1
 799.333333333 493.666666667 800.666666667 490.666666667 802 488 c 0
 802.666666667 482 803.666666667 476 805 470 c 1
905 604 m 1
 1000 699 l 1
 1000 665 l 1
 930 595 l 1
 905 604 l 1
968 550 m 1
 1000 581 l 1
 1000 547 l 1
 975 522 l 1
 968 550 l 1
900 363 m 1
 1000 463 l 1
 1000 429 l 1
 896 325 l 1
 900 363 l 1
174 -43 m 1
 17 -200 l 1
 0 -200 l 1
 0 -183 l 1
 202 19 l 1
 174 -43 l 1
147 166 m 1
 0 19 l 1
 0 53 l 1
 133 186 l 1
 147 166 l 1
620 638 m 1
 599 618 l 1
 599 625 599 625 599 631.5 c 128
 599 635.833333333 599.333333333 643 600 653 c 1
 747 800 l 1
 781 800 l 1
 683 702 l 2
 680 701 680 701 663.5 695.5 c 128
 652.5 691.833333333 643.166666667 686.166666667 635.5 678.5 c 128
 627.833333333 670.833333333 622.666666667 657.333333333 620 638 c 1
99 354 m 1
 0 255 l 1
 0 289 l 1
 96 385 l 1
 99 354 l 1
246 501 m 1
 180 434 l 1
 198 487 l 1
 238 527 l 1
 246 501 l 1
297 705 m 1
 393 800 l 1
 427 800 l 1
 325 698 l 1
 297 705 l 1
434 571 m 1
 359 496 l 1
 345 516 l 1
 416 587 l 1
 416.666666667 585 418.5 582.5 421.5 579.5 c 128
 424.5 576.5 428.666666667 573.666666667 434 571 c 1
552 723 m 1
 629 800 l 1
 663 800 l 1
 572 709 l 1
 552 723 l 1
423 712 m 1
 511 800 l 1
 545 800 l 1
 479 735 l 1
 423 712 l 1
394 649 m 1
 380 634 l 1
 371 660 l 1
 411 700 l 1
 394 649 l 1
21 512 m 1
 0 491 l 1
 0 525 l 1
 32 556 l 1
 21 512 l 1
203 576 m 1
 188 561 l 1
 190 558.333333333 191.333333333 556.166666667 192 554.5 c 128
 192.666666667 552.833333333 186.666666667 561.666666667 174 581 c 1
 196 603 l 1
 197 603 l 1
 199 593.666666667 201 584.666666667 203 576 c 1
73 598 m 1
 275 800 l 1
 309 800 l 1
 115 606 l 1
 73 598 l 1
67 440 m 1
 0 373 l 1
 0 407 l 1
 47 454 l 1
 67 440 l 1
113 250 m 1
 0 137 l 1
 0 171 l 1
 109 280 l 1
 113 250 l 1
794 21 m 1
 1000 227 l 1
 1000 193 l 1
 802 -4 l 1
 794 21 l 1
653 -154 m 1
 607 -200 l 1
 573 -200 l 1
 612 -161 l 1
 653 -154 l 1
565 666 m 0
 569 656 571 646.333333333 571 637 c 0
 571 626.333333333 568 617 562 609 c 1
 550 600 550 600 538 591 c 0
 535.333333333 586.333333333 534 580.333333333 534 573 c 0
 534 561.666666667 539.5 538.166666667 550.5 502.5 c 128
 561.5 466.833333333 567.666666667 445.666666667 569 439 c 128
 570.333333333 432.333333333 571.833333333 405 573.5 357 c 128
 575.166666667 309 578.666666667 285 584 285 c 0
 586 285 590.5 291.833333333 597.5 305.5 c 128
 604.5 319.166666667 612.333333333 343.333333333 621 378 c 128
 629.666666667 412.666666667 635.666666667 434.833333333 639 444.5 c 128
 642.333333333 454.166666667 650.5 468.5 663.5 487.5 c 128
 676.5 506.5 683 521.666666667 683 533 c 0
 683 539.666666667 682 545.5 680 550.5 c 128
 678 555.5 673.666666667 561 667 567 c 128
 660.333333333 573 655.333333333 580.166666667 652 588.5 c 128
 648.666666667 596.833333333 647 606 647 616 c 0
 647 626.666666667 651.166666667 639.166666667 659.5 653.5 c 128
 667.833333333 667.833333333 684.333333333 675 709 675 c 0
 733 675 749.5 667.5 758.5 652.5 c 128
 767.5 637.5 772 624.666666667 772 614 c 0
 772 607.333333333 771.5 602.166666667 770.5 598.5 c 128
 769.5 594.833333333 767.5 589.333333333 764.5 582 c 128
 761.5 574.666666667 755.833333333 568.5 747.5 563.5 c 128
 739.166666667 558.5 733 550.833333333 729 540.5 c 128
 725 530.166666667 722.166666667 520.833333333 720.5 512.5 c 128
 718.833333333 504.166666667 718 493.666666667 718 481 c 0
 718 469 718 469 718 456 c 128
 718 447.333333333 718.333333333 438.333333333 719 429 c 0
 719 408.333333333 718.666666667 388.333333333 718 369 c 128
 717.333333333 349.666666667 716.666666667 331 716 313 c 0
 716 281 719.333333333 265 726 265 c 0
 730 265 735.5 270 742.5 280 c 128
 749.5 290 757.833333333 305.5 767.5 326.5 c 128
 777.166666667 347.5 784.333333333 361.833333333 789 369.5 c 128
 793.666666667 377.166666667 805.833333333 391.333333333 825.5 412 c 128
 845.166666667 432.666666667 854.333333333 445.333333333 853 450 c 0
 851.666666667 455.333333333 848.166666667 461.333333333 842.5 468 c 128
 836.833333333 474.666666667 833.166666667 480.5 831.5 485.5 c 128
 829.833333333 490.5 828.5 495.5 827.5 500.5 c 128
 826.5 505.5 826 510.333333333 826 515 c 0
 826 524.333333333 830.333333333 536.833333333 839 552.5 c 128
 847.666666667 568.166666667 863.333333333 576 886 576 c 256
 908.666666667 576 924.333333333 568.5 933 553.5 c 128
 941.666666667 538.5 946 526 946 516 c 0
 946 505.333333333 943.833333333 495.666666667 939.5 487 c 128
 935.166666667 478.333333333 927.333333333 470.166666667 916 462.5 c 128
 904.666666667 454.833333333 896.166666667 447.666666667 890.5 441 c 128
 884.833333333 434.333333333 880.333333333 423 877 407 c 0
 873 379 868.833333333 350.833333333 864.5 322.5 c 128
 860.166666667 294.166666667 856.833333333 270.666666667 854.5 252 c 128
 852.166666667 233.333333333 845.666666667 215.333333333 835 198 c 0
 815.666666667 171.333333333 800.833333333 150.333333333 790.5 135 c 128
 780.166666667 119.666666667 773.666666667 104.666666667 771 90 c 128
 768.333333333 75.3333333333 766.333333333 64 765 56 c 128
 763.666666667 48 763 40.6666666667 763 34 c 0
 763 23.3333333333 764.333333333 13.5 767 4.5 c 128
 769.666666667 -4.5 774.666666667 -13.1666666667 782 -21.5 c 128
 789.333333333 -29.8333333333 793 -37.6666666667 793 -45 c 0
 793 -56.3333333333 790.666666667 -65.1666666667 786 -71.5 c 128
 781.333333333 -77.8333333333 774.666666667 -85.8333333333 766 -95.5 c 128
 757.333333333 -105.166666667 744 -111.166666667 726 -113.5 c 128
 708 -115.833333333 690.333333333 -118 673 -120 c 0
 607 -134 549 -141 499 -141 c 0
 449.666666667 -141 391.333333333 -134 324 -120 c 0
 300 -117.333333333 280.666666667 -115 266 -113 c 128
 251.333333333 -111 239.333333333 -104.833333333 230 -94.5 c 128
 220.666666667 -84.1666666667 214 -75.6666666667 210 -69 c 128
 206 -62.3333333333 204 -54.3333333333 204 -45 c 0
 204 -39 208 -30.6666666667 216 -20 c 128
 224 -9.33333333333 229 -0.333333333333 231 7 c 128
 233 14.3333333333 234 23.3333333333 234 34 c 0
 234 40 233.333333333 47.6666666667 232 57 c 128
 230.666666667 66.3333333333 228.666666667 77.8333333333 226 91.5 c 128
 223.333333333 105.166666667 215.333333333 121.5 202 140.5 c 128
 188.666666667 159.5 176 178.166666667 164 196.5 c 128
 152 214.833333333 144.333333333 235.166666667 141 257.5 c 128
 137.666666667 279.833333333 134.166666667 304.333333333 130.5 331 c 128
 126.833333333 357.666666667 123.833333333 380.333333333 121.5 399 c 128
 119.166666667 417.666666667 114 431.833333333 106 441.5 c 128
 98 451.166666667 89 459 79 465 c 128
 69 471 61.8333333333 478.333333333 57.5 487 c 128
 53.1666666667 495.666666667 51 505.333333333 51 516 c 0
 51 526 55.3333333333 538.5 64 553.5 c 128
 72.6666666667 568.5 88.3333333333 576 111 576 c 256
 133.666666667 576 148.5 570 155.5 558 c 128
 162.5 546 166.833333333 537.5 168.5 532.5 c 128
 170.166666667 527.5 171 521.666666667 171 515 c 0
 171 505 169 494.333333333 165 483 c 1
 157.666666667 471.666666667 150.666666667 460.666666667 144 450 c 0
 143.333333333 446 153.5 431.833333333 174.5 407.5 c 128
 195.5 383.166666667 210.333333333 362.666666667 219 346 c 128
 227.666666667 329.333333333 239.666666667 307 255 279 c 0
 261.666666667 269.666666667 267 265 271 265 c 0
 277.666666667 265 281 281 281 313 c 0
 281 339 280.666666667 361 280 379 c 128
 279.333333333 397 278.666666667 413.666666667 278 429 c 0
 278 443 278 443 278 456 c 128
 278 464.666666667 278.333333333 473 279 481 c 0
 279 493 278.333333333 503.166666667 277 511.5 c 128
 275.666666667 519.833333333 272.666666667 529.5 268 540.5 c 128
 263.333333333 551.5 257 559.5 249 564.5 c 128
 241 569.5 236 574.333333333 234 579 c 128
 232 583.666666667 230 589.666666667 228 597 c 128
 226 604.333333333 225 610.333333333 225 615 c 0
 225 625 229.5 637.5 238.5 652.5 c 128
 247.5 667.5 264 675 288 675 c 0
 312.666666667 675 329.166666667 667.833333333 337.5 653.5 c 128
 345.833333333 639.166666667 350 626.333333333 350 615 c 0
 350 605.666666667 348.333333333 596.833333333 345 588.5 c 128
 341.666666667 580.166666667 336.5 572.5 329.5 565.5 c 128
 322.5 558.5 318.166666667 553 316.5 549 c 128
 314.833333333 545 314 539.333333333 314 532 c 0
 314 522 320.333333333 507.833333333 333 489.5 c 128
 345.666666667 471.166666667 356.833333333 446.666666667 366.5 416 c 128
 376.166666667 385.333333333 389 344.666666667 405 294 c 0
 408.333333333 288 411 285 413 285 c 0
 417 285 419.5 309 420.5 357 c 128
 421.5 405 423.333333333 436 426 450 c 128
 428.666666667 464 435.333333333 485.666666667 446 515 c 128
 456.666666667 544.333333333 462 564.333333333 462 575 c 0
 462 580.333333333 461.333333333 584.833333333 460 588.5 c 128
 458.666666667 592.166666667 454.666666667 595.833333333 448 599.5 c 128
 441.333333333 603.166666667 436 607.666666667 432 613 c 128
 428 618.333333333 426 626.666666667 426 638 c 0
 426 646.666666667 428.333333333 656.666666667 433 668 c 128
 437.666666667 679.333333333 446 688.333333333 458 695 c 128
 470 701.666666667 483.333333333 705 498 705 c 0
 514 705 527.833333333 701.833333333 539.5 695.5 c 128
 551.166666667 689.166666667 559.666666667 679.333333333 565 666 c 0
634 250 m 0
 645.333333333 250 654.166666667 248.833333333 660.5 246.5 c 128
 666.833333333 244.166666667 674 241.333333333 682 238 c 0
 690.666666667 234.666666667 695 238.666666667 695 250 c 0
 695 256.666666667 693.5 268.5 690.5 285.5 c 128
 687.5 302.5 686 313.333333333 686 318 c 0
 686 332.666666667 686.833333333 355 688.5 385 c 128
 690.166666667 415 691 431.333333333 691 434 c 0
 691 452 689.333333333 461 686 461 c 0
 684 461 680 456.666666667 674 448 c 128
 668 439.333333333 662.833333333 422.666666667 658.5 398 c 128
 654.166666667 373.333333333 651 358.166666667 649 352.5 c 128
 647 346.833333333 640.833333333 333 630.5 311 c 128
 620.166666667 289 615 274 615 266 c 0
 615 255.333333333 621.333333333 250 634 250 c 0
84 529 m 0
 80.6666666667 523.666666667 79 517.333333333 79 510 c 0
 79 507.333333333 79.3333333333 505 80 503 c 0
 82 501 84.5 498 87.5 494 c 128
 90.5 490 98 488 110 488 c 0
 116 488 121.333333333 488.666666667 126 490 c 128
 130.666666667 491.333333333 134.333333333 494 137 498 c 128
 139.666666667 502 141 506.666666667 141 512 c 0
 141 518 139.666666667 523 137 527 c 128
 134.333333333 531 130.5 533.833333333 125.5 535.5 c 128
 118 538 118 538 112 540 c 0
 103.333333333 539.333333333 97.3333333333 538.5 94 537.5 c 128
 90.6666666667 536.5 87.3333333333 533.666666667 84 529 c 0
261 629 m 0
 257.666666667 623.666666667 256 617.333333333 256 610 c 0
 256 607.333333333 256.333333333 605 257 603 c 0
 259 601 261.5 598 264.5 594 c 128
 267.5 590 275 588 287 588 c 0
 293 588 298.333333333 588.666666667 303 590 c 128
 307.666666667 591.333333333 311.333333333 594 314 598 c 128
 316.666666667 602 318 606.666666667 318 612 c 0
 318 618 316.666666667 623 314 627 c 128
 311.333333333 631 307.5 633.833333333 302.5 635.5 c 128
 295 638 295 638 289 640 c 0
 280.333333333 639.333333333 274.333333333 638.5 271 637.5 c 128
 267.666666667 636.5 264.333333333 633.666666667 261 629 c 0
471 655 m 0
 467.666666667 649.666666667 466 643 466 635 c 0
 466 631 468.333333333 625.833333333 473 619.5 c 128
 477.666666667 613.166666667 486.666666667 610 500 610 c 0
 508 610 514 610.833333333 518 612.5 c 128
 522 614.166666667 525.666666667 617.166666667 529 621.5 c 128
 532.333333333 625.833333333 534 630.666666667 534 636 c 0
 534 643.333333333 532.5 649.166666667 529.5 653.5 c 128
 526.5 657.833333333 521.333333333 661.166666667 514 663.5 c 128
 506.666666667 665.833333333 502.666666667 667.333333333 502 668 c 0
 491.333333333 666 484.5 664.5 481.5 663.5 c 128
 478.5 662.5 475 659.666666667 471 655 c 0
684 627 m 0
 680.666666667 621.666666667 679 615.333333333 679 608 c 0
 679 605.333333333 679.333333333 603 680 601 c 0
 682 599 684.5 596 687.5 592 c 128
 690.5 588 698 586 710 586 c 0
 716 586 721.333333333 586.666666667 726 588 c 128
 730.666666667 589.333333333 734.333333333 592 737 596 c 128
 739.666666667 600 741 604.666666667 741 610 c 0
 741 616 739.666666667 621 737 625 c 128
 734.333333333 629 730.5 631.833333333 725.5 633.5 c 128
 718 636 718 636 712 638 c 0
 703.333333333 637.333333333 697.333333333 636.5 694 635.5 c 128
 690.666666667 634.5 687.333333333 631.666666667 684 627 c 0
862 529 m 0
 858.666666667 523.666666667 857 517.333333333 857 510 c 0
 857 507.333333333 857.333333333 505 858 503 c 0
 860 501 862.5 498 865.5 494 c 128
 868.5 490 876 488 888 488 c 0
 894 488 899.333333333 488.666666667 904 490 c 128
 908.666666667 491.333333333 912.333333333 494 915 498 c 128
 917.666666667 502 919 506.666666667 919 512 c 0
 919 518 917.666666667 523 915 527 c 128
 912.333333333 531 908.5 533.833333333 903.5 535.5 c 128
 896 538 896 538 890 540 c 0
 881.333333333 539.333333333 875.333333333 538.5 872 537.5 c 128
 868.666666667 536.5 865.333333333 533.666666667 862 529 c 0
363 221 m 0
 327 211.666666667 296.5 202.166666667 271.5 192.5 c 128
 246.5 182.833333333 234 171.666666667 234 159 c 0
 234 154.333333333 235.333333333 150.666666667 238 148 c 128
 240.666666667 145.333333333 244 139.333333333 248 130 c 128
 252 120.666666667 256 116 260 116 c 0
 267.333333333 116 276.166666667 119 286.5 125 c 128
 296.833333333 131 310.166666667 135.833333333 326.5 139.5 c 128
 342.833333333 143.166666667 366.333333333 146.166666667 397 148.5 c 128
 427.666666667 150.833333333 461.666666667 152 499 152 c 0
 543 152 576.666666667 151.166666667 600 149.5 c 128
 623.333333333 147.833333333 644.666666667 144.833333333 664 140.5 c 128
 683.333333333 136.166666667 698.166666667 131 708.5 125 c 128
 718.833333333 119 727.666666667 116 735 116 c 0
 737.666666667 116 740.666666667 119 744 125 c 128
 747.333333333 131 751 138 755 146 c 0
 759 150 761 154.333333333 761 159 c 0
 761 174.333333333 746.166666667 187 716.5 197 c 128
 686.833333333 207 660 214.833333333 636 220.5 c 128
 612 226.166666667 588.833333333 230 566.5 232 c 128
 544.166666667 234 522 236 500 238 c 1
 466.666666667 235.333333333 440.833333333 233.166666667 422.5 231.5 c 128
 404.166666667 229.833333333 384.333333333 226.333333333 363 221 c 0
638 62 m 2
 722 49 l 2
 724 50 724 50 726 51 c 0
 724 58.3333333333 724.333333333 63.8333333333 727 67.5 c 128
 729.666666667 71.1666666667 731 74.6666666667 731 78 c 0
 731 86.6666666667 724.166666667 92.5 710.5 95.5 c 128
 696.833333333 98.5 676.5 101.833333333 649.5 105.5 c 128
 622.5 109.166666667 599.5 111.333333333 580.5 112 c 128
 561.5 112.666666667 551 113 549 113 c 2
 498 113 l 2
 467.333333333 113 444.166666667 112.666666667 428.5 112 c 128
 412.833333333 111.333333333 389.666666667 108.666666667 359 104 c 128
 328.333333333 99.3333333333 305.833333333 95.3333333333 291.5 92 c 128
 277.166666667 88.6666666667 270 83 270 75 c 0
 270 71.6666666667 271.5 68.1666666667 274.5 64.5 c 128
 277.5 60.8333333333 278 56.6666666667 276 52 c 0
 277 49 277 49 278 46 c 0
 286.666666667 46 298.5 47.3333333333 313.5 50 c 128
 328.5 52.6666666667 345 56 363 60 c 0
 380.333333333 62.6666666667 397.833333333 64.6666666667 415.5 66 c 128
 433.166666667 67.3333333333 448 68 460 68 c 2
 500 68 l 2
 518 68 518 68 533.5 68 c 128
 543.833333333 68 553.333333333 68.3333333333 562 69 c 0
 574.666666667 69 585.5 68.6666666667 594.5 68 c 128
 603.5 67.3333333333 618 65.3333333333 638 62 c 2
637 5 m 2
 738 -10 l 1
 738 -8 738 -8 738 -6 c 0
 729.333333333 1.33333333333 726 6 728 8 c 0
 731.333333333 11.3333333333 733 14 733 16 c 0
 733 22.6666666667 725.166666667 27.5 709.5 30.5 c 128
 693.833333333 33.5 671.333333333 37 642 41 c 128
 612.666666667 45 588 47 568 47 c 0
 554.666666667 47 542.333333333 46.8333333333 531 46.5 c 128
 519.666666667 46.1666666667 509.333333333 46 500 46 c 256
 486 46 486 46 473 46 c 128
 464.333333333 46 456 46.3333333333 448 47 c 0
 422.666666667 47 401.666666667 45 385 41 c 128
 368.333333333 37 344.333333333 33.3333333333 313 30 c 128
 281.666666667 26.6666666667 266 21.3333333333 266 14 c 0
 266 10.6666666667 267.666666667 7.33333333333 271 4 c 0
 273 2 271.833333333 -1 267.5 -5 c 128
 263.166666667 -9 261 -11.6666666667 261 -13 c 1
 269.666666667 -12.3333333333 289.166666667 -9 319.5 -3 c 128
 349.833333333 3 371.166666667 6.83333333333 383.5 8.5 c 128
 395.833333333 10.1666666667 407.833333333 11.3333333333 419.5 12 c 128
 431.166666667 12.6666666667 445 13 461 13 c 2
 500 13 l 2
 527 13 527 13 553.5 13 c 128
 571.166666667 13 599 10.3333333333 637 5 c 2
230 262 m 0
 216 290 202.666666667 315.833333333 190 339.5 c 128
 177.333333333 363.166666667 168 375 162 375 c 0
 158.666666667 375 156.666666667 373.333333333 156 370 c 128
 155.333333333 366.666666667 155 362.666666667 155 358 c 0
 155 347.333333333 159.5 325.166666667 168.5 291.5 c 128
 177.5 257.833333333 182.5 238 183.5 232 c 128
 184.5 226 187.666666667 218.166666667 193 208.5 c 128
 198.333333333 198.833333333 204.666666667 194 212 194 c 0
 213.333333333 194 216.5 195.166666667 221.5 197.5 c 128
 226.5 199.833333333 231.333333333 203 236 207 c 128
 240.666666667 211 245.333333333 214.333333333 250 217 c 128
 254.666666667 219.666666667 257 222.666666667 257 226 c 0
 257 230 252.833333333 236.5 244.5 245.5 c 128
 236.166666667 254.5 231.333333333 260 230 262 c 0
747 -58 m 1
 743.666666667 -54 740.666666667 -50.3333333333 738 -47 c 0
 710 -37.6666666667 682.333333333 -33 655 -33 c 0
 630.333333333 -33 600 -32 564 -30 c 128
 528 -28 507 -27 501 -27 c 0
 472.333333333 -27 447 -27.5 425 -28.5 c 128
 403 -29.5 376.666666667 -31 346 -33 c 0
 318.666666667 -33 292 -37.3333333333 266 -46 c 0
 260 -52 260 -52 254 -58 c 1
 284.666666667 -69.3333333333 319.666666667 -76.8333333333 359 -80.5 c 128
 398.333333333 -84.1666666667 445.666666667 -86 501 -86 c 0
 555.666666667 -86 602.333333333 -84.1666666667 641 -80.5 c 128
 679.666666667 -76.8333333333 715 -69.3333333333 747 -58 c 1
352 350 m 0
 349.333333333 357.333333333 345.833333333 373.333333333 341.5 398 c 128
 337.166666667 422.666666667 330 442 320 456 c 0
 316.666666667 460 314 461.166666667 312 459.5 c 128
 310 457.833333333 309 449 309 433 c 0
 309 417.666666667 309.833333333 395.333333333 311.5 366 c 128
 313.166666667 336.666666667 314 320.666666667 314 318 c 0
 314 310 312.5 297.666666667 309.5 281 c 128
 306.5 264.333333333 305 254 305 250 c 0
 305 238.666666667 309.333333333 234.666666667 318 238 c 0
 325.333333333 241.333333333 332 244.166666667 338 246.5 c 128
 344 248.833333333 353.333333333 250 366 250 c 256
 378.666666667 250 385 255.333333333 385 266 c 0
 385 274 379.833333333 289 369.5 311 c 128
 359.166666667 333 353.333333333 346 352 350 c 0
746 216 m 0
 752 212.666666667 757.5 209 762.5 205 c 128
 767.5 201 772.666666667 197.333333333 778 194 c 0
 787.333333333 189.333333333 795.5 192.166666667 802.5 202.5 c 128
 809.5 212.833333333 813.666666667 223 815 233 c 128
 816.333333333 243 821.333333333 263.333333333 830 294 c 128
 838.666666667 324.666666667 843 345.333333333 843 356 c 0
 843 360.666666667 842.666666667 364.666666667 842 368 c 128
 841.333333333 371.333333333 839.333333333 373 836 373 c 0
 828.666666667 373 816.333333333 355.666666667 799 321 c 128
 781.666666667 286.333333333 771.333333333 266 768 260 c 0
 760 252 753.5 245.166666667 748.5 239.5 c 128
 743.5 233.833333333 741 228.666666667 741 224 c 0
 741 220.666666667 742.666666667 218 746 216 c 0
545 370 m 0
 545.666666667 381.333333333 546 389.333333333 546 394 c 0
 546 408.666666667 544.666666667 422.666666667 542 436 c 128
 539.333333333 449.333333333 535.333333333 464 530 480 c 128
 524.666666667 496 514 504 498 504 c 0
 490 504 483.666666667 502 479 498 c 128
 474.333333333 494 469.333333333 485.833333333 464 473.5 c 128
 458.666666667 461.166666667 455.166666667 448.333333333 453.5 435 c 128
 451.833333333 421.666666667 451 402 451 376 c 0
 451 365.333333333 448.5 348.166666667 443.5 324.5 c 128
 438.5 300.833333333 436 287 436 283 c 0
 436 267 443 260.333333333 457 263 c 0
 459 263.666666667 463.666666667 264.666666667 471 266 c 128
 478.333333333 267.333333333 484.333333333 268 489 268 c 0
 491 268 497.333333333 267.166666667 508 265.5 c 128
 518.666666667 263.833333333 528.666666667 263 538 263 c 0
 550 263 556 269.666666667 556 283 c 0
 556 291 554.166666667 306.166666667 550.5 328.5 c 128
 546.833333333 350.833333333 545 364.666666667 545 370 c 0
EndSplineSet
EndChar

StartChar: r
Encoding: 114 114 12
Width: 1000
Flags: HW
LayerCount: 2
Fore
SplineSet
0 761 m 1
 39 800 l 1
 73 800 l 1
 0 727 l 1
 0 761 l 1
0 643 m 1
 157 800 l 1
 191 800 l 1
 0 609 l 1
 0 643 l 1
809 -200 m 1
 1000 -9 l 1
 1000 -43 l 1
 843 -200 l 1
 809 -200 l 1
927 -200 m 1
 1000 -127 l 1
 1000 -161 l 1
 961 -200 l 1
 927 -200 l 1
442 -129 m 1
 371 -200 l 1
 337 -200 l 1
 408 -129 l 1
 442 -129 l 1
324 -129 m 1
 253 -200 l 1
 219 -200 l 1
 290 -129 l 1
 324 -129 l 1
144 -73 m 1
 17 -200 l 1
 0 -200 l 1
 0 -183 l 1
 144 -39 l 1
 144 -73 l 1
206 -129 m 1
 135 -200 l 1
 101 -200 l 1
 172 -129 l 1
 206 -129 l 1
219 120 m 1
 156 57 l 1
 144 57 l 1
 144 45 l 1
 0 -99 l 1
 0 -65 l 1
 294 229 l 1
 219 120 l 1
723 186 m 1
 1000 463 l 1
 1000 429 l 1
 740 170 l 1
 723 186 l 1
560 -129 m 1
 489 -200 l 1
 455 -200 l 1
 526 -129 l 1
 560 -129 l 1
678 -129 m 1
 607 -200 l 1
 573 -200 l 1
 644 -129 l 1
 678 -129 l 1
294 313 m 1
 0 19 l 1
 0 53 l 1
 294 347 l 1
 294 313 l 1
279 416 m 1
 0 137 l 1
 0 171 l 1
 262 433 l 1
 279 416 l 1
703 284 m 1
 1000 581 l 1
 1000 547 l 1
 703 250 l 1
 703 284 l 1
534 705 m 1
 629 800 l 1
 663 800 l 1
 568 705 l 1
 534 705 l 1
799 498 m 1
 1000 699 l 1
 1000 665 l 1
 703 368 l 1
 799 498 l 1
799 616 m 1
 983 800 l 1
 1000 800 l 1
 1000 783 l 1
 799 582 l 1
 799 616 l 1
770 705 m 1
 865 800 l 1
 899 800 l 1
 799 700 l 1
 770 705 l 1
416 705 m 1
 511 800 l 1
 545 800 l 1
 450 705 l 1
 416 705 l 1
652 705 m 1
 747 800 l 1
 781 800 l 1
 686 705 l 1
 652 705 l 1
219 474 m 1
 0 255 l 1
 0 289 l 1
 201 490 l 1
 219 474 l 1
830 57 m 1
 1000 227 l 1
 1000 193 l 1
 853 46 l 1
 830 57 l 1
778 123 m 1
 1000 345 l 1
 1000 311 l 1
 778 89 l 1
 778 123 l 1
796 -129 m 1
 725 -200 l 1
 691 -200 l 1
 762 -129 l 1
 796 -129 l 1
853 -38 m 1
 1000 109 l 1
 1000 75 l 1
 853 -72 l 1
 853 -38 l 1
298 705 m 1
 393 800 l 1
 427 800 l 1
 332 705 l 1
 298 705 l 1
198 571 m 1
 0 373 l 1
 0 407 l 1
 198 605 l 1
 198 571 l 1
198 705 m 1
 198 689 l 1
 0 491 l 1
 0 525 l 1
 275 800 l 1
 309 800 l 1
 214 705 l 1
 198 705 l 1
592 627 m 1
 649 627 l 1
 649 675 l 1
 769 675 l 1
 769 507 l 1
 673 414 l 1
 673 195 l 1
 748 120 l 1
 748 27 l 1
 823 27 l 1
 823 -99 l 1
 174 -99 l 1
 174 27 l 1
 249 27 l 1
 249 120 l 1
 324 195 l 1
 324 414 l 1
 228 507 l 1
 228 675 l 1
 348 675 l 1
 348 627 l 1
 402 627 l 1
 402 675 l 1
 591 675 l 1
 592 627 l 1
774 -18 m 1
 222 -18 l 1
 222 -60 l 1
 774 -60 l 1
 774 -18 l 1
702 84 m 1
 294 84 l 1
 294 27 l 1
 702 27 l 1
 702 84 l 1
627 396 m 1
 372 396 l 1
 372 219 l 1
 627 219 l 1
 627 396 l 1
723 540 m 1
 723 630 l 1
 690 630 l 1
 690 585 l 1
 552 585 l 1
 552 630 l 1
 441 630 l 1
 441 585 l 1
 308 585 l 1
 308 630 l 1
 273 630 l 1
 273 540 l 1
 723 540 l 1
699 120 m 1
 636 180 l 1
 360 180 l 1
 297 120 l 1
 699 120 l 1
639 435 m 1
 708 504 l 1
 288 504 l 1
 354 435 l 1
 639 435 l 1
EndSplineSet
EndChar

StartChar: uni0426
Encoding: 198 1062 13
Width: 1000
Flags: HW
LayerCount: 2
Fore
SplineSet
476 168 m 1
 476 277 l 1
 476 276 l 1
 468.666666667 305.333333333 459.666666667 327 449 341 c 1
 436.333333333 352.333333333 426.833333333 362 420.5 370 c 128
 414.166666667 378 408.166666667 384.166666667 402.5 388.5 c 128
 396.833333333 392.833333333 385 400.666666667 367 412 c 128
 349 423.333333333 334.166666667 431.833333333 322.5 437.5 c 128
 310.833333333 443.166666667 296.666666667 446 280 446 c 0
 257.333333333 446 240.833333333 445 230.5 443 c 128
 220.166666667 441 205.833333333 433.833333333 187.5 421.5 c 128
 169.166666667 409.166666667 157.166666667 393.666666667 151.5 375 c 128
 145.833333333 356.333333333 143 340.666666667 143 328 c 0
 143 317.333333333 144.166666667 307 146.5 297 c 128
 148.833333333 287 151.333333333 276.333333333 154 265 c 128
 156.666666667 253.666666667 160.166666667 243.333333333 164.5 234 c 128
 168.833333333 224.666666667 175.833333333 212.166666667 185.5 196.5 c 128
 195.166666667 180.833333333 204.333333333 168 213 158 c 128
 221.666666667 148 231.333333333 138 242 128 c 1
 256.666666667 133.333333333 274 138.666666667 294 144 c 128
 314 149.333333333 336 154 360 158 c 128
 384 162 403.166666667 164.666666667 417.5 166 c 128
 431.833333333 167.333333333 451.333333333 168 476 168 c 1
658 156 m 0
 667.333333333 154.666666667 683 151.166666667 705 145.5 c 128
 727 139.833333333 745.333333333 134 760 128 c 1
 772.666666667 140 782.166666667 149.666666667 788.5 157 c 128
 794.833333333 164.333333333 803.833333333 177.166666667 815.5 195.5 c 128
 827.166666667 213.833333333 835.166666667 228 839.5 238 c 128
 843.833333333 248 847.166666667 258.333333333 849.5 269 c 128
 851.833333333 279.666666667 854 290.666666667 856 302 c 128
 858 313.333333333 859 322.333333333 859 329 c 0
 859 341 856.166666667 356.333333333 850.5 375 c 128
 844.833333333 393.666666667 833.166666667 409 815.5 421 c 128
 797.833333333 433 782.666666667 440.166666667 770 442.5 c 128
 757.333333333 444.833333333 741.333333333 446 722 446 c 0
 704.666666667 446 690.833333333 443.5 680.5 438.5 c 128
 670.166666667 433.5 656.166666667 425.5 638.5 414.5 c 128
 620.833333333 403.5 608.166666667 394.833333333 600.5 388.5 c 128
 592.833333333 382.166666667 584.5 373.833333333 575.5 363.5 c 128
 566.5 353.166666667 557 342.333333333 547 331 c 0
 538.333333333 317 531.333333333 298.666666667 526 276 c 1
 526 277 l 1
 526 168 l 1
 550 168 569.833333333 167.166666667 585.5 165.5 c 128
 601.166666667 163.833333333 625.333333333 160.666666667 658 156 c 0
622 46 m 0
 630.666666667 45.3333333333 647.333333333 42.3333333333 672 37 c 128
 696.666666667 31.6666666667 709.333333333 29 710 29 c 0
 712.666666667 29 713.5 31.1666666667 712.5 35.5 c 128
 711.5 39.8333333333 712 43 714 45 c 1
 710.666666667 51 707.666666667 57.3333333333 705 64 c 1
 698.333333333 66.6666666667 677.666666667 70.6666666667 643 76 c 128
 608.333333333 81.3333333333 579.666666667 84 557 84 c 128
 534.333333333 84 515.666666667 84.6666666667 501 86 c 0
 443 83 443 83 385 80 c 1
 343 74 315.333333333 69.6666666667 302 67 c 128
 288.666666667 64.3333333333 282 59.3333333333 282 52 c 0
 282 51.3333333333 283.166666667 49.5 285.5 46.5 c 128
 287.833333333 43.5 288.333333333 39.8333333333 287 35.5 c 128
 285.666666667 31.1666666667 286.666666667 29 290 29 c 0
 298.666666667 29.6666666667 315.333333333 32.6666666667 340 38 c 128
 364.666666667 43.3333333333 384.333333333 46.8333333333 399 48.5 c 128
 413.666666667 50.1666666667 429.333333333 51 446 51 c 0
 453.333333333 51 461.666666667 50.8333333333 471 50.5 c 128
 480.333333333 50.1666666667 490.666666667 50 502 50 c 256
 519 50 519 50 534 50 c 128
 544 50 553.333333333 50.3333333333 562 51 c 0
 570.666666667 51 580.333333333 50.3333333333 591 49 c 128
 601.666666667 47.6666666667 612 46.6666666667 622 46 c 0
564 412 m 0
 566 425.333333333 568 439 570 453 c 0
 570 463.666666667 567 473.833333333 561 483.5 c 128
 555 493.166666667 547 500.666666667 537 506 c 128
 527 511.333333333 515.333333333 514 502 514 c 0
 473.333333333 514 454.333333333 505.833333333 445 489.5 c 128
 435.666666667 473.166666667 431 460.333333333 431 451 c 0
 431 445.666666667 432 439.166666667 434 431.5 c 128
 436 423.833333333 437.333333333 417.333333333 438 412 c 0
 442 397.333333333 449.833333333 381.5 461.5 364.5 c 128
 473.166666667 347.5 486.333333333 329.333333333 501 310 c 1
 504.333333333 316 514.833333333 330.333333333 532.5 353 c 128
 550.166666667 375.666666667 560.666666667 395.333333333 564 412 c 0
639 -21 m 2
 648.333333333 -21 664.166666667 -23.6666666667 686.5 -29 c 128
 708.833333333 -34.3333333333 728 -39.3333333333 744 -44 c 1
 744 -41 744 -41 744 -39 c 0
 738.666666667 -33 737.833333333 -26.5 741.5 -19.5 c 128
 745.166666667 -12.5 734.666666667 -6 710 0 c 0
 674.666666667 6 648.5 10.5 631.5 13.5 c 128
 614.5 16.5 599 18.3333333333 585 19 c 128
 571 19.6666666667 555 20 537 20 c 2
 503 20 l 1
 467 20 l 2
 438.333333333 20 420.5 19.6666666667 413.5 19 c 128
 406.5 18.3333333333 392.166666667 16.1666666667 370.5 12.5 c 128
 348.833333333 8.83333333333 326 5 302 1 c 128
 278 -3 266 -9.66666666667 266 -19 c 0
 266 -19.6666666667 266.666666667 -22 268 -26 c 0
 269.333333333 -28 268.5 -31.1666666667 265.5 -35.5 c 128
 262.5 -39.8333333333 261.333333333 -42.6666666667 262 -44 c 0
 268 -42 285.5 -37.6666666667 314.5 -31 c 128
 343.5 -24.3333333333 361 -21 367 -21 c 2
 503 -19 l 1
 639 -21 l 2
526 650 m 1
 600 650 l 1
 600 600 l 1
 525 600 l 1
 525 542 l 1
 532.333333333 545.333333333 542 543.333333333 554 536 c 128
 566 528.666666667 575.5 520.833333333 582.5 512.5 c 128
 589.5 504.166666667 595 480.666666667 599 442 c 0
 601 439.333333333 603.333333333 436.666666667 606 434 c 1
 613.333333333 452.666666667 630.333333333 466.833333333 657 476.5 c 128
 683.666666667 486.166666667 708 491 730 491 c 0
 750.666666667 491 771.166666667 487.333333333 791.5 480 c 128
 811.833333333 472.666666667 826.666666667 466.333333333 836 461 c 128
 845.333333333 455.666666667 855.833333333 446.833333333 867.5 434.5 c 128
 879.166666667 422.166666667 887.833333333 406.5 893.5 387.5 c 128
 899.166666667 368.5 902 346 902 320 c 0
 902 290 894.333333333 260 879 230 c 0
 866.333333333 208 856.666666667 190.666666667 850 178 c 0
 810 126 810 126 770 74 c 0
 764 62 759.333333333 52.1666666667 756 44.5 c 128
 752.666666667 36.8333333333 751 29 751 21 c 0
 751 17 751.666666667 12.5 753 7.5 c 128
 754.333333333 2.5 762.833333333 -3.33333333333 778.5 -10 c 128
 794.166666667 -16.6666666667 802.666666667 -24.6666666667 804 -34 c 0
 806.666666667 -52.6666666667 798 -66.1666666667 778 -74.5 c 128
 758 -82.8333333333 740.666666667 -90.5 726 -97.5 c 128
 711.333333333 -104.5 694.5 -109.833333333 675.5 -113.5 c 128
 656.5 -117.166666667 632.333333333 -121.666666667 603 -127 c 128
 573.666666667 -132.333333333 540 -135 502 -135 c 256
 464 -135 429.166666667 -132 397.5 -126 c 128
 365.833333333 -120 341.666666667 -115.666666667 325 -113 c 0
 307.666666667 -109 290.833333333 -103.166666667 274.5 -95.5 c 128
 258.166666667 -87.8333333333 241.333333333 -80.3333333333 224 -73 c 0
 205.333333333 -63 197.333333333 -50 200 -34 c 0
 201.333333333 -26 210 -18 226 -10 c 128
 242 -2 250.666666667 5.33333333333 252 12 c 0
 254 22.6666666667 252.5 33.1666666667 247.5 43.5 c 128
 242.5 53.8333333333 237.333333333 64 232 74 c 0
 226 88.6666666667 212.333333333 107.666666667 191 131 c 128
 169.666666667 154.333333333 151.5 179.5 136.5 206.5 c 128
 121.5 233.5 111.666666667 254 107 268 c 128
 102.333333333 282 100 299.333333333 100 320 c 0
 100 347.333333333 102.666666667 370 108 388 c 128
 113.333333333 406 122.166666667 421.5 134.5 434.5 c 128
 146.833333333 447.5 157 456.333333333 165 461 c 128
 173 465.666666667 187.666666667 471.833333333 209 479.5 c 128
 230.333333333 487.166666667 251.666666667 491 273 491 c 0
 295.666666667 491 316.833333333 487.333333333 336.5 480 c 128
 356.166666667 472.666666667 369.833333333 465.666666667 377.5 459 c 128
 385.166666667 452.333333333 390.666666667 444 394 434 c 1
 395.333333333 436 397 438 399 440 c 0
 403.666666667 478.666666667 409.666666667 502.333333333 417 511 c 128
 424.333333333 519.666666667 433.833333333 527.833333333 445.5 535.5 c 128
 457.166666667 543.166666667 466.666666667 545.333333333 474 542 c 1
 474 600 l 1
 400 600 l 1
 400 650 l 1
 474 650 l 1
 474 723 l 1
 526 723 l 1
 526 650 l 1
445 194 m 1
 445 279 l 1
 445 278 l 1
 439.666666667 300.666666667 432.666666667 317.666666667 424 329 c 0
 414 338.333333333 405.333333333 347.5 398 356.5 c 128
 390.666666667 365.5 379.666666667 373.666666667 365 381 c 0
 351.666666667 390.333333333 339.5 397.5 328.5 402.5 c 128
 317.5 407.5 305.333333333 410 292 410 c 0
 283.333333333 410 273.333333333 409.666666667 262 409 c 128
 250.666666667 408.333333333 237.333333333 403 222 393 c 128
 206.666666667 383 196.833333333 370.333333333 192.5 355 c 128
 188.166666667 339.666666667 186 327.666666667 186 319 c 0
 186 313 186.5 307 187.5 301 c 128
 188.5 295 190.333333333 286.5 193 275.5 c 128
 195.666666667 264.5 198.833333333 255.166666667 202.5 247.5 c 128
 206.166666667 239.833333333 212.666666667 227.666666667 222 211 c 0
 228 202.333333333 234.166666667 194.333333333 240.5 187 c 128
 246.833333333 179.666666667 254.333333333 172 263 164 c 0
 265.666666667 164.666666667 276.833333333 167.5 296.5 172.5 c 128
 316.166666667 177.5 331.666666667 181.666666667 343 185 c 0
 361.666666667 187.666666667 378 189.833333333 392 191.5 c 128
 406 193.166666667 423.666666667 194 445 194 c 1
659 185 m 0
 673 181.666666667 686.666666667 178.333333333 700 175 c 128
 713.333333333 171.666666667 726.333333333 168 739 164 c 1
 745.666666667 170.666666667 752.5 177.666666667 759.5 185 c 128
 766.5 192.333333333 773.833333333 202.333333333 781.5 215 c 128
 789.166666667 227.666666667 795 238 799 246 c 128
 803 254 806.166666667 263.5 808.5 274.5 c 128
 810.833333333 285.5 812.666666667 294.166666667 814 300.5 c 128
 815.333333333 306.833333333 816 313.333333333 816 320 c 0
 816 328.666666667 813.833333333 340.5 809.5 355.5 c 128
 805.166666667 370.5 796 382.5 782 391.5 c 128
 768 400.5 756.166666667 405.833333333 746.5 407.5 c 128
 736.833333333 409.166666667 724.666666667 410 710 410 c 0
 698 410 688.166666667 408.666666667 680.5 406 c 128
 672.833333333 403.333333333 661.166666667 397.166666667 645.5 387.5 c 128
 629.833333333 377.833333333 619.666666667 371.166666667 615 367.5 c 128
 610.333333333 363.833333333 604.333333333 357.666666667 597 349 c 0
 589 342.333333333 581.833333333 334.833333333 575.5 326.5 c 128
 569.166666667 318.166666667 563 302 557 278 c 1
 557 279 l 1
 557 194 l 1
 581.666666667 194 602.333333333 192.833333333 619 190.5 c 128
 635.666666667 188.166666667 649 186.333333333 659 185 c 0
542 421 m 0
 544.666666667 434.333333333 546 443 546 447 c 0
 546 451.666666667 544.333333333 458 541 466 c 0
 537 472 531.666666667 476.166666667 525 478.5 c 128
 518.333333333 480.833333333 510.666666667 482 502 482 c 0
 491.333333333 482 483 481.166666667 477 479.5 c 128
 471 477.833333333 466 473.5 462 466.5 c 128
 458 459.5 456 452 456 444 c 256
 456 436 457.333333333 428.333333333 460 421 c 0
 462.666666667 409 469.833333333 395.666666667 481.5 381 c 128
 493.166666667 366.333333333 499.666666667 357 501 353 c 1
 503 357 509.833333333 366.333333333 521.5 381 c 128
 533.166666667 395.666666667 540 409 542 421 c 0
EndSplineSet
EndChar

StartChar: uni0424
Encoding: 196 1060 14
Width: 1000
Flags: HW
LayerCount: 2
Fore
SplineSet
565 666 m 0
 569 656 571 646.333333333 571 637 c 0
 571 626.333333333 568 617 562 609 c 1
 550 600 550 600 538 591 c 0
 535.333333333 586.333333333 534 580.333333333 534 573 c 0
 534 561.666666667 539.5 538.166666667 550.5 502.5 c 128
 561.5 466.833333333 567.666666667 445.666666667 569 439 c 128
 570.333333333 432.333333333 571.833333333 405 573.5 357 c 128
 575.166666667 309 578.666666667 285 584 285 c 0
 586 285 590.5 291.833333333 597.5 305.5 c 128
 604.5 319.166666667 612.333333333 343.333333333 621 378 c 128
 629.666666667 412.666666667 635.666666667 434.833333333 639 444.5 c 128
 642.333333333 454.166666667 650.5 468.5 663.5 487.5 c 128
 676.5 506.5 683 521.666666667 683 533 c 0
 683 539.666666667 682 545.5 680 550.5 c 128
 678 555.5 673.666666667 561 667 567 c 128
 660.333333333 573 655.333333333 580.166666667 652 588.5 c 128
 648.666666667 596.833333333 647 606 647 616 c 0
 647 626.666666667 651.166666667 639.166666667 659.5 653.5 c 128
 667.833333333 667.833333333 684.333333333 675 709 675 c 0
 733 675 749.5 667.5 758.5 652.5 c 128
 767.5 637.5 772 624.666666667 772 614 c 0
 772 607.333333333 771.5 602.166666667 770.5 598.5 c 128
 769.5 594.833333333 767.5 589.333333333 764.5 582 c 128
 761.5 574.666666667 755.833333333 568.5 747.5 563.5 c 128
 739.166666667 558.5 733 550.833333333 729 540.5 c 128
 725 530.166666667 722.166666667 520.833333333 720.5 512.5 c 128
 718.833333333 504.166666667 718 493.666666667 718 481 c 0
 718 469 718 469 718 456 c 128
 718 447.333333333 718.333333333 438.333333333 719 429 c 0
 719 408.333333333 718.666666667 388.333333333 718 369 c 128
 717.333333333 349.666666667 716.666666667 331 716 313 c 0
 716 281 719.333333333 265 726 265 c 0
 730 265 735.5 270 742.5 280 c 128
 749.5 290 757.833333333 305.5 767.5 326.5 c 128
 777.166666667 347.5 784.333333333 361.833333333 789 369.5 c 128
 793.666666667 377.166666667 805.833333333 391.333333333 825.5 412 c 128
 845.166666667 432.666666667 854.333333333 445.333333333 853 450 c 0
 851.666666667 455.333333333 848.166666667 461.333333333 842.5 468 c 128
 836.833333333 474.666666667 833.166666667 480.5 831.5 485.5 c 128
 829.833333333 490.5 828.5 495.5 827.5 500.5 c 128
 826.5 505.5 826 510.333333333 826 515 c 0
 826 524.333333333 830.333333333 536.833333333 839 552.5 c 128
 847.666666667 568.166666667 863.333333333 576 886 576 c 256
 908.666666667 576 924.333333333 568.5 933 553.5 c 128
 941.666666667 538.5 946 526 946 516 c 0
 946 505.333333333 943.833333333 495.666666667 939.5 487 c 128
 935.166666667 478.333333333 927.333333333 470.166666667 916 462.5 c 128
 904.666666667 454.833333333 896.166666667 447.666666667 890.5 441 c 128
 884.833333333 434.333333333 880.333333333 423 877 407 c 0
 873 379 868.833333333 350.833333333 864.5 322.5 c 128
 860.166666667 294.166666667 856.833333333 270.666666667 854.5 252 c 128
 852.166666667 233.333333333 845.666666667 215.333333333 835 198 c 0
 815.666666667 171.333333333 800.833333333 150.333333333 790.5 135 c 128
 780.166666667 119.666666667 773.666666667 104.666666667 771 90 c 128
 768.333333333 75.3333333333 766.333333333 64 765 56 c 128
 763.666666667 48 763 40.6666666667 763 34 c 0
 763 23.3333333333 764.333333333 13.5 767 4.5 c 128
 769.666666667 -4.5 774.666666667 -13.1666666667 782 -21.5 c 128
 789.333333333 -29.8333333333 793 -37.6666666667 793 -45 c 0
 793 -56.3333333333 790.666666667 -65.1666666667 786 -71.5 c 128
 781.333333333 -77.8333333333 774.666666667 -85.8333333333 766 -95.5 c 128
 757.333333333 -105.166666667 744 -111.166666667 726 -113.5 c 128
 708 -115.833333333 690.333333333 -118 673 -120 c 0
 607 -134 549 -141 499 -141 c 0
 449.666666667 -141 391.333333333 -134 324 -120 c 0
 300 -117.333333333 280.666666667 -115 266 -113 c 128
 251.333333333 -111 239.333333333 -104.833333333 230 -94.5 c 128
 220.666666667 -84.1666666667 214 -75.6666666667 210 -69 c 128
 206 -62.3333333333 204 -54.3333333333 204 -45 c 0
 204 -39 208 -30.6666666667 216 -20 c 128
 224 -9.33333333333 229 -0.333333333333 231 7 c 128
 233 14.3333333333 234 23.3333333333 234 34 c 0
 234 40 233.333333333 47.6666666667 232 57 c 128
 230.666666667 66.3333333333 228.666666667 77.8333333333 226 91.5 c 128
 223.333333333 105.166666667 215.333333333 121.5 202 140.5 c 128
 188.666666667 159.5 176 178.166666667 164 196.5 c 128
 152 214.833333333 144.333333333 235.166666667 141 257.5 c 128
 137.666666667 279.833333333 134.166666667 304.333333333 130.5 331 c 128
 126.833333333 357.666666667 123.833333333 380.333333333 121.5 399 c 128
 119.166666667 417.666666667 114 431.833333333 106 441.5 c 128
 98 451.166666667 89 459 79 465 c 128
 69 471 61.8333333333 478.333333333 57.5 487 c 128
 53.1666666667 495.666666667 51 505.333333333 51 516 c 0
 51 526 55.3333333333 538.5 64 553.5 c 128
 72.6666666667 568.5 88.3333333333 576 111 576 c 256
 133.666666667 576 148.5 570 155.5 558 c 128
 162.5 546 166.833333333 537.5 168.5 532.5 c 128
 170.166666667 527.5 171 521.666666667 171 515 c 0
 171 505 169 494.333333333 165 483 c 1
 157.666666667 471.666666667 150.666666667 460.666666667 144 450 c 0
 143.333333333 446 153.5 431.833333333 174.5 407.5 c 128
 195.5 383.166666667 210.333333333 362.666666667 219 346 c 128
 227.666666667 329.333333333 239.666666667 307 255 279 c 0
 261.666666667 269.666666667 267 265 271 265 c 0
 277.666666667 265 281 281 281 313 c 0
 281 339 280.666666667 361 280 379 c 128
 279.333333333 397 278.666666667 413.666666667 278 429 c 0
 278 443 278 443 278 456 c 128
 278 464.666666667 278.333333333 473 279 481 c 0
 279 493 278.333333333 503.166666667 277 511.5 c 128
 275.666666667 519.833333333 272.666666667 529.5 268 540.5 c 128
 263.333333333 551.5 257 559.5 249 564.5 c 128
 241 569.5 236 574.333333333 234 579 c 128
 232 583.666666667 230 589.666666667 228 597 c 128
 226 604.333333333 225 610.333333333 225 615 c 0
 225 625 229.5 637.5 238.5 652.5 c 128
 247.5 667.5 264 675 288 675 c 0
 312.666666667 675 329.166666667 667.833333333 337.5 653.5 c 128
 345.833333333 639.166666667 350 626.333333333 350 615 c 0
 350 605.666666667 348.333333333 596.833333333 345 588.5 c 128
 341.666666667 580.166666667 336.5 572.5 329.5 565.5 c 128
 322.5 558.5 318.166666667 553 316.5 549 c 128
 314.833333333 545 314 539.333333333 314 532 c 0
 314 522 320.333333333 507.833333333 333 489.5 c 128
 345.666666667 471.166666667 356.833333333 446.666666667 366.5 416 c 128
 376.166666667 385.333333333 389 344.666666667 405 294 c 0
 408.333333333 288 411 285 413 285 c 0
 417 285 419.5 309 420.5 357 c 128
 421.5 405 423.333333333 436 426 450 c 128
 428.666666667 464 435.333333333 485.666666667 446 515 c 128
 456.666666667 544.333333333 462 564.333333333 462 575 c 0
 462 580.333333333 461.333333333 584.833333333 460 588.5 c 128
 458.666666667 592.166666667 454.666666667 595.833333333 448 599.5 c 128
 441.333333333 603.166666667 436 607.666666667 432 613 c 128
 428 618.333333333 426 626.666666667 426 638 c 0
 426 646.666666667 428.333333333 656.666666667 433 668 c 128
 437.666666667 679.333333333 446 688.333333333 458 695 c 128
 470 701.666666667 483.333333333 705 498 705 c 0
 514 705 527.833333333 701.833333333 539.5 695.5 c 128
 551.166666667 689.166666667 559.666666667 679.333333333 565 666 c 0
363 187 m 0
 324.333333333 181.666666667 293.166666667 176.333333333 269.5 171 c 128
 245.833333333 165.666666667 234 159.333333333 234 152 c 0
 234 149.333333333 235.5 147.166666667 238.5 145.5 c 128
 241.5 143.833333333 243.666666667 140.5 245 135.5 c 128
 246.333333333 130.5 249 128 253 128 c 0
 261.666666667 128 270.833333333 129.333333333 280.5 132 c 128
 290.166666667 134.666666667 299.666666667 137.333333333 309 140 c 0
 339.666666667 143.333333333 367.833333333 145.5 393.5 146.5 c 128
 419.166666667 147.5 454.333333333 148 499 148 c 0
 543 148 577.5 147.5 602.5 146.5 c 128
 627.5 145.5 655.333333333 143.333333333 686 140 c 0
 713 134 713 134 740 128 c 0
 744 128 746.833333333 130.5 748.5 135.5 c 128
 750.166666667 140.5 752.666666667 143.833333333 756 145.5 c 128
 759.333333333 147.166666667 761 149.333333333 761 152 c 0
 761 158.666666667 747.666666667 165 721 171 c 128
 694.333333333 177 666.833333333 182 638.5 186 c 128
 610.166666667 190 586 192.666666667 566 194 c 128
 546 195.333333333 524 196 500 196 c 0
 450.666666667 196 405 193 363 187 c 0
638 64 m 0
 642.666666667 63.3333333333 656 61.3333333333 678 58 c 128
 700 54.6666666667 714.666666667 53 722 53 c 0
 723.333333333 53 724.666666667 53.3333333333 726 54 c 0
 724 60 724.333333333 64.5 727 67.5 c 128
 729.666666667 70.5 731 73.6666666667 731 77 c 0
 731 85.6666666667 717 92 689 96 c 128
 661 100 641.833333333 102.5 631.5 103.5 c 128
 621.166666667 104.5 607 105.333333333 589 106 c 128
 571 106.666666667 558 107 550 107 c 2
 499 107 l 2
 477 107 457.5 106.833333333 440.5 106.5 c 128
 423.5 106.166666667 397.166666667 103.833333333 361.5 99.5 c 128
 325.833333333 95.1666666667 301.666666667 91.8333333333 289 89.5 c 128
 276.333333333 87.1666666667 270 82 270 74 c 0
 270 71.3333333333 271.5 68.5 274.5 65.5 c 128
 277.5 62.5 278 59 276 55 c 0
 276.666666667 53 277.666666667 51.3333333333 279 50 c 2
 363 62 l 2
 403 66.6666666667 435.333333333 69 460 69 c 2
 500 69 l 2
 518 69 518 69 533.5 69 c 128
 543.833333333 69 553.333333333 69.3333333333 562 70 c 0
 574.666666667 70 587.333333333 69.3333333333 600 68 c 128
 619 66 619 66 638 64 c 0
637 -7 m 2
 646.333333333 -7 662.166666667 -9.66666666667 684.5 -15 c 128
 706.833333333 -20.3333333333 726 -25.3333333333 742 -30 c 1
 742 -27 742 -27 742 -25 c 0
 736.666666667 -19 735.833333333 -12.5 739.5 -5.5 c 128
 743.166666667 1.5 732.666666667 8 708 14 c 0
 672.666666667 20 646.5 24.5 629.5 27.5 c 128
 612.5 30.5 597 32.3333333333 583 33 c 128
 569 33.6666666667 553 34 535 34 c 2
 501 34 l 1
 465 34 l 2
 436.333333333 34 418.5 33.6666666667 411.5 33 c 128
 404.5 32.3333333333 390.166666667 30.1666666667 368.5 26.5 c 128
 346.833333333 22.8333333333 324 19 300 15 c 128
 276 11 264 4.33333333333 264 -5 c 0
 264 -5.66666666667 264.666666667 -8 266 -12 c 0
 267.333333333 -14 266.5 -17.1666666667 263.5 -21.5 c 128
 260.5 -25.8333333333 259.333333333 -28.6666666667 260 -30 c 0
 266 -28 283.5 -23.6666666667 312.5 -17 c 128
 341.5 -10.3333333333 359 -7 365 -7 c 2
 501 -5 l 1
 637 -7 l 2
EndSplineSet
EndChar

StartChar: uni041B
Encoding: 187 1051 15
Width: 1000
Flags: HW
LayerCount: 2
Fore
SplineSet
592 627 m 1
 649 627 l 1
 649 675 l 1
 769 675 l 1
 769 507 l 1
 673 414 l 1
 673 195 l 1
 748 120 l 1
 748 27 l 1
 823 27 l 1
 823 -99 l 1
 174 -99 l 1
 174 27 l 1
 249 27 l 1
 249 120 l 1
 324 195 l 1
 324 414 l 1
 228 507 l 1
 228 675 l 1
 348 675 l 1
 348 627 l 1
 402 627 l 1
 402 675 l 1
 591 675 l 1
 592 627 l 1
721 27 m 1
 275 27 l 1
 275 1 l 1
 721 1 l 1
 721 27 l 1
712 119 m 1
 284 119 l 1
 284 86 l 1
 712 86 l 1
 712 119 l 1
647 196 m 1
 349 196 l 1
 349 170 l 1
 647 170 l 1
 647 196 l 1
647 439 m 1
 349 439 l 1
 349 413 l 1
 647 413 l 1
 647 439 l 1
733 539 m 1
 263 539 l 1
 263 506 l 1
 733 506 l 1
 733 539 l 1
EndSplineSet
EndChar

StartChar: uni0421
Encoding: 193 1057 16
Width: 1000
Flags: HW
LayerCount: 2
Fore
SplineSet
652 105 m 1
 648 111 644.333333333 117 641 123 c 0
 627.666666667 135 615.666666667 141.333333333 605 142 c 0
 578.333333333 146 557.166666667 148.833333333 541.5 150.5 c 128
 525.833333333 152.166666667 512.333333333 153 501 153 c 0
 484.333333333 153 467.333333333 151.666666667 450 149 c 128
 432.666666667 146.333333333 416.166666667 144.166666667 400.5 142.5 c 128
 384.833333333 140.833333333 368.666666667 132 352 116 c 0
 350.666666667 111.333333333 349.666666667 107 349 103 c 1
 353 102.333333333 358.666666667 102 366 102 c 0
 378.666666667 102 399.666666667 104.333333333 429 109 c 128
 458.333333333 113.666666667 482.333333333 116 501 116 c 0
 519 116 544.5 114 577.5 110 c 128
 610.5 106 628.333333333 104 631 104 c 0
 640.333333333 104 647.333333333 104.333333333 652 105 c 1
578 187 m 0
 590.666666667 181 599.333333333 177.166666667 604 175.5 c 128
 608.666666667 173.833333333 612.666666667 172.666666667 616 172 c 1
 614.666666667 180 614.666666667 185.833333333 616 189.5 c 128
 617.333333333 193.166666667 619 196.333333333 621 199 c 1
 613.666666667 200.333333333 606.333333333 203.666666667 599 209 c 128
 591.666666667 214.333333333 584.666666667 218 578 220 c 128
 571.333333333 222 559.333333333 223.666666667 542 225 c 128
 524.666666667 226.333333333 511 227 501 227 c 0
 484.333333333 227 469.666666667 226.5 457 225.5 c 128
 444.333333333 224.5 433.166666667 222.666666667 423.5 220 c 128
 413.833333333 217.333333333 405.5 213.5 398.5 208.5 c 128
 391.5 203.5 385 200.333333333 379 199 c 1
 380.333333333 196.333333333 381.833333333 192.833333333 383.5 188.5 c 128
 385.166666667 184.166666667 385.333333333 178.666666667 384 172 c 1
 388.666666667 172.666666667 393.666666667 173.666666667 399 175 c 0
 406.333333333 179 414 183 422 187 c 0
 430.666666667 189.666666667 441 191.833333333 453 193.5 c 128
 465 195.166666667 475 196 483 196 c 0
 489 196 489 196 493.5 196 c 128
 496.5 196 499 195.666666667 501 195 c 0
 507.666666667 195.666666667 513.333333333 196 518 196 c 0
 529.333333333 196 539.166666667 195.5 547.5 194.5 c 128
 555.833333333 193.5 566 191 578 187 c 0
502 -41 m 1
 442 -81 l 2
 437.333333333 -83.6666666667 430.666666667 -89.1666666667 422 -97.5 c 128
 413.333333333 -105.833333333 402.666666667 -111.666666667 390 -115 c 128
 377.333333333 -118.333333333 364.166666667 -120.833333333 350.5 -122.5 c 128
 336.833333333 -124.166666667 320.666666667 -125 302 -125 c 0
 293.333333333 -125 279.666666667 -124.666666667 261 -124 c 128
 242.333333333 -123.333333333 227.333333333 -123 216 -123 c 2
 191 -123 l 2
 184.333333333 -123 178.5 -122.666666667 173.5 -122 c 128
 168.5 -121.333333333 161.333333333 -119.333333333 152 -116 c 128
 142.666666667 -112.666666667 133 -104.5 123 -91.5 c 128
 113 -78.5 105 -69.1666666667 99 -63.5 c 128
 93 -57.8333333333 90 -51.6666666667 90 -45 c 0
 90 -37.6666666667 95.3333333333 -30.3333333333 106 -23 c 0
 120 -15 130.166666667 -9.16666666667 136.5 -5.5 c 128
 142.833333333 -1.83333333333 149.5 0.833333333333 156.5 2.5 c 128
 163.5 4.16666666667 171.333333333 5 180 5 c 0
 184.666666667 5 192.333333333 4.66666666667 203 4 c 128
 213.666666667 3.33333333333 222 3 228 3 c 0
 238.666666667 3 252.666666667 2.66666666667 270 2 c 128
 287.333333333 1.33333333333 299.666666667 1 307 1 c 0
 315 1 324 1.33333333333 334 2 c 128
 344 2.66666666667 354.666666667 4 366 6 c 128
 377.333333333 8 386.166666667 10.8333333333 392.5 14.5 c 128
 398.833333333 18.1666666667 402 24 402 32 c 0
 402 38.6666666667 398 42 390 42 c 0
 382 41.3333333333 376 41 372 41 c 0
 366.666666667 41 361.166666667 42.8333333333 355.5 46.5 c 128
 349.833333333 50.1666666667 339.166666667 54.6666666667 323.5 60 c 128
 307.833333333 65.3333333333 300 73.3333333333 300 84 c 0
 300 98 308.166666667 112.333333333 324.5 127 c 128
 340.833333333 141.666666667 350.166666667 151.833333333 352.5 157.5 c 128
 354.833333333 163.166666667 356 168.666666667 356 174 c 0
 356 182 347.666666667 193.833333333 331 209.5 c 128
 314.333333333 225.166666667 303.333333333 239.166666667 298 251.5 c 128
 292.666666667 263.833333333 288.166666667 278 284.5 294 c 128
 280.833333333 310 279 328 279 348 c 0
 279 394 290.166666667 431.5 312.5 460.5 c 128
 334.833333333 489.5 351.5 508.833333333 362.5 518.5 c 128
 373.5 528.166666667 385.166666667 536.5 397.5 543.5 c 128
 409.833333333 550.5 421.166666667 556.666666667 431.5 562 c 128
 441.833333333 567.333333333 452 570 462 570 c 0
 463 573 463 573 464 576 c 0
 445.333333333 587.333333333 435 595.666666667 433 601 c 128
 431 606.333333333 430 612.333333333 430 619 c 0
 430 633 434.333333333 645.166666667 443 655.5 c 128
 451.666666667 665.833333333 459.833333333 672.166666667 467.5 674.5 c 128
 475.166666667 676.833333333 486.333333333 679 501 681 c 1
 512.333333333 678.333333333 522.333333333 676 531 674 c 128
 539.666666667 672 548.333333333 665.833333333 557 655.5 c 128
 565.666666667 645.166666667 570 632.666666667 570 618 c 0
 570 612 568.833333333 606 566.5 600 c 128
 564.166666667 594 555.666666667 587 541 579 c 0
 538.333333333 575.666666667 535.666666667 572.666666667 533 570 c 1
 549 566.666666667 559.833333333 563.833333333 565.5 561.5 c 128
 571.166666667 559.166666667 584.666666667 552 606 540 c 128
 627.333333333 528 647 510.166666667 665 486.5 c 128
 683 462.833333333 696.5 440.166666667 705.5 418.5 c 128
 714.5 396.833333333 719 373.333333333 719 348 c 0
 719 312.666666667 714.166666667 283.833333333 704.5 261.5 c 128
 694.833333333 239.166666667 682 221.166666667 666 207.5 c 128
 650 193.833333333 642 182.333333333 642 173 c 0
 642 168.333333333 643.333333333 163 646 157 c 128
 648.666666667 151 658 140.666666667 674 126 c 128
 690 111.333333333 698 97.3333333333 698 84 c 0
 698 74 690.5 66.3333333333 675.5 61 c 128
 660.5 55.6666666667 650.166666667 51 644.5 47 c 128
 638.833333333 43 631.666666667 41 623 41 c 0
 616.333333333 41.6666666667 611.666666667 42 609 42 c 0
 600.333333333 42 596 39.3333333333 596 34 c 0
 596 25.3333333333 599.166666667 19 605.5 15 c 128
 611.833333333 11 619.5 8.16666666667 628.5 6.5 c 128
 637.5 4.83333333333 648 3.5 660 2.5 c 128
 672 1.5 683.333333333 1 694 1 c 0
 702.666666667 1 717.166666667 1.33333333333 737.5 2 c 128
 757.833333333 2.66666666667 768.666666667 3 770 3 c 0
 776 3 784.333333333 3.33333333333 795 4 c 128
 805.666666667 4.66666666667 813.333333333 5 818 5 c 0
 826 5 833.666666667 4.33333333333 841 3 c 128
 848.333333333 1.66666666667 856.166666667 -1.5 864.5 -6.5 c 128
 872.833333333 -11.5 882 -16.6666666667 892 -22 c 0
 902.666666667 -29.3333333333 908 -37 908 -45 c 0
 908 -51.6666666667 905 -57.6666666667 899 -63 c 128
 893 -68.3333333333 884.833333333 -77.6666666667 874.5 -91 c 128
 864.166666667 -104.333333333 855 -112.833333333 847 -116.5 c 128
 839 -120.166666667 832.666666667 -122.333333333 828 -123 c 128
 823.333333333 -123.666666667 817.333333333 -124 810 -124 c 0
 798.666666667 -123.333333333 789.333333333 -123 782 -123 c 0
 765.333333333 -123 749.5 -123.333333333 734.5 -124 c 128
 719.5 -124.666666667 704.666666667 -125.333333333 690 -126 c 0
 668 -126 652.666666667 -125.333333333 644 -124 c 128
 635.333333333 -122.666666667 624.333333333 -120.166666667 611 -116.5 c 128
 597.666666667 -112.833333333 586.666666667 -106.833333333 578 -98.5 c 128
 569.333333333 -90.1666666667 562 -84.1666666667 556 -80.5 c 128
 550 -76.8333333333 542.166666667 -71 532.5 -63 c 128
 522.833333333 -55 512.666666667 -47.6666666667 502 -41 c 1
518 298 m 1
 518 358 l 1
 574 358 l 1
 574 394 l 1
 518 394 l 1
 518 454 l 1
 482 454 l 1
 482 394 l 1
 422 394 l 1
 422 358 l 1
 482 358 l 1
 482 298 l 1
 518 298 l 1
EndSplineSet
EndChar

StartChar: uni041A
Encoding: 186 1050 17
Width: 1000
Flags: HW
LayerCount: 2
Fore
SplineSet
918 -120 m 1
 300 -120 l 1
 300 -72.6666666667 302.833333333 -39.6666666667 308.5 -21 c 128
 314.166666667 -2.33333333333 324.333333333 17.6666666667 339 39 c 1
 396 102 396 102 453 165 c 1
 465.666666667 185 475.333333333 201 482 213 c 128
 488.666666667 225 495 240 501 258 c 1
 497 258 493 258.333333333 489 259 c 1
 465.666666667 240.333333333 442.666666667 222 420 204 c 0
 411.333333333 199.333333333 395.833333333 192.833333333 373.5 184.5 c 128
 351.166666667 176.166666667 334.833333333 167.666666667 324.5 159 c 128
 314.166666667 150.333333333 304.666666667 137.666666667 296 121 c 128
 287.333333333 104.333333333 278.5 91.6666666667 269.5 83 c 128
 260.5 74.3333333333 253.166666667 67.3333333333 247.5 62 c 128
 241.833333333 56.6666666667 235 54 227 54 c 0
 219.666666667 54 211.833333333 58.1666666667 203.5 66.5 c 128
 195.166666667 74.8333333333 188 79 182 79 c 0
 178 79 173.666666667 77.8333333333 169 75.5 c 128
 164.333333333 73.1666666667 159.666666667 72 155 72 c 0
 141.666666667 72 127.666666667 79.3333333333 113 94 c 128
 98.3333333333 108.666666667 88.6666666667 125.333333333 84 144 c 0
 82.6666666667 152.666666667 81.6666666667 159 81 163 c 128
 80.3333333333 167 80 170.666666667 80 174 c 0
 80 202.666666667 92.1666666667 239 116.5 283 c 128
 140.833333333 327 157.833333333 362.5 167.5 389.5 c 128
 177.166666667 416.5 186.166666667 441 194.5 463 c 128
 202.833333333 485 213.833333333 504.833333333 227.5 522.5 c 128
 241.166666667 540.166666667 249.333333333 551.666666667 252 557 c 128
 254.666666667 562.333333333 256.666666667 569.666666667 258 579 c 0
 260 593 257.666666667 606.166666667 251 618.5 c 128
 244.333333333 630.833333333 239.166666667 640.666666667 235.5 648 c 128
 231.833333333 655.333333333 228.166666667 663.666666667 224.5 673 c 128
 220.833333333 682.333333333 219 689 219 693 c 0
 219 700.333333333 222 705.333333333 228 708 c 256
 234 710.666666667 241 710 249 706 c 0
 255.666666667 701.333333333 262.666666667 697.166666667 270 693.5 c 128
 277.333333333 689.833333333 288 682.166666667 302 670.5 c 128
 316 658.833333333 326.333333333 650.666666667 333 646 c 128
 339.666666667 641.333333333 346.5 636.5 353.5 631.5 c 128
 360.5 626.5 367.666666667 625 375 627 c 0
 383 629 389 635 393 645 c 0
 397 659 399.666666667 668.166666667 401 672.5 c 128
 402.333333333 676.833333333 403.5 685 404.5 697 c 128
 405.5 709 408.333333333 717.333333333 413 722 c 128
 417.666666667 726.666666667 422 729 426 729 c 0
 434 729 443.833333333 717.5 455.5 694.5 c 128
 467.166666667 671.5 474.5 658 477.5 654 c 128
 480.5 650 485.5 642.666666667 492.5 632 c 128
 499.5 621.333333333 505.666666667 614.166666667 511 610.5 c 128
 516.333333333 606.833333333 522.166666667 604.333333333 528.5 603 c 128
 534.833333333 601.666666667 540.333333333 601 545 601 c 0
 557.666666667 601.666666667 567.666666667 602 575 602 c 0
 578.333333333 602 584.666666667 601.333333333 594 600 c 0
 614 595.333333333 630.833333333 589.666666667 644.5 583 c 128
 658.166666667 576.333333333 675.166666667 566 695.5 552 c 128
 715.833333333 538 732.5 523.833333333 745.5 509.5 c 128
 758.5 495.166666667 774.166666667 475.166666667 792.5 449.5 c 128
 810.833333333 423.833333333 825 401 835 381 c 128
 845 361 857 332.333333333 871 295 c 128
 885 257.666666667 895.166666667 226.166666667 901.5 200.5 c 128
 907.833333333 174.833333333 912.833333333 146.5 916.5 115.5 c 128
 920.166666667 84.5 922.666666667 60.6666666667 924 44 c 128
 925.333333333 27.3333333333 926 9.66666666667 926 -9 c 0
 926 -25.6666666667 925.333333333 -41.8333333333 924 -57.5 c 128
 922.666666667 -73.1666666667 920.666666667 -94 918 -120 c 1
273 393 m 0
 277 396.333333333 280.833333333 399.833333333 284.5 403.5 c 128
 288.166666667 407.166666667 291.666666667 411 295 415 c 128
 298.333333333 419 304.333333333 423.5 313 428.5 c 128
 321.666666667 433.5 327.333333333 437.666666667 330 441 c 0
 340 449 340 449 350 457 c 0
 352 459.666666667 351 463.333333333 347 468 c 0
 335 480.666666667 324.333333333 487 315 487 c 0
 311 487 306.833333333 486 302.5 484 c 128
 298.166666667 482 292.833333333 479.333333333 286.5 476 c 128
 280.166666667 472.666666667 275.166666667 469 271.5 465 c 128
 267.833333333 461 263.666666667 454.833333333 259 446.5 c 128
 254.333333333 438.166666667 250.666666667 427.666666667 248 415 c 128
 245.333333333 402.333333333 241 389.333333333 235 376 c 1
 237 375.333333333 239 375 241 375 c 0
 249 378.333333333 259.666666667 384.333333333 273 393 c 0
139 167 m 0
 146.333333333 169.666666667 152 172.5 156 175.5 c 128
 160 178.5 164.166666667 184.5 168.5 193.5 c 128
 172.833333333 202.5 175 213.666666667 175 227 c 0
 175 231.666666667 170.5 232.333333333 161.5 229 c 128
 152.5 225.666666667 145.666666667 220.5 141 213.5 c 128
 136.333333333 206.5 133.5 200 132.5 194 c 128
 131.5 188 131 182.333333333 131 177 c 0
 131 172.333333333 131.5 169.166666667 132.5 167.5 c 128
 133.5 165.833333333 135.666666667 165.666666667 139 167 c 0
232 104 m 0
 238.666666667 108 244.5 114.5 249.5 123.5 c 128
 254.5 132.5 257 140.333333333 257 147 c 0
 257 151 255.833333333 154.333333333 253.5 157 c 128
 251.166666667 159.666666667 248.333333333 161 245 161 c 256
 241.666666667 161 237.5 157.5 232.5 150.5 c 128
 227.5 143.5 224.333333333 138.666666667 223 136 c 0
 219 132 215.166666667 127.166666667 211.5 121.5 c 128
 207.833333333 115.833333333 206 110.333333333 206 105 c 0
 206 101 209 99 215 99 c 256
 221 99 226.666666667 100.666666667 232 104 c 0
335 578 m 0
 329 576 321 568.666666667 311 556 c 128
 301 543.333333333 296 534.333333333 296 529 c 0
 296 527 297 526 299 526 c 128
 301 526 304.333333333 527 309 529 c 2
 352 555 l 2
 356.666666667 557 361.333333333 559.333333333 366 562 c 128
 370.666666667 564.666666667 374 570 376 578 c 0
 374 578.666666667 372 579.666666667 370 581 c 0
 363 581 363 581 360 581 c 0
 351.333333333 581 343 580 335 578 c 0
538 402 m 1
 534.666666667 401.333333333 531.666666667 400.666666667 529 400 c 0
 527 396 524.166666667 385.666666667 520.5 369 c 128
 516.833333333 352.333333333 512.166666667 336.833333333 506.5 322.5 c 128
 500.833333333 308.166666667 498 299.333333333 498 296 c 0
 498 294 499 293.333333333 501 294 c 128
 503 294.666666667 506 296.833333333 510 300.5 c 128
 514 304.166666667 519.333333333 309.833333333 526 317.5 c 128
 532.666666667 325.166666667 537 333.333333333 539 342 c 128
 541 350.666666667 542.666666667 357.166666667 544 361.5 c 128
 545.333333333 365.833333333 546 370 546 374 c 0
 546 381.333333333 543.333333333 390.666666667 538 402 c 1
506 578 m 1
 517.333333333 572 527.666666667 567.666666667 537 565 c 128
 546.333333333 562.333333333 557 558.5 569 553.5 c 128
 581 548.5 594.5 540 609.5 528 c 128
 624.5 516 638.166666667 505.333333333 650.5 496 c 128
 662.833333333 486.666666667 674.5 475.166666667 685.5 461.5 c 128
 696.5 447.833333333 708.666666667 429.333333333 722 406 c 128
 735.333333333 382.666666667 746.5 360 755.5 338 c 128
 764.5 316 773.166666667 291.5 781.5 264.5 c 128
 789.833333333 237.5 796.666666667 206.666666667 802 172 c 128
 807.333333333 137.333333333 811.333333333 111.833333333 814 95.5 c 128
 816.666666667 79.1666666667 818.333333333 66.3333333333 819 57 c 128
 819.666666667 47.6666666667 820 36.6666666667 820 24 c 0
 820 14 819.666666667 -3 819 -27 c 128
 818.333333333 -51 818 -67 818 -75 c 1
 867 -75 l 1
 867 -29 l 1
 867 -13 l 2
 867 17.6666666667 865 53.8333333333 861 95.5 c 128
 857 137.166666667 852.833333333 169.666666667 848.5 193 c 128
 844.166666667 216.333333333 836.166666667 245.833333333 824.5 281.5 c 128
 812.833333333 317.166666667 802.833333333 344.666666667 794.5 364 c 128
 786.166666667 383.333333333 773.166666667 405.666666667 755.5 431 c 128
 737.833333333 456.333333333 723.166666667 475.833333333 711.5 489.5 c 128
 699.833333333 503.166666667 685 515.333333333 667 526 c 0
 650.333333333 537.333333333 634.5 547.5 619.5 556.5 c 128
 604.5 565.5 591.833333333 571.166666667 581.5 573.5 c 128
 571.166666667 575.833333333 562 577 554 577 c 128
 546 577 539.666666667 577.333333333 535 578 c 2
 506 578 l 1
EndSplineSet
EndChar

StartChar: uni041F
Encoding: 191 1055 18
Width: 1000
Flags: HW
LayerCount: 2
Fore
SplineSet
228 43 m 0
 234.666666667 73 242.333333333 96.1666666667 251 112.5 c 128
 259.666666667 128.833333333 272.333333333 147.166666667 289 167.5 c 128
 305.666666667 187.833333333 320.666666667 201.833333333 334 209.5 c 128
 347.333333333 217.166666667 367 225.333333333 393 234 c 0
 395 235.333333333 397 237 399 239 c 1
 386.333333333 247 374 255 362 263 c 0
 352 272.333333333 344.166666667 287 338.5 307 c 128
 332.833333333 327 330 345.333333333 330 362 c 0
 330 369.333333333 330.666666667 377 332 385 c 128
 333.333333333 393 338.833333333 405.5 348.5 422.5 c 128
 358.166666667 439.5 368.166666667 452.166666667 378.5 460.5 c 128
 388.833333333 468.833333333 399.5 473.833333333 410.5 475.5 c 128
 421.5 477.166666667 432 478.666666667 442 480 c 0
 443.333333333 481.333333333 445 482.666666667 447 484 c 1
 436.333333333 488.666666667 426 493.333333333 416 498 c 0
 408 504.666666667 402 513.833333333 398 525.5 c 128
 394 537.166666667 392 549 392 561 c 0
 392 572.333333333 393.166666667 582 395.5 590 c 128
 397.833333333 598 404.333333333 607.833333333 415 619.5 c 128
 425.666666667 631.166666667 436.166666667 640.333333333 446.5 647 c 128
 456.833333333 653.666666667 474 657 498 657 c 0
 522.666666667 657 540.5 653.833333333 551.5 647.5 c 128
 562.5 641.166666667 574.5 630.833333333 587.5 616.5 c 128
 600.5 602.166666667 607 583.333333333 607 560 c 0
 607 532.666666667 599 512 583 498 c 1
 566.333333333 491.333333333 556 487 552 485 c 1
 553.333333333 483 555 481.333333333 557 480 c 0
 567.666666667 478.666666667 578.666666667 477.666666667 590 477 c 0
 599.333333333 475 609.833333333 469.5 621.5 460.5 c 128
 633.166666667 451.5 643.5 437.5 652.5 418.5 c 128
 661.5 399.5 666.5 387.166666667 667.5 381.5 c 128
 668.5 375.833333333 669 369.333333333 669 362 c 0
 669 344 666.5 325.5 661.5 306.5 c 128
 656.5 287.5 649 273.5 639 264.5 c 128
 629 255.5 620.666666667 249.333333333 614 246 c 128
 607.333333333 242.666666667 602.333333333 240 599 238 c 1
 601.666666667 236 609.5 232.833333333 622.5 228.5 c 128
 635.5 224.166666667 649.166666667 218 663.5 210 c 128
 677.833333333 202 692.833333333 188.333333333 708.5 169 c 128
 724.166666667 149.666666667 736.833333333 130.5 746.5 111.5 c 128
 756.166666667 92.5 763.5 72.5 768.5 51.5 c 128
 773.5 30.5 776.333333333 15.6666666667 777 7 c 128
 777.666666667 -1.66666666667 778 -12.3333333333 778 -25 c 0
 778 -31 777.666666667 -41.6666666667 777 -57 c 128
 776.333333333 -72.3333333333 776 -85.3333333333 776 -96 c 1
 222 -96 l 1
 222 -84 221.833333333 -72.3333333333 221.5 -61 c 128
 221.166666667 -49.6666666667 221 -38.6666666667 221 -28 c 0
 221 -14 221.333333333 -2.16666666667 222 7.5 c 128
 222.666666667 17.1666666667 224.666666667 29 228 43 c 0
EndSplineSet
EndChar

StartChar: uni043F
Encoding: 223 1087 19
Width: 1000
Flags: HW
LayerCount: 2
Fore
SplineSet
0 761 m 1
 39 800 l 1
 73 800 l 1
 0 727 l 1
 0 761 l 1
0 643 m 1
 157 800 l 1
 191 800 l 1
 0 609 l 1
 0 643 l 1
0 525 m 1
 275 800 l 1
 309 800 l 1
 0 491 l 1
 0 525 l 1
0 407 m 1
 393 800 l 1
 427 800 l 1
 0 373 l 1
 0 407 l 1
0 289 m 1
 511 800 l 1
 545 800 l 1
 0 255 l 1
 0 289 l 1
809 -200 m 1
 1000 -9 l 1
 1000 -43 l 1
 843 -200 l 1
 809 -200 l 1
927 -200 m 1
 1000 -127 l 1
 1000 -161 l 1
 961 -200 l 1
 927 -200 l 1
373 509 m 1
 0 137 l 1
 0 171 l 1
 365 536 l 1
 373 509 l 1
304 323 m 1
 0 19 l 1
 0 53 l 1
 300 353 l 1
 304 323 l 1
225 126 m 1
 0 -99 l 1
 0 -65 l 1
 326 261 l 1
 225 126 l 1
515 686 m 1
 629 800 l 1
 663 800 l 1
 545 682 l 1
 515 686 l 1
636 571 m 1
 865 800 l 1
 899 800 l 1
 634 535 l 1
 636 571 l 1
597 650 m 1
 747 800 l 1
 781 800 l 1
 613 632 l 1
 597 650 l 1
654 471 m 1
 983 800 l 1
 1000 800 l 1
 1000 783 l 1
 668 451 l 1
 654 471 l 1
662 246 m 1
 1000 581 l 1
 1000 547 l 1
 685 232 l 1
 662 246 l 1
695 394 m 1
 1000 699 l 1
 1000 665 l 1
 699 364 l 1
 695 394 l 1
327 -126 m 1
 253 -200 l 1
 219 -200 l 1
 293 -126 l 1
 327 -126 l 1
190 -27 m 1
 17 -200 l 1
 0 -200 l 1
 0 -183 l 1
 192 9 l 1
 190 -27 l 1
209 -126 m 1
 135 -200 l 1
 101 -200 l 1
 193 -108 l 1
 209 -126 l 1
445 -126 m 1
 371 -200 l 1
 337 -200 l 1
 411 -126 l 1
 445 -126 l 1
563 -126 m 1
 489 -200 l 1
 455 -200 l 1
 529 -126 l 1
 563 -126 l 1
681 -126 m 1
 607 -200 l 1
 573 -200 l 1
 647 -126 l 1
 681 -126 l 1
729 192 m 1
 1000 463 l 1
 1000 429 l 1
 744 173 l 1
 729 192 l 1
803 30 m 1
 1000 227 l 1
 1000 193 l 1
 807 0 l 1
 803 30 l 1
776 121 m 1
 1000 345 l 1
 1000 311 l 1
 786 97 l 1
 776 121 l 1
799 -126 m 1
 725 -200 l 1
 691 -200 l 1
 765 -126 l 1
 799 -126 l 1
807 -84 m 1
 1000 109 l 1
 1000 75 l 1
 806 -118 l 1
 807 -84 l 1
228 43 m 0
 234.666666667 73 242.333333333 96.1666666667 251 112.5 c 128
 259.666666667 128.833333333 272.333333333 147.166666667 289 167.5 c 128
 305.666666667 187.833333333 320.666666667 201.833333333 334 209.5 c 128
 347.333333333 217.166666667 367 225.333333333 393 234 c 0
 395 235.333333333 397 237 399 239 c 1
 386.333333333 247 374 255 362 263 c 0
 352 272.333333333 344.166666667 287 338.5 307 c 128
 332.833333333 327 330 345.333333333 330 362 c 0
 330 369.333333333 330.666666667 377 332 385 c 128
 333.333333333 393 338.833333333 405.5 348.5 422.5 c 128
 358.166666667 439.5 368.166666667 452.166666667 378.5 460.5 c 128
 388.833333333 468.833333333 399.5 473.833333333 410.5 475.5 c 128
 421.5 477.166666667 432 478.666666667 442 480 c 0
 443.333333333 481.333333333 445 482.666666667 447 484 c 1
 436.333333333 488.666666667 426 493.333333333 416 498 c 0
 408 504.666666667 402 513.833333333 398 525.5 c 128
 394 537.166666667 392 549 392 561 c 0
 392 572.333333333 393.166666667 582 395.5 590 c 128
 397.833333333 598 404.333333333 607.833333333 415 619.5 c 128
 425.666666667 631.166666667 436.166666667 640.333333333 446.5 647 c 128
 456.833333333 653.666666667 474 657 498 657 c 0
 522.666666667 657 540.5 653.833333333 551.5 647.5 c 128
 562.5 641.166666667 574.5 630.833333333 587.5 616.5 c 128
 600.5 602.166666667 607 583.333333333 607 560 c 0
 607 532.666666667 599 512 583 498 c 1
 566.333333333 491.333333333 556 487 552 485 c 1
 553.333333333 483 555 481.333333333 557 480 c 0
 567.666666667 478.666666667 578.666666667 477.666666667 590 477 c 0
 599.333333333 475 609.833333333 469.5 621.5 460.5 c 128
 633.166666667 451.5 643.5 437.5 652.5 418.5 c 128
 661.5 399.5 666.5 387.166666667 667.5 381.5 c 128
 668.5 375.833333333 669 369.333333333 669 362 c 0
 669 344 666.5 325.5 661.5 306.5 c 128
 656.5 287.5 649 273.5 639 264.5 c 128
 629 255.5 620.666666667 249.333333333 614 246 c 128
 607.333333333 242.666666667 602.333333333 240 599 238 c 1
 601.666666667 236 609.5 232.833333333 622.5 228.5 c 128
 635.5 224.166666667 649.166666667 218 663.5 210 c 128
 677.833333333 202 692.833333333 188.333333333 708.5 169 c 128
 724.166666667 149.666666667 736.833333333 130.5 746.5 111.5 c 128
 756.166666667 92.5 763.5 72.5 768.5 51.5 c 128
 773.5 30.5 776.333333333 15.6666666667 777 7 c 128
 777.666666667 -1.66666666667 778 -12.3333333333 778 -25 c 0
 778 -31 777.666666667 -41.6666666667 777 -57 c 128
 776.333333333 -72.3333333333 776 -85.3333333333 776 -96 c 1
 222 -96 l 1
 222 -84 221.833333333 -72.3333333333 221.5 -61 c 128
 221.166666667 -49.6666666667 221 -38.6666666667 221 -28 c 0
 221 -14 221.333333333 -2.16666666667 222 7.5 c 128
 222.666666667 17.1666666667 224.666666667 29 228 43 c 0
EndSplineSet
EndChar

StartChar: uni043A
Encoding: 218 1082 20
Width: 1000
Flags: HW
LayerCount: 2
Fore
SplineSet
0 761 m 1
 39 800 l 1
 73 800 l 1
 0 727 l 1
 0 761 l 1
0 643 m 1
 157 800 l 1
 191 800 l 1
 0 609 l 1
 0 643 l 1
927 -200 m 1
 1000 -127 l 1
 1000 -161 l 1
 961 -200 l 1
 927 -200 l 1
501 672 m 1
 629 800 l 1
 663 800 l 1
 514 651 l 1
 501 672 l 1
448 737 m 1
 511 800 l 1
 545 800 l 1
 464 719 l 1
 448 737 l 1
301 708 m 1
 393 800 l 1
 427 800 l 1
 320 693 l 1
 301 708 l 1
227 600 m 1
 0 373 l 1
 0 407 l 1
 215 622 l 1
 227 600 l 1
137 392 m 1
 0 255 l 1
 0 289 l 1
 156 445 l 1
 137 392 l 1
52 189 m 1
 0 137 l 1
 0 171 l 1
 63 234 l 1
 52 189 l 1
75 94 m 1
 0 19 l 1
 0 53 l 1
 63 115 l 1
 75 94 l 1
145 46 m 1
 0 -99 l 1
 0 -65 l 1
 120 55 l 1
 145 46 l 1
245 28 m 1
 17 -200 l 1
 0 -200 l 1
 0 -183 l 1
 215 32 l 1
 245 28 l 1
272 -63 m 1
 135 -200 l 1
 101 -200 l 1
 278 -23 l 1
 272 -63 l 1
303 -150 m 1
 253 -200 l 1
 219 -200 l 1
 270 -149 l 1
 303 -150 l 1
421 -150 m 1
 371 -200 l 1
 337 -200 l 1
 387 -150 l 1
 421 -150 l 1
539 -150 m 1
 489 -200 l 1
 455 -200 l 1
 505 -150 l 1
 539 -150 l 1
657 -150 m 1
 607 -200 l 1
 573 -200 l 1
 623 -150 l 1
 657 -150 l 1
938 166 m 1
 1000 227 l 1
 1000 193 l 1
 943 136 l 1
 938 166 l 1
915 260 m 1
 1000 345 l 1
 1000 311 l 1
 923 234 l 1
 915 260 l 1
669 604 m 1
 865 800 l 1
 899 800 l 1
 691 592 l 1
 669 604 l 1
577 630 m 1
 747 800 l 1
 781 800 l 1
 608 627 l 1
 577 630 l 1
796 495 m 1
 1000 699 l 1
 1000 665 l 1
 811 476 l 1
 796 495 l 1
739 556 m 1
 983 800 l 1
 1000 800 l 1
 1000 783 l 1
 757 540 l 1
 739 556 l 1
883 346 m 1
 1000 463 l 1
 1000 429 l 1
 893 322 l 1
 883 346 l 1
844 425 m 1
 1000 581 l 1
 1000 547 l 1
 857 404 l 1
 844 425 l 1
775 -150 m 1
 725 -200 l 1
 691 -200 l 1
 741 -150 l 1
 775 -150 l 1
893 -150 m 1
 843 -200 l 1
 809 -200 l 1
 859 -150 l 1
 893 -150 l 1
953 -55 m 1
 1000 -9 l 1
 1000 -43 l 1
 951 -92 l 1
 953 -55 l 1
952 61 m 1
 1000 109 l 1
 1000 75 l 1
 954 29 l 1
 952 61 l 1
918 -120 m 1
 300 -120 l 1
 300 -72.6666666667 302.833333333 -39.6666666667 308.5 -21 c 128
 314.166666667 -2.33333333333 324.333333333 17.6666666667 339 39 c 1
 396 102 396 102 453 165 c 1
 465.666666667 185 475.333333333 201 482 213 c 128
 488.666666667 225 495 240 501 258 c 1
 497 258 493 258.333333333 489 259 c 1
 465.666666667 240.333333333 442.666666667 222 420 204 c 0
 411.333333333 199.333333333 395.833333333 192.833333333 373.5 184.5 c 128
 351.166666667 176.166666667 334.833333333 167.666666667 324.5 159 c 128
 314.166666667 150.333333333 304.666666667 137.666666667 296 121 c 128
 287.333333333 104.333333333 278.5 91.6666666667 269.5 83 c 128
 260.5 74.3333333333 253.166666667 67.3333333333 247.5 62 c 128
 241.833333333 56.6666666667 235 54 227 54 c 0
 219.666666667 54 211.833333333 58.1666666667 203.5 66.5 c 128
 195.166666667 74.8333333333 188 79 182 79 c 0
 178 79 173.666666667 77.8333333333 169 75.5 c 128
 164.333333333 73.1666666667 159.666666667 72 155 72 c 0
 141.666666667 72 127.666666667 79.3333333333 113 94 c 128
 98.3333333333 108.666666667 88.6666666667 125.333333333 84 144 c 0
 82.6666666667 152.666666667 81.6666666667 159 81 163 c 128
 80.3333333333 167 80 170.666666667 80 174 c 0
 80 202.666666667 92.1666666667 239 116.5 283 c 128
 140.833333333 327 157.833333333 362.5 167.5 389.5 c 128
 177.166666667 416.5 186.166666667 441 194.5 463 c 128
 202.833333333 485 213.833333333 504.833333333 227.5 522.5 c 128
 241.166666667 540.166666667 249.333333333 551.666666667 252 557 c 128
 254.666666667 562.333333333 256.666666667 569.666666667 258 579 c 0
 260 593 257.666666667 606.166666667 251 618.5 c 128
 244.333333333 630.833333333 239.166666667 640.666666667 235.5 648 c 128
 231.833333333 655.333333333 228.166666667 663.666666667 224.5 673 c 128
 220.833333333 682.333333333 219 689 219 693 c 0
 219 700.333333333 222 705.333333333 228 708 c 256
 234 710.666666667 241 710 249 706 c 0
 255.666666667 701.333333333 262.666666667 697.166666667 270 693.5 c 128
 277.333333333 689.833333333 288 682.166666667 302 670.5 c 128
 316 658.833333333 326.333333333 650.666666667 333 646 c 128
 339.666666667 641.333333333 346.5 636.5 353.5 631.5 c 128
 360.5 626.5 367.666666667 625 375 627 c 0
 383 629 389 635 393 645 c 0
 397 659 399.666666667 668.166666667 401 672.5 c 128
 402.333333333 676.833333333 403.5 685 404.5 697 c 128
 405.5 709 408.333333333 717.333333333 413 722 c 128
 417.666666667 726.666666667 422 729 426 729 c 0
 434 729 443.833333333 717.5 455.5 694.5 c 128
 467.166666667 671.5 474.5 658 477.5 654 c 128
 480.5 650 485.5 642.666666667 492.5 632 c 128
 499.5 621.333333333 505.666666667 614.166666667 511 610.5 c 128
 516.333333333 606.833333333 522.166666667 604.333333333 528.5 603 c 128
 534.833333333 601.666666667 540.333333333 601 545 601 c 0
 557.666666667 601.666666667 567.666666667 602 575 602 c 0
 578.333333333 602 584.666666667 601.333333333 594 600 c 0
 614 595.333333333 630.833333333 589.666666667 644.5 583 c 128
 658.166666667 576.333333333 675.166666667 566 695.5 552 c 128
 715.833333333 538 732.5 523.833333333 745.5 509.5 c 128
 758.5 495.166666667 774.166666667 475.166666667 792.5 449.5 c 128
 810.833333333 423.833333333 825 401 835 381 c 128
 845 361 857 332.333333333 871 295 c 128
 885 257.666666667 895.166666667 226.166666667 901.5 200.5 c 128
 907.833333333 174.833333333 912.833333333 146.5 916.5 115.5 c 128
 920.166666667 84.5 922.666666667 60.6666666667 924 44 c 128
 925.333333333 27.3333333333 926 9.66666666667 926 -9 c 0
 926 -25.6666666667 925.333333333 -41.8333333333 924 -57.5 c 128
 922.666666667 -73.1666666667 920.666666667 -94 918 -120 c 1
273 393 m 0
 277 396.333333333 280.833333333 399.833333333 284.5 403.5 c 128
 288.166666667 407.166666667 291.666666667 411 295 415 c 128
 298.333333333 419 304.333333333 423.5 313 428.5 c 128
 321.666666667 433.5 327.333333333 437.666666667 330 441 c 0
 340 449 340 449 350 457 c 0
 352 459.666666667 351 463.333333333 347 468 c 0
 335 480.666666667 324.333333333 487 315 487 c 0
 311 487 306.833333333 486 302.5 484 c 128
 298.166666667 482 292.833333333 479.333333333 286.5 476 c 128
 280.166666667 472.666666667 275.166666667 469 271.5 465 c 128
 267.833333333 461 263.666666667 454.833333333 259 446.5 c 128
 254.333333333 438.166666667 250.666666667 427.666666667 248 415 c 128
 245.333333333 402.333333333 241 389.333333333 235 376 c 1
 237 375.333333333 239 375 241 375 c 0
 249 378.333333333 259.666666667 384.333333333 273 393 c 0
139 167 m 0
 146.333333333 169.666666667 152 172.5 156 175.5 c 128
 160 178.5 164.166666667 184.5 168.5 193.5 c 128
 172.833333333 202.5 175 213.666666667 175 227 c 0
 175 231.666666667 170.5 232.333333333 161.5 229 c 128
 152.5 225.666666667 145.666666667 220.5 141 213.5 c 128
 136.333333333 206.5 133.5 200 132.5 194 c 128
 131.5 188 131 182.333333333 131 177 c 0
 131 172.333333333 131.5 169.166666667 132.5 167.5 c 128
 133.5 165.833333333 135.666666667 165.666666667 139 167 c 0
232 104 m 0
 238.666666667 108 244.5 114.5 249.5 123.5 c 128
 254.5 132.5 257 140.333333333 257 147 c 0
 257 151 255.833333333 154.333333333 253.5 157 c 128
 251.166666667 159.666666667 248.333333333 161 245 161 c 256
 241.666666667 161 237.5 157.5 232.5 150.5 c 128
 227.5 143.5 224.333333333 138.666666667 223 136 c 0
 219 132 215.166666667 127.166666667 211.5 121.5 c 128
 207.833333333 115.833333333 206 110.333333333 206 105 c 0
 206 101 209 99 215 99 c 256
 221 99 226.666666667 100.666666667 232 104 c 0
335 578 m 0
 329 576 321 568.666666667 311 556 c 128
 301 543.333333333 296 534.333333333 296 529 c 0
 296 527 297 526 299 526 c 128
 301 526 304.333333333 527 309 529 c 2
 352 555 l 2
 356.666666667 557 361.333333333 559.333333333 366 562 c 128
 370.666666667 564.666666667 374 570 376 578 c 0
 374 578.666666667 372 579.666666667 370 581 c 0
 363 581 363 581 360 581 c 0
 351.333333333 581 343 580 335 578 c 0
538 402 m 1
 534.666666667 401.333333333 531.666666667 400.666666667 529 400 c 0
 527 396 524.166666667 385.666666667 520.5 369 c 128
 516.833333333 352.333333333 512.166666667 336.833333333 506.5 322.5 c 128
 500.833333333 308.166666667 498 299.333333333 498 296 c 0
 498 294 499 293.333333333 501 294 c 128
 503 294.666666667 506 296.833333333 510 300.5 c 128
 514 304.166666667 519.333333333 309.833333333 526 317.5 c 128
 532.666666667 325.166666667 537 333.333333333 539 342 c 128
 541 350.666666667 542.666666667 357.166666667 544 361.5 c 128
 545.333333333 365.833333333 546 370 546 374 c 0
 546 381.333333333 543.333333333 390.666666667 538 402 c 1
506 578 m 1
 517.333333333 572 527.666666667 567.666666667 537 565 c 128
 546.333333333 562.333333333 557 558.5 569 553.5 c 128
 581 548.5 594.5 540 609.5 528 c 128
 624.5 516 638.166666667 505.333333333 650.5 496 c 128
 662.833333333 486.666666667 674.5 475.166666667 685.5 461.5 c 128
 696.5 447.833333333 708.666666667 429.333333333 722 406 c 128
 735.333333333 382.666666667 746.5 360 755.5 338 c 128
 764.5 316 773.166666667 291.5 781.5 264.5 c 128
 789.833333333 237.5 796.666666667 206.666666667 802 172 c 128
 807.333333333 137.333333333 811.333333333 111.833333333 814 95.5 c 128
 816.666666667 79.1666666667 818.333333333 66.3333333333 819 57 c 128
 819.666666667 47.6666666667 820 36.6666666667 820 24 c 0
 820 14 819.666666667 -3 819 -27 c 128
 818.333333333 -51 818 -67 818 -75 c 1
 867 -75 l 1
 867 -29 l 1
 867 -13 l 2
 867 17.6666666667 865 53.8333333333 861 95.5 c 128
 857 137.166666667 852.833333333 169.666666667 848.5 193 c 128
 844.166666667 216.333333333 836.166666667 245.833333333 824.5 281.5 c 128
 812.833333333 317.166666667 802.833333333 344.666666667 794.5 364 c 128
 786.166666667 383.333333333 773.166666667 405.666666667 755.5 431 c 128
 737.833333333 456.333333333 723.166666667 475.833333333 711.5 489.5 c 128
 699.833333333 503.166666667 685 515.333333333 667 526 c 0
 650.333333333 537.333333333 634.5 547.5 619.5 556.5 c 128
 604.5 565.5 591.833333333 571.166666667 581.5 573.5 c 128
 571.166666667 575.833333333 562 577 554 577 c 128
 546 577 539.666666667 577.333333333 535 578 c 2
 506 578 l 1
198 723 m 1
 194 715.666666667 192 708.666666667 192 702 c 0
 192.666666667 695.333333333 193 689.333333333 193 684 c 1
 0 491 l 1
 0 525 l 1
 198 723 l 1
275 800 m 1
 309 800 l 1
 246 737 l 1
 236.666666667 739.666666667 230 741 226 741 c 0
 220 741 215.333333333 739.666666667 212 737 c 1
 275 800 l 1
EndSplineSet
EndChar

StartChar: uni0441
Encoding: 225 1089 21
Width: 1000
Flags: HW
LayerCount: 2
Fore
SplineSet
0 761 m 1
 39 800 l 1
 73 800 l 1
 0 727 l 1
 0 761 l 1
0 643 m 1
 157 800 l 1
 191 800 l 1
 0 609 l 1
 0 643 l 1
0 525 m 1
 275 800 l 1
 309 800 l 1
 0 491 l 1
 0 525 l 1
0 407 m 1
 393 800 l 1
 427 800 l 1
 0 373 l 1
 0 407 l 1
0 289 m 1
 511 800 l 1
 545 800 l 1
 0 255 l 1
 0 289 l 1
809 -200 m 1
 1000 -9 l 1
 1000 -43 l 1
 843 -200 l 1
 809 -200 l 1
927 -200 m 1
 1000 -127 l 1
 1000 -161 l 1
 961 -200 l 1
 927 -200 l 1
532 703 m 1
 629 800 l 1
 663 800 l 1
 557 694 l 1
 532 703 l 1
595 648 m 1
 747 800 l 1
 781 800 l 1
 600 619 l 1
 595 648 l 1
749 330 m 1
 1000 581 l 1
 1000 547 l 1
 744 291 l 1
 749 330 l 1
686 150 m 1
 1000 463 l 1
 1000 429 l 1
 703 132 l 1
 686 150 l 1
726 71 m 1
 1000 345 l 1
 1000 311 l 1
 721 32 l 1
 726 71 l 1
258 276 m 1
 0 19 l 1
 0 53 l 1
 251 304 l 1
 258 276 l 1
303 204 m 1
 117 18 l 1
 71 -14 l 1
 59 -40 l 1
 0 -99 l 1
 0 -65 l 1
 283 218 l 1
 303 204 l 1
104 -113 m 1
 17 -200 l 1
 0 -200 l 1
 0 -183 l 1
 89 -94 l 1
 104 -113 l 1
182 -153 m 1
 135 -200 l 1
 101 -200 l 1
 153 -148 l 1
 182 -153 l 1
565 -124 m 1
 489 -200 l 1
 455 -200 l 1
 546 -109 l 1
 565 -124 l 1
688 506 m 1
 983 800 l 1
 1000 800 l 1
 1000 783 l 1
 703 486 l 1
 688 506 l 1
733 432 m 1
 1000 699 l 1
 1000 665 l 1
 741 406 l 1
 733 432 l 1
627 563 m 1
 865 800 l 1
 899 800 l 1
 647 548 l 1
 627 563 l 1
252 389 m 1
 0 137 l 1
 0 171 l 1
 266 437 l 1
 252 389 l 1
299 -154 m 1
 253 -200 l 1
 219 -200 l 1
 266 -153 l 1
 299 -154 l 1
477 -94 m 1
 371 -200 l 1
 337 -200 l 1
 392 -145 l 1
 477 -94 l 1
898 8 m 1
 1000 109 l 1
 1000 75 l 1
 918 -7 l 1
 898 8 l 1
806 33 m 1
 1000 227 l 1
 1000 193 l 1
 840 33 l 1
 806 33 l 1
653 -154 m 1
 607 -200 l 1
 573 -200 l 1
 623 -150 l 1
 653 -154 l 1
772 -153 m 1
 725 -200 l 1
 691 -200 l 1
 738 -153 l 1
 772 -153 l 1
277 60 m 1
 250 33 l 1
 216 33 l 1
 270 87 l 1
 277 60 l 1
652 105 m 1
 648 111 644.333333333 117 641 123 c 0
 627.666666667 135 615.666666667 141.333333333 605 142 c 0
 578.333333333 146 557.166666667 148.833333333 541.5 150.5 c 128
 525.833333333 152.166666667 512.333333333 153 501 153 c 0
 484.333333333 153 467.333333333 151.666666667 450 149 c 128
 432.666666667 146.333333333 416.166666667 144.166666667 400.5 142.5 c 128
 384.833333333 140.833333333 368.666666667 132 352 116 c 0
 350.666666667 111.333333333 349.666666667 107 349 103 c 1
 353 102.333333333 358.666666667 102 366 102 c 0
 378.666666667 102 399.666666667 104.333333333 429 109 c 128
 458.333333333 113.666666667 482.333333333 116 501 116 c 0
 519 116 544.5 114 577.5 110 c 128
 610.5 106 628.333333333 104 631 104 c 0
 640.333333333 104 647.333333333 104.333333333 652 105 c 1
578 187 m 0
 590.666666667 181 599.333333333 177.166666667 604 175.5 c 128
 608.666666667 173.833333333 612.666666667 172.666666667 616 172 c 1
 614.666666667 180 614.666666667 185.833333333 616 189.5 c 128
 617.333333333 193.166666667 619 196.333333333 621 199 c 1
 613.666666667 200.333333333 606.333333333 203.666666667 599 209 c 128
 591.666666667 214.333333333 584.666666667 218 578 220 c 128
 571.333333333 222 559.333333333 223.666666667 542 225 c 128
 524.666666667 226.333333333 511 227 501 227 c 0
 484.333333333 227 469.666666667 226.5 457 225.5 c 128
 444.333333333 224.5 433.166666667 222.666666667 423.5 220 c 128
 413.833333333 217.333333333 405.5 213.5 398.5 208.5 c 128
 391.5 203.5 385 200.333333333 379 199 c 1
 380.333333333 196.333333333 381.833333333 192.833333333 383.5 188.5 c 128
 385.166666667 184.166666667 385.333333333 178.666666667 384 172 c 1
 388.666666667 172.666666667 393.666666667 173.666666667 399 175 c 0
 406.333333333 179 414 183 422 187 c 0
 430.666666667 189.666666667 441 191.833333333 453 193.5 c 128
 465 195.166666667 475 196 483 196 c 0
 489 196 489 196 493.5 196 c 128
 496.5 196 499 195.666666667 501 195 c 0
 507.666666667 195.666666667 513.333333333 196 518 196 c 0
 529.333333333 196 539.166666667 195.5 547.5 194.5 c 128
 555.833333333 193.5 566 191 578 187 c 0
502 -41 m 1
 442 -81 l 2
 437.333333333 -83.6666666667 430.666666667 -89.1666666667 422 -97.5 c 128
 413.333333333 -105.833333333 402.666666667 -111.666666667 390 -115 c 128
 377.333333333 -118.333333333 364.166666667 -120.833333333 350.5 -122.5 c 128
 336.833333333 -124.166666667 320.666666667 -125 302 -125 c 0
 293.333333333 -125 279.666666667 -124.666666667 261 -124 c 128
 242.333333333 -123.333333333 227.333333333 -123 216 -123 c 2
 191 -123 l 2
 184.333333333 -123 178.5 -122.666666667 173.5 -122 c 128
 168.5 -121.333333333 161.333333333 -119.333333333 152 -116 c 128
 142.666666667 -112.666666667 133 -104.5 123 -91.5 c 128
 113 -78.5 105 -69.1666666667 99 -63.5 c 128
 93 -57.8333333333 90 -51.6666666667 90 -45 c 0
 90 -37.6666666667 95.3333333333 -30.3333333333 106 -23 c 0
 120 -15 130.166666667 -9.16666666667 136.5 -5.5 c 128
 142.833333333 -1.83333333333 149.5 0.833333333333 156.5 2.5 c 128
 163.5 4.16666666667 171.333333333 5 180 5 c 0
 184.666666667 5 192.333333333 4.66666666667 203 4 c 128
 213.666666667 3.33333333333 222 3 228 3 c 0
 238.666666667 3 252.666666667 2.66666666667 270 2 c 128
 287.333333333 1.33333333333 299.666666667 1 307 1 c 0
 315 1 324 1.33333333333 334 2 c 128
 344 2.66666666667 354.666666667 4 366 6 c 128
 377.333333333 8 386.166666667 10.8333333333 392.5 14.5 c 128
 398.833333333 18.1666666667 402 24 402 32 c 0
 402 38.6666666667 398 42 390 42 c 0
 382 41.3333333333 376 41 372 41 c 0
 366.666666667 41 361.166666667 42.8333333333 355.5 46.5 c 128
 349.833333333 50.1666666667 339.166666667 54.6666666667 323.5 60 c 128
 307.833333333 65.3333333333 300 73.3333333333 300 84 c 0
 300 98 308.166666667 112.333333333 324.5 127 c 128
 340.833333333 141.666666667 350.166666667 151.833333333 352.5 157.5 c 128
 354.833333333 163.166666667 356 168.666666667 356 174 c 0
 356 182 347.666666667 193.833333333 331 209.5 c 128
 314.333333333 225.166666667 303.333333333 239.166666667 298 251.5 c 128
 292.666666667 263.833333333 288.166666667 278 284.5 294 c 128
 280.833333333 310 279 328 279 348 c 0
 279 394 290.166666667 431.5 312.5 460.5 c 128
 334.833333333 489.5 351.5 508.833333333 362.5 518.5 c 128
 373.5 528.166666667 385.166666667 536.5 397.5 543.5 c 128
 409.833333333 550.5 421.166666667 556.666666667 431.5 562 c 128
 441.833333333 567.333333333 452 570 462 570 c 0
 463 573 463 573 464 576 c 0
 445.333333333 587.333333333 435 595.666666667 433 601 c 128
 431 606.333333333 430 612.333333333 430 619 c 0
 430 633 434.333333333 645.166666667 443 655.5 c 128
 451.666666667 665.833333333 459.833333333 672.166666667 467.5 674.5 c 128
 475.166666667 676.833333333 486.333333333 679 501 681 c 1
 512.333333333 678.333333333 522.333333333 676 531 674 c 128
 539.666666667 672 548.333333333 665.833333333 557 655.5 c 128
 565.666666667 645.166666667 570 632.666666667 570 618 c 0
 570 612 568.833333333 606 566.5 600 c 128
 564.166666667 594 555.666666667 587 541 579 c 0
 538.333333333 575.666666667 535.666666667 572.666666667 533 570 c 1
 549 566.666666667 559.833333333 563.833333333 565.5 561.5 c 128
 571.166666667 559.166666667 584.666666667 552 606 540 c 128
 627.333333333 528 647 510.166666667 665 486.5 c 128
 683 462.833333333 696.5 440.166666667 705.5 418.5 c 128
 714.5 396.833333333 719 373.333333333 719 348 c 0
 719 312.666666667 714.166666667 283.833333333 704.5 261.5 c 128
 694.833333333 239.166666667 682 221.166666667 666 207.5 c 128
 650 193.833333333 642 182.333333333 642 173 c 0
 642 168.333333333 643.333333333 163 646 157 c 128
 648.666666667 151 658 140.666666667 674 126 c 128
 690 111.333333333 698 97.3333333333 698 84 c 0
 698 74 690.5 66.3333333333 675.5 61 c 128
 660.5 55.6666666667 650.166666667 51 644.5 47 c 128
 638.833333333 43 631.666666667 41 623 41 c 0
 616.333333333 41.6666666667 611.666666667 42 609 42 c 0
 600.333333333 42 596 39.3333333333 596 34 c 0
 596 25.3333333333 599.166666667 19 605.5 15 c 128
 611.833333333 11 619.5 8.16666666667 628.5 6.5 c 128
 637.5 4.83333333333 648 3.5 660 2.5 c 128
 672 1.5 683.333333333 1 694 1 c 0
 702.666666667 1 717.166666667 1.33333333333 737.5 2 c 128
 757.833333333 2.66666666667 768.666666667 3 770 3 c 0
 776 3 784.333333333 3.33333333333 795 4 c 128
 805.666666667 4.66666666667 813.333333333 5 818 5 c 0
 826 5 833.666666667 4.33333333333 841 3 c 128
 848.333333333 1.66666666667 856.166666667 -1.5 864.5 -6.5 c 128
 872.833333333 -11.5 882 -16.6666666667 892 -22 c 0
 902.666666667 -29.3333333333 908 -37 908 -45 c 0
 908 -51.6666666667 905 -57.6666666667 899 -63 c 128
 893 -68.3333333333 884.833333333 -77.6666666667 874.5 -91 c 128
 864.166666667 -104.333333333 855 -112.833333333 847 -116.5 c 128
 839 -120.166666667 832.666666667 -122.333333333 828 -123 c 128
 823.333333333 -123.666666667 817.333333333 -124 810 -124 c 0
 798.666666667 -123.333333333 789.333333333 -123 782 -123 c 0
 765.333333333 -123 749.5 -123.333333333 734.5 -124 c 128
 719.5 -124.666666667 704.666666667 -125.333333333 690 -126 c 0
 668 -126 652.666666667 -125.333333333 644 -124 c 128
 635.333333333 -122.666666667 624.333333333 -120.166666667 611 -116.5 c 128
 597.666666667 -112.833333333 586.666666667 -106.833333333 578 -98.5 c 128
 569.333333333 -90.1666666667 562 -84.1666666667 556 -80.5 c 128
 550 -76.8333333333 542.166666667 -71 532.5 -63 c 128
 522.833333333 -55 512.666666667 -47.6666666667 502 -41 c 1
518 298 m 1
 518 358 l 1
 574 358 l 1
 574 394 l 1
 518 394 l 1
 518 454 l 1
 482 454 l 1
 482 394 l 1
 422 394 l 1
 422 358 l 1
 482 358 l 1
 482 298 l 1
 518 298 l 1
EndSplineSet
EndChar

StartChar: uni043B
Encoding: 219 1083 22
Width: 1000
Flags: HW
LayerCount: 2
Fore
SplineSet
0 761 m 1
 39 800 l 1
 73 800 l 1
 0 727 l 1
 0 761 l 1
0 643 m 1
 157 800 l 1
 191 800 l 1
 0 609 l 1
 0 643 l 1
809 -200 m 1
 1000 -9 l 1
 1000 -43 l 1
 843 -200 l 1
 809 -200 l 1
927 -200 m 1
 1000 -127 l 1
 1000 -161 l 1
 961 -200 l 1
 927 -200 l 1
442 -129 m 1
 371 -200 l 1
 337 -200 l 1
 408 -129 l 1
 442 -129 l 1
324 -129 m 1
 253 -200 l 1
 219 -200 l 1
 290 -129 l 1
 324 -129 l 1
144 -73 m 1
 17 -200 l 1
 0 -200 l 1
 0 -183 l 1
 144 -39 l 1
 144 -73 l 1
206 -129 m 1
 135 -200 l 1
 101 -200 l 1
 172 -129 l 1
 206 -129 l 1
219 120 m 1
 156 57 l 1
 144 57 l 1
 144 45 l 1
 0 -99 l 1
 0 -65 l 1
 294 229 l 1
 219 120 l 1
723 186 m 1
 1000 463 l 1
 1000 429 l 1
 740 170 l 1
 723 186 l 1
560 -129 m 1
 489 -200 l 1
 455 -200 l 1
 526 -129 l 1
 560 -129 l 1
678 -129 m 1
 607 -200 l 1
 573 -200 l 1
 644 -129 l 1
 678 -129 l 1
294 313 m 1
 0 19 l 1
 0 53 l 1
 294 347 l 1
 294 313 l 1
279 416 m 1
 0 137 l 1
 0 171 l 1
 262 433 l 1
 279 416 l 1
703 284 m 1
 1000 581 l 1
 1000 547 l 1
 703 250 l 1
 703 284 l 1
534 705 m 1
 629 800 l 1
 663 800 l 1
 568 705 l 1
 534 705 l 1
799 498 m 1
 1000 699 l 1
 1000 665 l 1
 703 368 l 1
 799 498 l 1
799 616 m 1
 983 800 l 1
 1000 800 l 1
 1000 783 l 1
 799 582 l 1
 799 616 l 1
770 705 m 1
 865 800 l 1
 899 800 l 1
 799 700 l 1
 770 705 l 1
416 705 m 1
 511 800 l 1
 545 800 l 1
 450 705 l 1
 416 705 l 1
652 705 m 1
 747 800 l 1
 781 800 l 1
 686 705 l 1
 652 705 l 1
219 474 m 1
 0 255 l 1
 0 289 l 1
 201 490 l 1
 219 474 l 1
830 57 m 1
 1000 227 l 1
 1000 193 l 1
 853 46 l 1
 830 57 l 1
778 123 m 1
 1000 345 l 1
 1000 311 l 1
 778 89 l 1
 778 123 l 1
796 -129 m 1
 725 -200 l 1
 691 -200 l 1
 762 -129 l 1
 796 -129 l 1
853 -38 m 1
 1000 109 l 1
 1000 75 l 1
 853 -72 l 1
 853 -38 l 1
298 705 m 1
 393 800 l 1
 427 800 l 1
 332 705 l 1
 298 705 l 1
198 571 m 1
 0 373 l 1
 0 407 l 1
 198 605 l 1
 198 571 l 1
198 705 m 1
 198 689 l 1
 0 491 l 1
 0 525 l 1
 275 800 l 1
 309 800 l 1
 214 705 l 1
 198 705 l 1
592 627 m 1
 649 627 l 1
 649 675 l 1
 769 675 l 1
 769 507 l 1
 673 414 l 1
 673 195 l 1
 748 120 l 1
 748 27 l 1
 823 27 l 1
 823 -99 l 1
 174 -99 l 1
 174 27 l 1
 249 27 l 1
 249 120 l 1
 324 195 l 1
 324 414 l 1
 228 507 l 1
 228 675 l 1
 348 675 l 1
 348 627 l 1
 402 627 l 1
 402 675 l 1
 591 675 l 1
 592 627 l 1
721 27 m 1
 275 27 l 1
 275 1 l 1
 721 1 l 1
 721 27 l 1
712 119 m 1
 284 119 l 1
 284 86 l 1
 712 86 l 1
 712 119 l 1
647 196 m 1
 349 196 l 1
 349 170 l 1
 647 170 l 1
 647 196 l 1
647 439 m 1
 349 439 l 1
 349 413 l 1
 647 413 l 1
 647 439 l 1
733 539 m 1
 263 539 l 1
 263 506 l 1
 733 506 l 1
 733 539 l 1
EndSplineSet
EndChar

StartChar: uni0444
Encoding: 228 1092 23
Width: 1000
Flags: HW
LayerCount: 2
Fore
SplineSet
0 761 m 1
 39 800 l 1
 73 800 l 1
 0 727 l 1
 0 761 l 1
0 643 m 1
 157 800 l 1
 191 800 l 1
 0 609 l 1
 0 643 l 1
809 -200 m 1
 1000 -9 l 1
 1000 -43 l 1
 843 -200 l 1
 809 -200 l 1
691 -200 m 1
 751 -140 l 1
 765.666666667 -135.333333333 779.5 -126.833333333 792.5 -114.5 c 128
 805.5 -102.166666667 814.666666667 -87.6666666667 820 -71 c 1
 1000 109 l 1
 1000 75 l 1
 725 -200 l 1
 691 -200 l 1
927 -200 m 1
 1000 -127 l 1
 1000 -161 l 1
 961 -200 l 1
 927 -200 l 1
518 -171 m 1
 489 -200 l 1
 455 -200 l 1
 483 -171 l 1
 518 -171 l 1
880 225 m 1
 1000 345 l 1
 1000 311 l 1
 842 153 l 1
 880 225 l 1
406 -164 m 1
 371 -200 l 1
 337 -200 l 1
 377 -160 l 1
 406 -164 l 1
306 -147 m 1
 253 -200 l 1
 219 -200 l 1
 276 -143 l 1
 306 -147 l 1
214 -121 m 1
 135 -200 l 1
 101 -200 l 1
 197 -104 l 1
 214 -121 l 1
192 93 m 1
 0 -99 l 1
 0 -65 l 1
 182 117 l 1
 192 93 l 1
647 548 m 1
 588 489 l 1
 578 513 l 1
 628 563 l 1
 631.333333333 561 634.833333333 558.5 638.5 555.5 c 128
 642.166666667 552.5 645 550 647 548 c 1
760 694 m 1
 865 800 l 1
 899 800 l 1
 777 677 l 1
 760 694 l 1
802 619 m 1
 983 800 l 1
 1000 800 l 1
 1000 783 l 1
 795 578 l 1
 802 619 l 1
805 470 m 1
 750 415 l 1
 749 448 l 1
 798 497 l 1
 799.333333333 493.666666667 800.666666667 490.666666667 802 488 c 0
 802.666666667 482 803.666666667 476 805 470 c 1
905 604 m 1
 1000 699 l 1
 1000 665 l 1
 930 595 l 1
 905 604 l 1
968 550 m 1
 1000 581 l 1
 1000 547 l 1
 975 522 l 1
 968 550 l 1
900 363 m 1
 1000 463 l 1
 1000 429 l 1
 896 325 l 1
 900 363 l 1
174 -43 m 1
 17 -200 l 1
 0 -200 l 1
 0 -183 l 1
 202 19 l 1
 174 -43 l 1
147 166 m 1
 0 19 l 1
 0 53 l 1
 133 186 l 1
 147 166 l 1
620 638 m 1
 599 618 l 1
 599 625 599 625 599 631.5 c 128
 599 635.833333333 599.333333333 643 600 653 c 1
 747 800 l 1
 781 800 l 1
 683 702 l 2
 680 701 680 701 663.5 695.5 c 128
 652.5 691.833333333 643.166666667 686.166666667 635.5 678.5 c 128
 627.833333333 670.833333333 622.666666667 657.333333333 620 638 c 1
99 354 m 1
 0 255 l 1
 0 289 l 1
 96 385 l 1
 99 354 l 1
246 501 m 1
 180 434 l 1
 198 487 l 1
 238 527 l 1
 246 501 l 1
297 705 m 1
 393 800 l 1
 427 800 l 1
 325 698 l 1
 297 705 l 1
434 571 m 1
 359 496 l 1
 345 516 l 1
 416 587 l 1
 416.666666667 585 418.5 582.5 421.5 579.5 c 128
 424.5 576.5 428.666666667 573.666666667 434 571 c 1
552 723 m 1
 629 800 l 1
 663 800 l 1
 572 709 l 1
 552 723 l 1
423 712 m 1
 511 800 l 1
 545 800 l 1
 479 735 l 1
 423 712 l 1
394 649 m 1
 380 634 l 1
 371 660 l 1
 411 700 l 1
 394 649 l 1
21 512 m 1
 0 491 l 1
 0 525 l 1
 32 556 l 1
 21 512 l 1
203 576 m 1
 188 561 l 1
 190 558.333333333 191.333333333 556.166666667 192 554.5 c 128
 192.666666667 552.833333333 186.666666667 561.666666667 174 581 c 1
 196 603 l 1
 197 603 l 1
 199 593.666666667 201 584.666666667 203 576 c 1
73 598 m 1
 275 800 l 1
 309 800 l 1
 115 606 l 1
 73 598 l 1
67 440 m 1
 0 373 l 1
 0 407 l 1
 47 454 l 1
 67 440 l 1
113 250 m 1
 0 137 l 1
 0 171 l 1
 109 280 l 1
 113 250 l 1
794 21 m 1
 1000 227 l 1
 1000 193 l 1
 802 -4 l 1
 794 21 l 1
653 -154 m 1
 607 -200 l 1
 573 -200 l 1
 612 -161 l 1
 653 -154 l 1
565 666 m 0
 569 656 571 646.333333333 571 637 c 0
 571 626.333333333 568 617 562 609 c 1
 550 600 550 600 538 591 c 0
 535.333333333 586.333333333 534 580.333333333 534 573 c 0
 534 561.666666667 539.5 538.166666667 550.5 502.5 c 128
 561.5 466.833333333 567.666666667 445.666666667 569 439 c 128
 570.333333333 432.333333333 571.833333333 405 573.5 357 c 128
 575.166666667 309 578.666666667 285 584 285 c 0
 586 285 590.5 291.833333333 597.5 305.5 c 128
 604.5 319.166666667 612.333333333 343.333333333 621 378 c 128
 629.666666667 412.666666667 635.666666667 434.833333333 639 444.5 c 128
 642.333333333 454.166666667 650.5 468.5 663.5 487.5 c 128
 676.5 506.5 683 521.666666667 683 533 c 0
 683 539.666666667 682 545.5 680 550.5 c 128
 678 555.5 673.666666667 561 667 567 c 128
 660.333333333 573 655.333333333 580.166666667 652 588.5 c 128
 648.666666667 596.833333333 647 606 647 616 c 0
 647 626.666666667 651.166666667 639.166666667 659.5 653.5 c 128
 667.833333333 667.833333333 684.333333333 675 709 675 c 0
 733 675 749.5 667.5 758.5 652.5 c 128
 767.5 637.5 772 624.666666667 772 614 c 0
 772 607.333333333 771.5 602.166666667 770.5 598.5 c 128
 769.5 594.833333333 767.5 589.333333333 764.5 582 c 128
 761.5 574.666666667 755.833333333 568.5 747.5 563.5 c 128
 739.166666667 558.5 733 550.833333333 729 540.5 c 128
 725 530.166666667 722.166666667 520.833333333 720.5 512.5 c 128
 718.833333333 504.166666667 718 493.666666667 718 481 c 0
 718 469 718 469 718 456 c 128
 718 447.333333333 718.333333333 438.333333333 719 429 c 0
 719 408.333333333 718.666666667 388.333333333 718 369 c 128
 717.333333333 349.666666667 716.666666667 331 716 313 c 0
 716 281 719.333333333 265 726 265 c 0
 730 265 735.5 270 742.5 280 c 128
 749.5 290 757.833333333 305.5 767.5 326.5 c 128
 777.166666667 347.5 784.333333333 361.833333333 789 369.5 c 128
 793.666666667 377.166666667 805.833333333 391.333333333 825.5 412 c 128
 845.166666667 432.666666667 854.333333333 445.333333333 853 450 c 0
 851.666666667 455.333333333 848.166666667 461.333333333 842.5 468 c 128
 836.833333333 474.666666667 833.166666667 480.5 831.5 485.5 c 128
 829.833333333 490.5 828.5 495.5 827.5 500.5 c 128
 826.5 505.5 826 510.333333333 826 515 c 0
 826 524.333333333 830.333333333 536.833333333 839 552.5 c 128
 847.666666667 568.166666667 863.333333333 576 886 576 c 256
 908.666666667 576 924.333333333 568.5 933 553.5 c 128
 941.666666667 538.5 946 526 946 516 c 0
 946 505.333333333 943.833333333 495.666666667 939.5 487 c 128
 935.166666667 478.333333333 927.333333333 470.166666667 916 462.5 c 128
 904.666666667 454.833333333 896.166666667 447.666666667 890.5 441 c 128
 884.833333333 434.333333333 880.333333333 423 877 407 c 0
 873 379 868.833333333 350.833333333 864.5 322.5 c 128
 860.166666667 294.166666667 856.833333333 270.666666667 854.5 252 c 128
 852.166666667 233.333333333 845.666666667 215.333333333 835 198 c 0
 815.666666667 171.333333333 800.833333333 150.333333333 790.5 135 c 128
 780.166666667 119.666666667 773.666666667 104.666666667 771 90 c 128
 768.333333333 75.3333333333 766.333333333 64 765 56 c 128
 763.666666667 48 763 40.6666666667 763 34 c 0
 763 23.3333333333 764.333333333 13.5 767 4.5 c 128
 769.666666667 -4.5 774.666666667 -13.1666666667 782 -21.5 c 128
 789.333333333 -29.8333333333 793 -37.6666666667 793 -45 c 0
 793 -56.3333333333 790.666666667 -65.1666666667 786 -71.5 c 128
 781.333333333 -77.8333333333 774.666666667 -85.8333333333 766 -95.5 c 128
 757.333333333 -105.166666667 744 -111.166666667 726 -113.5 c 128
 708 -115.833333333 690.333333333 -118 673 -120 c 0
 607 -134 549 -141 499 -141 c 0
 449.666666667 -141 391.333333333 -134 324 -120 c 0
 300 -117.333333333 280.666666667 -115 266 -113 c 128
 251.333333333 -111 239.333333333 -104.833333333 230 -94.5 c 128
 220.666666667 -84.1666666667 214 -75.6666666667 210 -69 c 128
 206 -62.3333333333 204 -54.3333333333 204 -45 c 0
 204 -39 208 -30.6666666667 216 -20 c 128
 224 -9.33333333333 229 -0.333333333333 231 7 c 128
 233 14.3333333333 234 23.3333333333 234 34 c 0
 234 40 233.333333333 47.6666666667 232 57 c 128
 230.666666667 66.3333333333 228.666666667 77.8333333333 226 91.5 c 128
 223.333333333 105.166666667 215.333333333 121.5 202 140.5 c 128
 188.666666667 159.5 176 178.166666667 164 196.5 c 128
 152 214.833333333 144.333333333 235.166666667 141 257.5 c 128
 137.666666667 279.833333333 134.166666667 304.333333333 130.5 331 c 128
 126.833333333 357.666666667 123.833333333 380.333333333 121.5 399 c 128
 119.166666667 417.666666667 114 431.833333333 106 441.5 c 128
 98 451.166666667 89 459 79 465 c 128
 69 471 61.8333333333 478.333333333 57.5 487 c 128
 53.1666666667 495.666666667 51 505.333333333 51 516 c 0
 51 526 55.3333333333 538.5 64 553.5 c 128
 72.6666666667 568.5 88.3333333333 576 111 576 c 256
 133.666666667 576 148.5 570 155.5 558 c 128
 162.5 546 166.833333333 537.5 168.5 532.5 c 128
 170.166666667 527.5 171 521.666666667 171 515 c 0
 171 505 169 494.333333333 165 483 c 1
 157.666666667 471.666666667 150.666666667 460.666666667 144 450 c 0
 143.333333333 446 153.5 431.833333333 174.5 407.5 c 128
 195.5 383.166666667 210.333333333 362.666666667 219 346 c 128
 227.666666667 329.333333333 239.666666667 307 255 279 c 0
 261.666666667 269.666666667 267 265 271 265 c 0
 277.666666667 265 281 281 281 313 c 0
 281 339 280.666666667 361 280 379 c 128
 279.333333333 397 278.666666667 413.666666667 278 429 c 0
 278 443 278 443 278 456 c 128
 278 464.666666667 278.333333333 473 279 481 c 0
 279 493 278.333333333 503.166666667 277 511.5 c 128
 275.666666667 519.833333333 272.666666667 529.5 268 540.5 c 128
 263.333333333 551.5 257 559.5 249 564.5 c 128
 241 569.5 236 574.333333333 234 579 c 128
 232 583.666666667 230 589.666666667 228 597 c 128
 226 604.333333333 225 610.333333333 225 615 c 0
 225 625 229.5 637.5 238.5 652.5 c 128
 247.5 667.5 264 675 288 675 c 0
 312.666666667 675 329.166666667 667.833333333 337.5 653.5 c 128
 345.833333333 639.166666667 350 626.333333333 350 615 c 0
 350 605.666666667 348.333333333 596.833333333 345 588.5 c 128
 341.666666667 580.166666667 336.5 572.5 329.5 565.5 c 128
 322.5 558.5 318.166666667 553 316.5 549 c 128
 314.833333333 545 314 539.333333333 314 532 c 0
 314 522 320.333333333 507.833333333 333 489.5 c 128
 345.666666667 471.166666667 356.833333333 446.666666667 366.5 416 c 128
 376.166666667 385.333333333 389 344.666666667 405 294 c 0
 408.333333333 288 411 285 413 285 c 0
 417 285 419.5 309 420.5 357 c 128
 421.5 405 423.333333333 436 426 450 c 128
 428.666666667 464 435.333333333 485.666666667 446 515 c 128
 456.666666667 544.333333333 462 564.333333333 462 575 c 0
 462 580.333333333 461.333333333 584.833333333 460 588.5 c 128
 458.666666667 592.166666667 454.666666667 595.833333333 448 599.5 c 128
 441.333333333 603.166666667 436 607.666666667 432 613 c 128
 428 618.333333333 426 626.666666667 426 638 c 0
 426 646.666666667 428.333333333 656.666666667 433 668 c 128
 437.666666667 679.333333333 446 688.333333333 458 695 c 128
 470 701.666666667 483.333333333 705 498 705 c 0
 514 705 527.833333333 701.833333333 539.5 695.5 c 128
 551.166666667 689.166666667 559.666666667 679.333333333 565 666 c 0
363 187 m 0
 324.333333333 181.666666667 293.166666667 176.333333333 269.5 171 c 128
 245.833333333 165.666666667 234 159.333333333 234 152 c 0
 234 149.333333333 235.5 147.166666667 238.5 145.5 c 128
 241.5 143.833333333 243.666666667 140.5 245 135.5 c 128
 246.333333333 130.5 249 128 253 128 c 0
 261.666666667 128 270.833333333 129.333333333 280.5 132 c 128
 290.166666667 134.666666667 299.666666667 137.333333333 309 140 c 0
 339.666666667 143.333333333 367.833333333 145.5 393.5 146.5 c 128
 419.166666667 147.5 454.333333333 148 499 148 c 0
 543 148 577.5 147.5 602.5 146.5 c 128
 627.5 145.5 655.333333333 143.333333333 686 140 c 0
 713 134 713 134 740 128 c 0
 744 128 746.833333333 130.5 748.5 135.5 c 128
 750.166666667 140.5 752.666666667 143.833333333 756 145.5 c 128
 759.333333333 147.166666667 761 149.333333333 761 152 c 0
 761 158.666666667 747.666666667 165 721 171 c 128
 694.333333333 177 666.833333333 182 638.5 186 c 128
 610.166666667 190 586 192.666666667 566 194 c 128
 546 195.333333333 524 196 500 196 c 0
 450.666666667 196 405 193 363 187 c 0
638 64 m 0
 642.666666667 63.3333333333 656 61.3333333333 678 58 c 128
 700 54.6666666667 714.666666667 53 722 53 c 0
 723.333333333 53 724.666666667 53.3333333333 726 54 c 0
 724 60 724.333333333 64.5 727 67.5 c 128
 729.666666667 70.5 731 73.6666666667 731 77 c 0
 731 85.6666666667 717 92 689 96 c 128
 661 100 641.833333333 102.5 631.5 103.5 c 128
 621.166666667 104.5 607 105.333333333 589 106 c 128
 571 106.666666667 558 107 550 107 c 2
 499 107 l 2
 477 107 457.5 106.833333333 440.5 106.5 c 128
 423.5 106.166666667 397.166666667 103.833333333 361.5 99.5 c 128
 325.833333333 95.1666666667 301.666666667 91.8333333333 289 89.5 c 128
 276.333333333 87.1666666667 270 82 270 74 c 0
 270 71.3333333333 271.5 68.5 274.5 65.5 c 128
 277.5 62.5 278 59 276 55 c 0
 276.666666667 53 277.666666667 51.3333333333 279 50 c 2
 363 62 l 2
 403 66.6666666667 435.333333333 69 460 69 c 2
 500 69 l 2
 518 69 518 69 533.5 69 c 128
 543.833333333 69 553.333333333 69.3333333333 562 70 c 0
 574.666666667 70 587.333333333 69.3333333333 600 68 c 128
 619 66 619 66 638 64 c 0
637 -7 m 2
 646.333333333 -7 662.166666667 -9.66666666667 684.5 -15 c 128
 706.833333333 -20.3333333333 726 -25.3333333333 742 -30 c 1
 742 -27 742 -27 742 -25 c 0
 736.666666667 -19 735.833333333 -12.5 739.5 -5.5 c 128
 743.166666667 1.5 732.666666667 8 708 14 c 0
 672.666666667 20 646.5 24.5 629.5 27.5 c 128
 612.5 30.5 597 32.3333333333 583 33 c 128
 569 33.6666666667 553 34 535 34 c 2
 501 34 l 1
 465 34 l 2
 436.333333333 34 418.5 33.6666666667 411.5 33 c 128
 404.5 32.3333333333 390.166666667 30.1666666667 368.5 26.5 c 128
 346.833333333 22.8333333333 324 19 300 15 c 128
 276 11 264 4.33333333333 264 -5 c 0
 264 -5.66666666667 264.666666667 -8 266 -12 c 0
 267.333333333 -14 266.5 -17.1666666667 263.5 -21.5 c 128
 260.5 -25.8333333333 259.333333333 -28.6666666667 260 -30 c 0
 266 -28 283.5 -23.6666666667 312.5 -17 c 128
 341.5 -10.3333333333 359 -7 365 -7 c 2
 501 -5 l 1
 637 -7 l 2
EndSplineSet
EndChar

